<?xml version="1.0" standalone="no"?>
<!DOCTYPE svg PUBLIC "-//W3C//DTD SVG 1.1//EN" "http://www.w3.org/Graphics/SVG/1.1/DTD/svg11.dtd" >
<svg xmlns="http://www.w3.org/2000/svg">
<metadata>
Generated by SVGconv.
Copyright   : Copyright (c) 2010 by Letterhead Studio. All rights reserved.
Designer    : Yuri Gordon
Foundry     : Letterhead Studio
Foundry URL : www.letterhead.ru
</metadata>
<defs>
<font id="ConquerorSansSemiBold" horiz-adv-x="569" >
<font-face units-per-em="1000" ascent="985" descent="322" />
<missing-glyph horiz-adv-x="500" />
<glyph unicode="&#13;" horiz-adv-x="267" />
<glyph unicode="&#32;" horiz-adv-x="267" />
<glyph unicode="&#33;" horiz-adv-x="263" d="M91 201l-39 499h160l-38 -499zM61 65q0 29 21 50q21 21 50 21q29 0 49.5 -21q20.5 -21 20.5 -50q0 -29 -20.5 -49.5q-20.5 -20.5 -49.5 -20.5q-29 0 -50 20.5t-21 49.5z" />
<glyph unicode="&#34;" horiz-adv-x="460" d="M418 652q0 -15 -4.5 -26.5q-4.5 -11.5 -14.5 -23.5q-34 -42 -68.5 -82.5q-34.5 -40.5 -69.5 -82.5l-43 29q19 49 38.5 97.5q19.5 48.5 38.5 96.5q8 20 24 36q16 16 39 16q22 0 41 -15.5q19 -15.5 19 -44.5zt0 0zM244 652q0 -15 -4.5 -26.5q-4.5 -11.5 -14.5 -23.5q-34 -42 -68.5 -82.5q-34.5 -40.5 -69.5 -82.5l-43 29l78 194q8 20 23.5 36q15.5 16 38.5 16q22 0 41 -15.5t19 -44.5z" />
<glyph unicode="&#35;" horiz-adv-x="717" d="M528 408l-40 -117h145v-73h-169l-72 -218h-80l74 218h-143l-71 -218h-80l74 218h-126v73h151l38 117h-140v73h165l77 219h81l-78 -219h142l75 219h79l-77 -219h121v-73zM269 291h140l41 117l-141 0z" />
<glyph unicode="&#36;" horiz-adv-x="588" d="M536 207q0 -42 -14 -81.5q-14 -39.5 -43.5 -70q-29.5 -30.5 -76 -49.5q-46.5 -19 -110.5 -20l-10 -70h-83l11 77q-48 10 -90 32.5q-42 22.5 -72 46.5l59 102q23 -17 54 -35q31 -18 66 -29l29 195q-33 12 -65 28q-32 16 -57.5 39.5q-25.5 23.5 -41 57q-15.5 33.5 -15.5 81.5q0 41 12.5 77.5q12.5 36.5 40.5 64q28 27.5 73.5 44q45.5 16.5 112.5 17.5l9 63h82l-10 -71q34 -7 65 -18q31 -11 55 -24l-48 -106q-19 8 -41.5 16.5q-22.5 8.5 -47.5 14.5l-26 -174q33 -12 66 -28q33 -16 58.5 -39.5q25.5 -23.5 41.5 -57.5q16 -34 16 -83zt0 0zM410 185q0 33 -22 53.5q-22 20.5 -54 36.5l-26 -176q45 1 73.5 22q28.5 21 28.5 64zt0 0zM198 528q0 -32 22 -51.5q22 -19.5 56 -34.5l23 160q-19 0 -37 -4q-18 -4 -32.5 -12.5q-14.5 -8.5 -23 -22.5t-8.5 -35z" />
<glyph unicode="&#37;" horiz-adv-x="754" d="M147 0h-100l560 700h100zM360 548q0 -35 -11.5 -64q-11.5 -29 -32 -49.5q-20.5 -20.5 -47.5 -32q-27 -11.5 -58 -11.5q-32 0 -58.5 12q-26.5 12 -46 33q-19.5 21 -30.5 50q-11 29 -11 62q0 78 41 117.5q41 39.5 105 39.5q31 0 58 -10.5q27 -10.5 47.5 -31q20.5 -20.5 32 -49.5q11.5 -29 11.5 -66zt0 0zM278 548q0 44 -16.5 68q-16.5 24 -50.5 24q-35 0 -49 -24q-14 -24 -14 -68q0 -42 14 -67q14 -25 49 -25q34 0 50.5 25q16.5 25 16.5 67zt0 0zM690 152q0 -35 -11.5 -64q-11.5 -29 -31.5 -49.5q-20 -20.5 -47 -32q-27 -11.5 -58 -11.5q-32 0 -59 12q-27 12 -46.5 33q-19.5 21 -30.5 50q-11 29 -11 62q0 78 41.5 117.5q41.5 39.5 105.5 39.5q31 0 58 -10.5q27 -10.5 47 -31q20 -20.5 31.5 -49.5q11.5 -29 11.5 -66zt0 0zM609 152q0 44 -17 68q-17 24 -50 24q-35 0 -49.5 -24q-14.5 -24 -14.5 -68q0 -42 14.5 -67q14.5 -25 49.5 -25q33 0 50 25t17 67z" />
<glyph unicode="&#38;" horiz-adv-x="745" d="M486 48q-42 -32 -93 -47q-51 -15 -108 -15q-56 0 -99.5 17q-43.5 17 -73.5 46q-30 29 -46 68q-16 39 -16 83q0 38 8 69q8 31 26.5 57q18.5 26 48 47.5q29.5 21.5 72.5 40.5q-25 34 -40 71q-15 37 -15 70q0 34 13 63q13 29 37.5 50.5q24.5 21.5 60.5 33.5q36 12 81 12q32 0 64.5 -6.5q32.5 -6.5 61 -15.5q28.5 -9 49.5 -18.5q21 -9.5 31 -14.5l-54 -100q-49 24 -88 33.5q-39 9.5 -65 9.5q-28 0 -42 -14q-14 -14 -14 -34q0 -26 16.5 -51.5q16.5 -25.5 36.5 -50.5l170 -216q23 41 37 93q14 52 17 117l115 0q-6 -100 -30 -174.5q-24 -74.5 -63 -129.5l112 -142h-176zM314 98q57 0 104 39l-150 194q-45 -18 -67.5 -52q-22.5 -34 -22.5 -70q0 -28 11.5 -48.5q11.5 -20.5 30.5 -34.5q19 -14 43.5 -21t50.5 -7z" />
<glyph unicode="&#39;" horiz-adv-x="286" d="M244 652q0 -15 -4.5 -26.5q-4.5 -11.5 -14.5 -23.5q-34 -42 -68.5 -82.5q-34.5 -40.5 -69.5 -82.5l-43 29l78 194q8 20 23.5 36q15.5 16 38.5 16q22 0 41 -15.5t19 -44.5z" />
<glyph unicode="&#40;" horiz-adv-x="402" d="M168 262q0 -68 15 -124q15 -56 43.5 -104.5q28.5 -48.5 70.5 -91q42 -42.5 96 -83.5l-45 -79q-158 90 -229.5 212q-71.5 122 -71.5 270q0 147 71.5 269q71.5 122 229.5 212l45 -79q-54 -41 -96 -83.5q-42 -42.5 -70.5 -90.5q-28.5 -48 -43.5 -104t-15 -124z" />
<glyph unicode="&#41;" horiz-adv-x="402" d="M240 262q0 68 -15 124q-15 56 -43.5 104q-28.5 48 -70.5 90.5q-42 42.5 -97 83.5l46 79q158 -90 229.5 -212q71.5 -122 71.5 -269q0 -148 -71.5 -270q-71.5 -122 -229.5 -212l-46 79q55 41 97 83.5q42 42.5 70.5 91q28.5 48.5 43.5 104.5t15 124z" />
<glyph unicode="&#42;" horiz-adv-x="443" d="M285 508l78 -95l-77 -56l-64 106l-66 -106l-77 56l78 95l-117 28l24 91l118 -42l-8 121h86v-121l114 42l29 -91z" />
<glyph unicode="&#43;" horiz-adv-x="640" d="M358 256v-232h-77v232h-231v77h231v231h77v-231h232l0 -77z" />
<glyph unicode="&#44;" horiz-adv-x="233" d="M49 65q0 29 20.5 50q20.5 21 49.5 21q32 0 54.5 -22.5q22.5 -22.5 22.5 -60.5q0 -29 -15 -62.5q-15 -33.5 -34.5 -64q-19.5 -30.5 -38 -55q-18.5 -24.5 -26.5 -33.5l-46 25l71 133q-25 5 -41.5 24t-16.5 45z" />
<glyph unicode="&#45;" horiz-adv-x="290" d="M30 211v83h230l0 -83z" />
<glyph unicode="&#46;" horiz-adv-x="234" d="M47 65q0 29 20.5 50q20.5 21 49.5 21q29 0 50 -21q21 -21 21 -50q0 -29 -21 -49.5q-21 -20.5 -50 -20.5q-29 0 -49.5 20.5t-20.5 49.5z" />
<glyph unicode="&#47;" horiz-adv-x="499" d="M-1 -200l424 922h77l-425 -922z" />
<glyph unicode="&#48;" horiz-adv-x="566" d="M543 350q0 -81 -16.5 -148q-16.5 -67 -49 -115q-32.5 -48 -81 -75q-48.5 -27 -113.5 -27q-65 0 -113.5 28.5q-48.5 28.5 -81 77.5q-32.5 49 -49 115.5q-16.5 66.5 -16.5 143.5q0 81 16.5 148q16.5 67 49 115q32.5 48 81 75q48.5 27 113.5 27q65 0 113.5 -28.5q48.5 -28.5 81 -77.5q32.5 -49 49 -116q16.5 -67 16.5 -143zt0 0zM392 350q0 134 -25.5 193q-25.5 59 -83.5 59q-59 0 -84 -59q-25 -59 -25 -193q0 -134 25 -193q25 -59 84 -59q59 0 84 59t25 193z" />
<glyph unicode="&#49;" horiz-adv-x="566" d="M131 0v113h100v413l-96 -54l-48 84l219 144h73v-587h100l0 -113z" />
<glyph unicode="&#50;" horiz-adv-x="566" d="M71 0v52l219 290q24 32 44 68q20 36 20 79q0 53 -30 74q-30 21 -75 21q-32 0 -63.5 -17.5q-31.5 -17.5 -60.5 -43.5l-77 90q57 52 115 77q58 25 133 25q57 0 98 -15.5q41 -15.5 67.5 -41.5q26.5 -26 39 -59q12.5 -33 12.5 -68q0 -53 -20 -103.5q-20 -50.5 -52 -100q-32 -49.5 -71.5 -99.5q-39.5 -50 -79.5 -103l221 0l0 -125z" />
<glyph unicode="&#51;" horiz-adv-x="566" d="M309 715q53 0 88.5 -15q35.5 -15 56.5 -38.5q21 -23.5 29.5 -51q8.5 -27.5 8.5 -51.5q0 -63 -39 -112q-39 -49 -109 -75q81 -8 127 -50.5q46 -42.5 46 -111.5q0 -43 -17 -83.5q-17 -40.5 -51.5 -72q-34.5 -31.5 -86.5 -50.5q-52 -19 -123 -19q-35 0 -64.5 6q-29.5 6 -54 15q-24.5 9 -43 19.5q-18.5 10.5 -30.5 18.5l50 101q38 -20 68.5 -31q30.5 -11 62.5 -11q21 0 44.5 5.5q23.5 5.5 44 18.5q20.5 13 33.5 34q13 21 13 52q0 22 -8.5 37.5q-8.5 15.5 -22 25q-13.5 9.5 -31.5 14q-18 4.5 -37 4.5q-25 0 -56 -10l-34 92q85 35 130 68.5q45 33.5 45 80.5q0 31 -20 49.5q-20 18.5 -56 18.5q-42 0 -73.5 -17.5q-31.5 -17.5 -61.5 -46.5l-72 85q48 45 106.5 73t136.5 28z" />
<glyph unicode="&#52;" horiz-adv-x="566" d="M549 160h-90v-160h-147v160h-294v68l339 489h102v-451h90zM312 266v219l-152 -219z" />
<glyph unicode="&#53;" horiz-adv-x="566" d="M247 -11q-33 0 -62.5 5q-29.5 5 -55 13.5q-25.5 8.5 -46 18q-20.5 9.5 -33.5 18.5l50 99q41 -20 73.5 -30.5q32.5 -10.5 63.5 -10.5q24 0 48.5 6.5q24.5 6.5 44.5 21q20 14.5 32.5 38q12.5 23.5 12.5 56.5q0 59 -35.5 85q-35.5 26 -89.5 26q-24 0 -45 -5.5q-21 -5.5 -39 -14.5l-61 55l65 330h334v-114h-237l-27 -145q14 2 27.5 3.5q13.5 1.5 27.5 1.5q45 0 85 -15q40 -15 70 -43q30 -28 47.5 -68q17.5 -40 17.5 -91q0 -38 -13 -80q-13 -42 -44 -77.5q-31 -35.5 -82.5 -59t-128.5 -23.5z" />
<glyph unicode="&#54;" horiz-adv-x="566" d="M525 223q0 -52 -17.5 -95.5q-17.5 -43.5 -48.5 -75q-31 -31.5 -74 -49.5q-43 -18 -95 -18q-68 0 -115.5 23q-47.5 23 -77.5 66q-30 43 -43.5 104.5q-13.5 61.5 -13.5 138.5q0 92 14.5 166q14.5 74 47.5 125.5q33 51.5 86 79q53 27.5 130 27.5q47 0 95.5 -15q48.5 -15 85.5 -43l-56 -95q-32 23 -62 31q-30 8 -56 8q-28 0 -51.5 -8.5q-23.5 -8.5 -40.5 -30.5q-17 -22 -28 -60q-11 -38 -15 -98q4 3 16.5 9.5q12.5 6.5 30 13.5q17.5 7 38.5 12.5q21 5.5 43 5.5q55 0 94 -17.5q39 -17.5 64 -47.5q25 -30 37 -70.5q12 -40.5 12 -86.5zt0 0zM388 219q0 62 -30 91q-30 29 -76 29q-9 0 -21 -3q-12 -3 -24.5 -8q-12.5 -5 -25 -11q-12.5 -6 -21.5 -12q-1 -8 -1 -15.5q0 -7.5 0 -15.5q0 -42 3.5 -76q3.5 -34 14 -58q10.5 -24 30 -37q19.5 -13 50.5 -13q48 0 74.5 35t26.5 94z" />
<glyph unicode="&#55;" horiz-adv-x="566" d="M112 0l232 580h-290v120h467v-52l-259 -648z" />
<glyph unicode="&#56;" horiz-adv-x="566" d="M283 416q38 0 61.5 25.5q23.5 25.5 23.5 75.5q0 51 -22 74.5q-22 23.5 -63 23.5q-41 0 -63 -23.5q-22 -23.5 -22 -74.5q0 -50 23.5 -75.5q23.5 -25.5 61.5 -25.5zt0 0zM283 85q44 0 73 25q29 25 29 87q0 63 -28.5 88.5q-28.5 25.5 -73.5 25.5q-45 0 -73.5 -25.5q-28.5 -25.5 -28.5 -88.5q0 -62 29 -87q29 -25 73 -25zt0 0zM283 -15q-47 0 -91 12q-44 12 -78.5 37.5q-34.5 25.5 -55.5 65q-21 39.5 -21 95.5q0 63 31.5 106.5q31.5 43.5 86.5 66.5q-26 12 -44.5 29q-18.5 17 -30 37.5q-11.5 20.5 -17 43.5q-5.5 23 -5.5 46q0 87 57.5 139q57.5 52 167.5 52q110 0 167.5 -52q57.5 -52 57.5 -139q0 -47 -22.5 -90q-22.5 -43 -74.5 -66q55 -23 86.5 -66.5q31.5 -43.5 31.5 -106.5q0 -56 -21 -95.5q-21 -39.5 -55.5 -65q-34.5 -25.5 -79 -37.5t-90.5 -12z" />
<glyph unicode="&#57;" horiz-adv-x="566" d="M39 476q0 52 17 95.5q17 43.5 47.5 75.5q30.5 32 73.5 50q43 18 95 18q70 0 118 -23.5q48 -23.5 78 -68q30 -44.5 43.5 -108q13.5 -63.5 13.5 -143.5q0 -89 -14.5 -161q-14.5 -72 -47.5 -122q-33 -50 -85.5 -77q-52.5 -27 -127.5 -27q-48 0 -95.5 14q-47.5 14 -86.5 43l56 95q32 -23 62.5 -31q30.5 -8 56.5 -8q28 0 51 8.5q23 8.5 40.5 30.5q17.5 22 28 60q10.5 38 13.5 98q-5 -3 -17 -9.5q-12 -6.5 -29.5 -13.5q-17.5 -7 -38.5 -12.5q-21 -5.5 -43 -5.5q-54 0 -93.5 17.5q-39.5 17.5 -65 48q-25.5 30.5 -38 71q-12.5 40.5 -12.5 85.5zt0 0zM176 480q0 -62 31.5 -91q31.5 -29 76.5 -29q18 0 45.5 11q27.5 11 46.5 23q0 50 -3 90q-3 40 -13.5 67.5q-10.5 27.5 -30.5 42.5q-20 15 -54 15q-48 0 -73.5 -35t-25.5 -94z" />
<glyph unicode="&#58;" horiz-adv-x="234" d="M188 342q0 -29 -21 -50q-21 -21 -50 -21q-29 0 -49.5 21q-20.5 21 -20.5 50q0 29 20.5 49.5q20.5 20.5 49.5 20.5q29 0 50 -20.5q21 -20.5 21 -49.5zt0 0zM188 65q0 -29 -21 -49.5q-21 -20.5 -50 -20.5q-29 0 -49.5 20.5q-20.5 20.5 -20.5 49.5q0 29 20.5 50q20.5 21 49.5 21q29 0 50 -21t21 -50z" />
<glyph unicode="&#59;" horiz-adv-x="250" d="M55 342q0 29 21 49.5q21 20.5 50 20.5q29 0 49.5 -20.5q20.5 -20.5 20.5 -49.5q0 -29 -20.5 -50q-20.5 -21 -49.5 -21q-29 0 -50 21q-21 21 -21 50zt0 0zM55 65q0 29 21 50q21 21 50 21q32 0 54.5 -22.5q22.5 -22.5 22.5 -60.5q0 -29 -15 -62.5q-15 -33.5 -34.5 -64q-19.5 -30.5 -38.5 -55q-19 -24.5 -27 -33.5l-46 25l72 133q-25 5 -42 24t-17 45z" />
<glyph unicode="&#60;" horiz-adv-x="519" d="M469 550v-89l-288 -165q72 -42 144 -83q72 -41 144 -83l0 -89l-442 255z" />
<glyph unicode="&#61;" horiz-adv-x="640" d="M50 163v76h539v-76zM50 335v76h539l0 -76z" />
<glyph unicode="&#62;" horiz-adv-x="519" d="M47 41v89q72 42 143.5 83q71.5 41 143.5 83l-287 165v89l442 -254z" />
<glyph unicode="&#63;" horiz-adv-x="470" d="M221 700q63 0 102 -17.5q39 -17.5 60.5 -43q21.5 -25.5 29 -54.5q7.5 -29 7.5 -52q0 -42 -14.5 -70q-14.5 -28 -36.5 -49q-22 -21 -48 -37.5q-26 -16.5 -48 -35q-22 -18.5 -36.5 -41.5q-14.5 -23 -14.5 -57q0 -9 1 -19.5q1 -10.5 4 -22.5l-83 0q-14 23 -19.5 43.5q-5.5 20.5 -5.5 40.5q0 35 13 59.5q13 24.5 32.5 43q19.5 18.5 42.5 33q23 14.5 42.5 29.5q19.5 15 32.5 32.5q13 17.5 13 42.5q0 19 -8 32q-8 13 -19.5 20.5q-11.5 7.5 -25 11q-13.5 3.5 -24.5 3.5q-35 0 -66 -7.5q-31 -7.5 -72 -25.5l-40 100q46 20 89.5 30.5q43.5 10.5 91.5 10.5zt0 0zM115 65q0 29 21 50q21 21 50 21q29 0 49.5 -21q20.5 -21 20.5 -50q0 -29 -20.5 -49.5q-20.5 -20.5 -49.5 -20.5q-29 0 -50 20.5t-21 49.5z" />
<glyph unicode="&#64;" horiz-adv-x="824" d="M477 318q-47 -4 -83.5 -24q-36.5 -20 -61 -47.5q-24.5 -27.5 -37.5 -58q-13 -30.5 -13 -54.5q0 -30 8.5 -40.5q8.5 -10.5 25.5 -10.5q24 0 52 23q28 23 52 57.5q24 34.5 40 76q16 41.5 17 78.5zt0 0zM794 283q0 -78 -31.5 -131.5q-31.5 -53.5 -80 -87.5q-48.5 -34 -106 -49q-57.5 -15 -108.5 -15l0 141q-18 -28 -39 -54.5q-21 -26.5 -45 -46.5q-24 -20 -52 -32.5q-28 -12.5 -59 -12.5q-45 0 -72 31.5q-27 31.5 -27 97.5q0 50 30 100q30 50 84 90.5q54 40.5 129 65.5q75 25 165 25l0 -313q26 6 50 23.5q24 17.5 42 42.5q18 25 29 55.5q11 30.5 11 62.5q0 51 -20 87q-20 36 -54 58.5q-34 22.5 -79.5 33q-45.5 10.5 -95.5 10.5q-57 0 -120 -18q-63 -18 -115.5 -57q-52.5 -39 -87 -100.5q-34.5 -61.5 -34.5 -148.5q0 -76 24 -125q24 -49 61 -77q37 -28 82 -39q45 -11 87 -11q26 0 59 4q33 4 69 12.5q36 8.5 71.5 20.5q35.5 12 65.5 28l23 -66q-22 -11 -55.5 -23.5q-33.5 -12.5 -72.5 -23.5q-39 -11 -80 -18q-41 -7 -77 -7q-81 0 -143.5 22.5q-62.5 22.5 -104.5 64.5q-42 42 -63.5 101.5q-21.5 59.5 -21.5 133.5q0 88 36.5 160.5q36.5 72.5 96.5 124.5q60 52 138.5 81q78.5 29 162.5 29q76 0 137 -17.5q61 -17.5 103.5 -49.5q42.5 -32 65 -78.5t22.5 -104.5z" />
<glyph unicode="&#65;" horiz-adv-x="683" d="M427 700l241 -700h-152l-54 158h-254l-54 -158h-139l241 700zM245 271h179l-88 265z" />
<glyph unicode="&#66;" horiz-adv-x="620" d="M579 197q0 -53 -20 -90.5q-20 -37.5 -52.5 -61q-32.5 -23.5 -73 -34.5q-40.5 -11 -81.5 -11h-262v700h254q39 0 77 -9q38 -9 68.5 -29.5q30.5 -20.5 49.5 -53.5q19 -33 19 -81q0 -55 -35 -101q-35 -46 -100 -62q71 -11 113.5 -55q42.5 -44 42.5 -112zt0 0zM432 206q0 55 -32 79q-32 24 -88 24h-75v-204h75q56 0 88 23.5q32 23.5 32 77.5zt0 0zM409 505q0 48 -25.5 68.5q-25.5 20.5 -77.5 20.5h-69v-180h69q52 0 77.5 21.5t25.5 69.5z" />
<glyph unicode="&#67;" horiz-adv-x="678" d="M391 715q69 0 129.5 -12q60.5 -12 109.5 -34l-48 -117q-45 18 -87 27.5q-42 9.5 -90 9.5q-45 0 -83 -16.5q-38 -16.5 -65.5 -47.5q-27.5 -31 -43 -75.5q-15.5 -44.5 -15.5 -100.5q0 -59 16 -103.5q16 -44.5 43.5 -74q27.5 -29.5 65.5 -44q38 -14.5 83 -14.5q51 0 100 22.5q49 22.5 94 51.5l59 -106q-11 -8 -35.5 -24q-24.5 -16 -59.5 -32q-35 -16 -79 -28q-44 -12 -95 -12q-89 0 -154.5 27.5q-65.5 27.5 -109 76q-43.5 48.5 -65 115q-21.5 66.5 -21.5 145.5q0 80 23 147.5q23 67.5 67.5 116q44.5 48.5 110 75.5t150.5 27z" />
<glyph unicode="&#68;" horiz-adv-x="719" d="M522 350q0 120 -48 178.5q-48 58.5 -158 58.5h-78v-474h78q110 0 158 58.5q48 58.5 48 178.5zt0 0zM336 700q94 0 160 -31q66 -31 107 -81q41 -50 60 -112.5q19 -62.5 19 -125.5q0 -63 -18.5 -125.5q-18.5 -62.5 -59.5 -112.5q-41 -50 -107 -81q-66 -31 -161 -31h-246l0 700z" />
<glyph unicode="&#69;" horiz-adv-x="554" d="M475 303h-237v-190h270v-113h-418v700h407v-113h-259v-170l237 0z" />
<glyph unicode="&#70;" horiz-adv-x="512" d="M237 580v-176h237v-120h-237v-284h-147v700h407l0 -120z" />
<glyph unicode="&#71;" horiz-adv-x="693" d="M391 715q69 0 129.5 -12q60.5 -12 109.5 -34l-48 -117q-45 18 -87 27.5q-42 9.5 -90 9.5q-45 0 -83 -16.5q-38 -16.5 -65.5 -47.5q-27.5 -31 -43 -75.5q-15.5 -44.5 -15.5 -100.5q0 -59 16 -103.5q16 -44.5 43.5 -74q27.5 -29.5 65.5 -44.5q38 -15 83 -15q31 0 60.5 9.5q29.5 9.5 58.5 23.5l0 192h138v-258q-11 -9 -36 -24.5q-25 -15.5 -61 -31q-36 -15.5 -80.5 -27q-44.5 -11.5 -95.5 -11.5q-89 0 -154.5 27.5q-65.5 27.5 -109 76q-43.5 48.5 -65 115q-21.5 66.5 -21.5 145.5q0 80 23 147.5q23 67.5 67.5 116q44.5 48.5 110 75.5t150.5 27z" />
<glyph unicode="&#72;" horiz-adv-x="779" d="M542 0v298h-304v-298h-148v700h148v-276h304v276h147l0 -700z" />
<glyph unicode="&#73;" horiz-adv-x="328" d="M90 0v700h147l0 -700z" />
<glyph unicode="&#74;" horiz-adv-x="341" d="M251 58q0 -71 -19.5 -119.5q-19.5 -48.5 -56 -78q-36.5 -29.5 -90 -42.5q-53.5 -13 -122.5 -13l0 113q26 0 51.5 3.5q25.5 3.5 45 17.5q19.5 14 31.5 42q12 28 12 77v642h148l0 -642z" />
<glyph unicode="&#75;" horiz-adv-x="697" d="M495 0l-193 298h-65v-298h-147v700h147v-276h61l188 276h175l-237 -333l248 -367z" />
<glyph unicode="&#76;" horiz-adv-x="558" d="M536 0h-446v700h147v-581l299 0z" />
<glyph unicode="&#77;" horiz-adv-x="963" d="M739 0l-22 532l-185 -532h-121l-179 531l-26 -531h-132l38 700h208l160 -486l172 486h203l32 -700z" />
<glyph unicode="&#78;" horiz-adv-x="784" d="M693 0h-116l-357 444v-444h-130v700h116l357 -445v445l130 0z" />
<glyph unicode="&#79;" horiz-adv-x="778" d="M188 350q0 -61 15 -108q15 -47 41.5 -79q26.5 -32 63.5 -48.5q37 -16.5 81 -16.5q45 0 82 16.5q37 16.5 63.5 48.5q26.5 32 41.5 79q15 47 15 108q0 61 -15 108q-15 47 -41.5 79q-26.5 32 -63.5 48.5q-37 16.5 -82 16.5q-44 0 -81 -16.5q-37 -16.5 -63.5 -48.5q-26.5 -32 -41.5 -79q-15 -47 -15 -108zt0 0zM40 350q0 75 22.5 141.5q22.5 66.5 67 116q44.5 49.5 109.5 78.5q65 29 150 29q85 0 150 -29q65 -29 109 -78.5q44 -49.5 67 -116q23 -66.5 23 -141.5q0 -75 -23 -141.5q-23 -66.5 -67 -116q-44 -49.5 -109 -78.5q-65 -29 -150 -29q-85 0 -150 29q-65 29 -109.5 78.5q-44.5 49.5 -67 116t-22.5 141.5z" />
<glyph unicode="&#80;" horiz-adv-x="606" d="M238 362h59q64 0 96 29.5q32 29.5 32 84.5q0 110 -128 110h-59zM238 0h-148v700h243q47 0 91 -14.5q44 -14.5 78 -43q34 -28.5 54.5 -70q20.5 -41.5 20.5 -96.5q0 -58 -20.5 -100.5q-20.5 -42.5 -54 -70q-33.5 -27.5 -77.5 -40.5q-44 -13 -92 -13l-95 0z" />
<glyph unicode="&#81;" horiz-adv-x="798" d="M47 350q0 78 22.5 145q22.5 67 67 115.5q44.5 48.5 109.5 76.5q65 28 150 28q85 0 150 -28q65 -28 109 -76.5q44 -48.5 67 -115.5q23 -67 23 -145q0 -112 -46.5 -198.5q-46.5 -86.5 -135.5 -128.5l253 -97l-48 -111l-488 186q-57 17 -100.5 50q-43.5 33 -73 78q-29.5 45 -44.5 101.5q-15 56.5 -15 119.5zt0 0zM195 350q0 -63 14.5 -110.5q14.5 -47.5 41 -79q26.5 -31.5 63.5 -47q37 -15.5 82 -15.5q44 0 81 15.5q37 15.5 63.5 47q26.5 31.5 41.5 79q15 47.5 15 110.5q0 63 -15 110.5q-15 47.5 -41.5 79q-26.5 31.5 -63.5 47q-37 15.5 -81 15.5q-45 0 -82 -15.5q-37 -15.5 -63.5 -47q-26.5 -31.5 -41 -79t-14.5 -110.5z" />
<glyph unicode="&#82;" horiz-adv-x="659" d="M231 0h-148v700h223q45 0 93 -11q48 -11 88.5 -37.5q40.5 -26.5 66.5 -70q26 -43.5 26 -107.5q0 -77 -36.5 -126q-36.5 -49 -92.5 -71q41 -70 81.5 -139q40.5 -69 80.5 -138l-166 0l-141 252h-75zM231 362h73q59 0 91.5 28.5q32.5 28.5 32.5 82.5q0 55 -32.5 82.5q-32.5 27.5 -91.5 27.5l-73 0z" />
<glyph unicode="&#83;" horiz-adv-x="578" d="M543 207q0 -43 -16 -83q-16 -40 -49 -70.5q-33 -30.5 -82.5 -49q-49.5 -18.5 -116.5 -18.5q-33 0 -67 7q-34 7 -66.5 19q-32.5 12 -61 27.5q-28.5 15.5 -49.5 32.5l59 107q17 -12 39 -25.5q22 -13.5 47 -25q25 -11.5 51.5 -18.5q26.5 -7 52.5 -7q19 0 39.5 4.5q20.5 4.5 36.5 14.5q16 10 26.5 25.5q10.5 15.5 10.5 37.5q0 32 -24.5 52q-24.5 20 -61.5 36q-37 16 -80.5 32.5q-43.5 16.5 -80.5 42q-37 25.5 -61.5 64.5q-24.5 39 -24.5 99q0 42 14 79q14 37 45 64.5q31 27.5 80 43.5q49 16 118 16q25 0 53 -4q28 -4 55 -11q27 -7 52 -16q25 -9 43 -19l-48 -111q-40 18 -86 31q-46 13 -84 13q-18 0 -36.5 -3q-18.5 -3 -32.5 -11q-14 -8 -23 -21.5q-9 -13.5 -9 -33.5q0 -31 25 -49.5q25 -18.5 62.5 -33q37.5 -14.5 81.5 -30.5q44 -16 81.5 -41.5q37.5 -25.5 62.5 -65t25 -101.5z" />
<glyph unicode="&#84;" horiz-adv-x="610" d="M594 573h-216v-573h-147v573h-216v127l579 0z" />
<glyph unicode="&#85;" horiz-adv-x="756" d="M378 -15q-64 0 -117 16q-53 16 -91 49q-38 33 -59 83.5q-21 50.5 -21 119.5v447h148v-447q0 -65 33 -103.5q33 -38.5 107 -38.5q74 0 107 38.5q33 38.5 33 103.5v447h148v-447q0 -69 -21 -119.5q-21 -50.5 -59 -83.5q-38 -33 -91 -49t-117 -16z" />
<glyph unicode="&#86;" horiz-adv-x="720" d="M173 700l189 -469l193 469h150l-287 -700h-116l-287 700z" />
<glyph unicode="&#87;" horiz-adv-x="981" d="M695 268l130 432h140l-212 -700h-117l-150 430l-150 -430h-109l-212 700h148l130 -438l150 438l103 0z" />
<glyph unicode="&#88;" horiz-adv-x="669" d="M425 353l222 -353h-176l-146 239l-145 -239h-154l217 347l-221 353h174l147 -240l146 240l154 0z" />
<glyph unicode="&#89;" horiz-adv-x="653" d="M399 0h-147v251l-237 449h156l161 -308l163 308h142l-238 -451z" />
<glyph unicode="&#90;" horiz-adv-x="627" d="M35 0v48l333 526h-311v126h535v-49l-328 -525h323l0 -126z" />
<glyph unicode="&#91;" horiz-adv-x="289" d="M47 -220v960h221v-87h-117v-787h117l0 -86z" />
<glyph unicode="&#92;" horiz-adv-x="499" d="M75 722l425 -922h-77l-424 922z" />
<glyph unicode="&#93;" horiz-adv-x="293" d="M245 740v-960h-221v87h117v786h-117l0 87z" />
<glyph unicode="&#94;" horiz-adv-x="481" d="M359 547l-119 123l-119 -123h-96l181 193h68l182 -193z" />
<glyph unicode="&#95;" horiz-adv-x="532" d="M0 -105v77h532l0 -77z" />
<glyph unicode="&#96;" horiz-adv-x="322" d="M43 711h134l105 -165l-75 0z" />
<glyph unicode="&#97;" horiz-adv-x="520" d="M334 63q-33 -30 -74.5 -52q-41.5 -22 -87.5 -22q-63 0 -102.5 32q-39.5 32 -39.5 98q0 46 21 79q21 33 60.5 54q39.5 21 96 32q56.5 11 126.5 14q0 34 -6.5 53q-6.5 19 -18.5 28.5q-12 9.5 -27.5 11.5q-15.5 2 -33.5 2q-19 0 -42.5 -4q-23.5 -4 -46 -10q-22.5 -6 -43 -12.5q-20.5 -6.5 -33.5 -11.5l-28 88q23 10 51.5 18q28.5 8 58.5 14q30 6 61 9.5q31 3.5 58 3.5q29 0 61 -7.5q32 -7.5 59 -28.5q27 -21 44.5 -59q17.5 -38 17.5 -99v-294h-132zM221 84q13 0 27.5 5.5q14.5 5.5 29.5 14q15 8.5 29.5 19.5q14.5 11 26.5 22l0 76q-38 -2 -70 -7q-32 -5 -55 -14.5q-23 -9.5 -36 -25.5q-13 -16 -13 -39q0 -24 14.5 -37.5t46.5 -13.5z" />
<glyph unicode="&#98;" horiz-adv-x="592" d="M278 -15q-54 0 -109 18q-55 18 -109 54l0 643h132v-261q26 18 64 33.5q38 15.5 88 15.5q41 0 79 -17q38 -17 67.5 -48q29.5 -31 47 -74.5q17.5 -43.5 17.5 -96.5q0 -69 -22.5 -119q-22.5 -50 -60.5 -83q-38 -33 -88 -49q-50 -16 -106 -16zt0 0zM293 386q-30 0 -55.5 -11.5q-25.5 -11.5 -45.5 -29.5l0 -240q14 -10 37 -17q23 -7 42 -7q22 0 48.5 5.5q26.5 5.5 49.5 22.5q23 17 38 49q15 32 15 86q0 43 -14.5 70.5q-14.5 27.5 -35 43.5q-20.5 16 -42.5 22t-37 6z" />
<glyph unicode="&#99;" horiz-adv-x="504" d="M481 64q-17 -12 -38.5 -25.5q-21.5 -13.5 -47.5 -25.5q-26 -12 -56 -20q-30 -8 -64 -8q-49 0 -92 15q-43 15 -74.5 46q-31.5 31 -50 78.5q-18.5 47.5 -18.5 112.5q0 65 22 112.5q22 47.5 56.5 78q34.5 30.5 78 45.5q43.5 15 87.5 15q41 0 85 -7q44 -7 91 -20l-26 -94q-32 9 -61.5 14q-29.5 5 -57.5 5q-30 0 -55.5 -8q-25.5 -8 -44 -25.5q-18.5 -17.5 -29 -46q-10.5 -28.5 -10.5 -69.5q0 -75 37 -111q37 -36 98 -36q32 0 62.5 15.5q30.5 15.5 60.5 35.5z" />
<glyph unicode="&#100;" horiz-adv-x="600" d="M407 352q-22 15 -46 24.5q-24 9.5 -56 9.5q-20 0 -42.5 -5.5q-22.5 -5.5 -42.5 -21.5q-20 -16 -33 -45.5q-13 -29.5 -13 -76.5q0 -39 9.5 -66q9.5 -27 25.5 -43.5q16 -16.5 38 -23.5q22 -7 48 -7q30 0 58 17.5q28 17.5 54 43.5zM407 0v65q-13 -15 -30 -29q-17 -14 -37.5 -25.5q-20.5 -11.5 -43 -18.5q-22.5 -7 -46.5 -7q-39 0 -76.5 14q-37.5 14 -67 44q-29.5 30 -48 78q-18.5 48 -18.5 116q0 67 22 114.5q22 47.5 55.5 78q33.5 30.5 74 44.5q40.5 14 77.5 14q42 0 75.5 -11q33.5 -11 62.5 -27l0 250h133l0 -700z" />
<glyph unicode="&#101;" horiz-adv-x="511" d="M33 226q0 67 20 116.5q20 49.5 53 82q33 32.5 75 48q42 15.5 86 15.5q216 0 216 -264l-320 0q1 -40 12 -67q11 -27 30.5 -43q19.5 -16 46 -23q26.5 -7 57.5 -7q17 0 36 5q19 5 37 12.5q18 7.5 34.5 16q16.5 8.5 29.5 16.5l37 -72q-17 -12 -37.5 -26q-20.5 -14 -45.5 -25q-25 -11 -54.5 -18.5q-29.5 -7.5 -64.5 -7.5q-55 0 -100.5 15.5q-45.5 15.5 -78.5 45.5q-33 30 -51 75q-18 45 -18 105zt0 0zM273 400q-36 0 -62.5 -22q-26.5 -22 -41.5 -80l197 0q-1 21 -6 39.5q-5 18.5 -15.5 32.5q-10.5 14 -28 22t-43.5 8z" />
<glyph unicode="&#102;" horiz-adv-x="354" d="M85 0v379h-63v93h63v92q0 45 12.5 74q12.5 29 32.5 46.5q20 17.5 46 24q26 6.5 53 6.5q45 0 84.5 -7q39.5 -7 80.5 -19l-31 -92q-32 11 -58.5 17.5q-26.5 6.5 -45.5 6.5q-20 0 -30.5 -12q-10.5 -12 -10.5 -39v-98h121v-93h-121l0 -379z" />
<glyph unicode="&#103;" horiz-adv-x="540" d="M439 401q15 -18 24.5 -39.5q9.5 -21.5 9.5 -52.5q0 -50 -21.5 -84q-21.5 -34 -57.5 -57q-36 -23 -82.5 -37.5q-46.5 -14.5 -95.5 -26.5l0 -7q76 -3 128.5 -15.5q52.5 -12.5 84.5 -32q32 -19.5 46 -44.5q14 -25 14 -52q0 -38 -20.5 -68q-20.5 -30 -56 -51q-35.5 -21 -81.5 -32.5q-46 -11.5 -97 -11.5q-59 0 -99 11q-40 11 -64.5 28.5q-24.5 17.5 -35 40q-10.5 22.5 -10.5 46.5q0 35 31 67q31 32 86 57l-89 13v64q31 9 61.5 17.5q30.5 8.5 61.5 18.5q-69 22 -101.5 59q-32.5 37 -32.5 97q0 42 16 75q16 33 44.5 56.5q28.5 23.5 68 35.5q39.5 12 86.5 12q25 0 54.5 -6.5q29.5 -6.5 49.5 -16.5l150 51v-94zM167 309q0 -45 22.5 -73q22.5 -28 67.5 -28q45 0 68 28q23 28 23 73q0 39 -23 68q-23 29 -68 29q-45 0 -67.5 -29q-22.5 -29 -22.5 -68zt0 0zM238 -123q66 0 100.5 20q34.5 20 34.5 51q0 23 -26.5 41q-26.5 18 -89.5 27q-40 -11 -66 -24q-26 -13 -41 -25.5q-15 -12.5 -21 -23.5q-6 -11 -6 -18q0 -20 28 -34t87 -14z" />
<glyph unicode="&#104;" horiz-adv-x="594" d="M192 416q8 8 23.5 20q15.5 12 35.5 23q20 11 45 19q25 8 53 8q41 0 75.5 -13.5q34.5 -13.5 60 -40q25.5 -26.5 39.5 -66q14 -39.5 14 -91.5v-275h-132v259q0 35 -8.5 58q-8.5 23 -22.5 36.5q-14 13.5 -31.5 18.5q-17.5 5 -35.5 5q-14 0 -30 -4q-16 -4 -32 -11q-16 -7 -30 -16.5q-14 -9.5 -24 -20.5l0 -325h-132v700l132 0z" />
<glyph unicode="&#105;" horiz-adv-x="252" d="M50 622q0 31 22 53q22 22 53 22q32 0 54 -22q22 -22 22 -53q0 -15 -6 -28q-6 -13 -16.5 -23q-10.5 -10 -24 -16q-13.5 -6 -29.5 -6q-15 0 -29 6q-14 6 -24 16q-10 10 -16 23q-6 13 -6 28zt0 0zM192 0h-132v472l132 0z" />
<glyph unicode="&#106;" horiz-adv-x="252" d="M192 16q0 -65 -22 -106.5q-22 -41.5 -56.5 -64.5q-34.5 -23 -77 -31.5q-42.5 -8.5 -84.5 -8.5l0 96q60 0 84 31.5q24 31.5 24 83.5v456h132zM50 622q0 31 22 53q22 22 53 22q32 0 54 -22q22 -22 22 -53q0 -15 -6 -28q-6 -13 -16.5 -23q-10.5 -10 -24 -16q-13.5 -6 -29.5 -6q-15 0 -29 6q-14 6 -24 16q-10 10 -16 23t-6 28z" />
<glyph unicode="&#107;" horiz-adv-x="542" d="M331 275l195 -275h-152l-132 189l-50 -51v-138h-132v700h132v-427l186 199l151 0z" />
<glyph unicode="&#108;" horiz-adv-x="252" d="M192 0h-132v700l132 0z" />
<glyph unicode="&#109;" horiz-adv-x="861" d="M501 0h-133v269q0 35 -7.5 56q-7.5 21 -19.5 32.5q-12 11.5 -27 15q-15 3.5 -31 3.5q-29 0 -53 -16.5q-24 -16.5 -38 -41.5l0 -318h-132v472h132v-58q5 7 16.5 19.5q11.5 12.5 28.5 24.5q17 12 39 21q22 9 48 9q51 0 86.5 -22q35.5 -22 59.5 -59q6 6 20.5 19q14.5 13 36 27q21.5 14 48.5 24.5q27 10.5 57 10.5q86 0 131.5 -55q45.5 -55 45.5 -151v-282h-133v269q0 35 -7.5 56q-7.5 21 -19.5 32.5q-12 11.5 -27 15q-15 3.5 -30 3.5q-12 0 -25.5 -5q-13.5 -5 -26 -13q-12.5 -8 -23 -17.5q-10.5 -9.5 -16.5 -19.5z" />
<glyph unicode="&#110;" horiz-adv-x="594" d="M192 415q12 12 28 25q16 13 35.5 23q19.5 10 42.5 16.5q23 6.5 51 6.5q41 0 75.5 -13.5q34.5 -13.5 60 -40q25.5 -26.5 39.5 -66q14 -39.5 14 -91.5v-275h-132v259q0 35 -8.5 58q-8.5 23 -22.5 36.5q-14 13.5 -31.5 18.5q-17.5 5 -35.5 5q-14 0 -30 -4q-16 -4 -32 -11q-16 -7 -30 -16.5q-14 -9.5 -24 -20.5l0 -325h-132v472l132 0z" />
<glyph unicode="&#111;" horiz-adv-x="583" d="M417 236q0 78 -32.5 120q-32.5 42 -92.5 42q-60 0 -93 -41.5q-33 -41.5 -33 -119.5q0 -78 33 -120q33 -42 93 -42q60 0 92.5 41.5q32.5 41.5 32.5 119.5zt0 0zM550 236q0 -60 -19.5 -107q-19.5 -47 -54 -79q-34.5 -32 -82 -48.5q-47.5 -16.5 -102.5 -16.5q-56 0 -103.5 16.5q-47.5 16.5 -82 49q-34.5 32.5 -54 79.5q-19.5 47 -19.5 107q0 60 19.5 107q19.5 47 54 79q34.5 32 82 48.5q47.5 16.5 103.5 16.5q55 0 102.5 -16.5q47.5 -16.5 82 -49q34.5 -32.5 54 -79.5t19.5 -107z" />
<glyph unicode="&#112;" horiz-adv-x="587" d="M419 241q0 45 -13 72.5q-13 27.5 -32 42.5q-19 15 -41 20q-22 5 -39 5q-31 0 -57.5 -14.5q-26.5 -14.5 -44.5 -31.5l0 -225q18 -16 46.5 -22.5q28.5 -6.5 50.5 -6.5q18 0 40.5 5q22.5 5 42.5 21.5q20 16.5 33.5 48q13.5 31.5 13.5 85.5zt0 0zM60 472h132v-59q9 12 24.5 25q15.5 13 36 24.5q20.5 11.5 44.5 19q24 7.5 50 7.5q37 0 74 -13.5q37 -13.5 66 -43q29 -29.5 47.5 -76q18.5 -46.5 18.5 -111.5q0 -69 -21.5 -118q-21.5 -49 -55 -80.5q-33.5 -31.5 -74.5 -46.5q-41 -15 -80 -15q-32 0 -69 10.5q-37 10.5 -61 27.5l0 -218l-132 0z" />
<glyph unicode="&#113;" horiz-adv-x="576" d="M383 375q-11 6 -30.5 9q-19.5 3 -30.5 3q-28 0 -56 -7.5q-28 -7.5 -50 -25.5q-22 -18 -35.5 -47.5q-13.5 -29.5 -13.5 -72.5q0 -48 13 -77q13 -29 32 -44.5q19 -15.5 39 -20.5q20 -5 34 -5q33 0 57 10.5q24 10.5 41 26.5zM383 36q-27 -25 -59 -38q-32 -13 -74 -13q-41 0 -80 14.5q-39 14.5 -69.5 45q-30.5 30.5 -49 77.5q-18.5 47 -18.5 111q0 69 26.5 117.5q26.5 48.5 68.5 79q42 30.5 93.5 44.5q51.5 14 101.5 14q22 0 43.5 -5q21.5 -5 41.5 -11l108 47v-714l-133 0z" />
<glyph unicode="&#114;" horiz-adv-x="399" d="M192 331q22 71 65 106.5q43 35.5 109 50.5l25 -114q-60 -17 -99 -38.5q-39 -21.5 -61 -51q-22 -29.5 -30.5 -69q-8.5 -39.5 -8.5 -91.5v-124h-132v472l132 0z" />
<glyph unicode="&#115;" horiz-adv-x="480" d="M445 146q0 -46 -19 -77q-19 -31 -48 -49.5q-29 -18.5 -64.5 -26.5q-35.5 -8 -68.5 -8q-63 0 -115.5 18q-52.5 18 -94.5 47l43 81q42 -28 84.5 -42q42.5 -14 73.5 -14q45 0 63.5 14q18.5 14 18.5 37q0 21 -19.5 32.5q-19.5 11.5 -48.5 20q-29 8.5 -63.5 17.5q-34.5 9 -63.5 25.5q-29 16.5 -48.5 44q-19.5 27.5 -19.5 72.5q0 31 12 58.5q12 27.5 36 48q24 20.5 59.5 32.5q35.5 12 82.5 12q48 0 92 -8.5q44 -8.5 92 -27.5l-29 -92q-52 19 -94 26.5q-42 7.5 -76 7.5q-27 0 -40.5 -11q-13.5 -11 -13.5 -29q0 -18 20 -28.5q20 -10.5 50 -19.5q30 -9 64.5 -19q34.5 -10 64.5 -27q30 -17 50 -44.5t20 -70.5z" />
<glyph unicode="&#116;" horiz-adv-x="391" d="M373 40q-33 -18 -71.5 -33.5q-38.5 -15.5 -80.5 -15.5q-37 0 -61.5 11.5q-24.5 11.5 -39 31q-14.5 19.5 -20.5 46.5q-6 27 -6 57v242h-81v13l188 212h26v-132h141v-93h-141v-226q0 -56 40 -56q16 0 36 6.5q20 6.5 40 14.5z" />
<glyph unicode="&#117;" horiz-adv-x="578" d="M187 211q0 -37 8 -58.5q8 -21.5 21 -32.5q13 -11 29.5 -14q16.5 -3 34.5 -3q29 0 56 17q27 17 50 43l0 309h132v-472h-132v71q-9 -10 -25 -24q-16 -14 -37 -27q-21 -13 -45.5 -22q-24.5 -9 -49.5 -9q-86 0 -130 49.5q-44 49.5 -44 156.5v277h132l0 -261z" />
<glyph unicode="&#118;" horiz-adv-x="544" d="M150 472l130 -319l132 319h121l-213 -472h-96l-211 472z" />
<glyph unicode="&#119;" horiz-adv-x="742" d="M150 472l92 -284l92 284h92l100 -282l85 282h118l-158 -472h-89l-106 270l-99 -270h-93l-171 472z" />
<glyph unicode="&#120;" horiz-adv-x="512" d="M245 150l-97 -150h-130l162 235l-158 237h146l94 -148l99 148h131l-164 -231l165 -241l-155 0z" />
<glyph unicode="&#121;" horiz-adv-x="544" d="M408 472h126l-282 -667h-127l86 199l-201 468h143l125 -317z" />
<glyph unicode="&#122;" horiz-adv-x="492" d="M33 0v49l228 320h-219v103h417v-46l-228 -323h220l0 -103z" />
<glyph unicode="&#123;" horiz-adv-x="360" d="M131 260q37 -16 59.5 -38q22.5 -22 34.5 -50.5q12 -28.5 16 -64q4 -35.5 4 -78.5v-81q0 -58 23 -78q23 -20 69 -20l0 -73q-43 0 -80 10.5q-37 10.5 -64.5 33.5q-27.5 23 -43 59.5q-15.5 36.5 -15.5 89.5q0 32 1 63.5q1 31.5 1 67.5q0 41 -9.5 65.5q-9.5 24.5 -23.5 38q-14 13.5 -29.5 18q-15.5 4.5 -27.5 6.5l0 62q12 1 27.5 6q15.5 5 29.5 18.5q14 13.5 23.5 38q9.5 24.5 9.5 65.5q0 36 -1 67q-1 31 -1 65q0 53 15.5 89.5q15.5 36.5 42.5 59.5q27 23 64 33q37 10 81 10l0 -72q-48 0 -70 -20.5q-22 -20.5 -22 -77.5v-82q0 -43 -4 -78.5q-4 -35.5 -16 -64q-12 -28.5 -34.5 -50.5t-59.5 -38z" />
<glyph unicode="&#124;" horiz-adv-x="177" d="M50 -296v1036h76l0 -1036z" />
<glyph unicode="&#125;" horiz-adv-x="360" d="M235 260q-37 16 -59.5 38q-22.5 22 -35 50.5q-12.5 28.5 -16.5 64q-4 35.5 -4 78.5q0 15 0.5 32.5q0.5 17.5 0.5 49.5q0 57 -22.5 77.5q-22.5 20.5 -69.5 20.5l0 72q43 0 80 -10q37 -10 64 -33q27 -23 42.5 -59.5q15.5 -36.5 15.5 -89.5q0 -34 -0.5 -65q-0.5 -31 -0.5 -67q0 -41 9.5 -65.5q9.5 -24.5 23.5 -38q14 -13.5 29.5 -18.5q15.5 -5 27.5 -6l0 -62q-12 -2 -27.5 -6.5q-15.5 -4.5 -29.5 -18q-14 -13.5 -23.5 -38q-9.5 -24.5 -9.5 -65.5q0 -36 0.5 -67.5q0.5 -31.5 0.5 -63.5q0 -53 -15.5 -89.5q-15.5 -36.5 -42.5 -59.5q-27 -23 -64 -33.5q-37 -10.5 -80 -10.5l0 73q46 0 69 20q23 20 23 78q0 32 -0.5 49q-0.5 17 -0.5 32q0 43 4 78.5q4 35.5 16.5 64q12.5 28.5 35 50.5t59.5 38z" />
<glyph unicode="&#126;" horiz-adv-x="651" d="M606 296q-30 -20 -52 -34q-22 -14 -41 -22.5q-19 -8.5 -37 -12.5q-18 -4 -40 -4q-30 0 -57 11q-27 11 -54 24q-27 13 -54.5 24q-27.5 11 -56.5 11q-21 0 -37.5 -2.5q-16.5 -2.5 -35 -10.5q-18.5 -8 -41 -22q-22.5 -14 -55.5 -36l0 75q27 19 48.5 33q21.5 14 41 23q19.5 9 38.5 13q19 4 42 4q30 0 57 -11q27 -11 54 -24q27 -13 54 -24q27 -11 57 -11q21 0 37.5 2.5q16.5 2.5 35 10.5q18.5 8 41 21.5q22.5 13.5 55.5 36.5l0 -75z" />
<glyph unicode="&#160;" horiz-adv-x="267" />
<glyph unicode="&#161;" horiz-adv-x="263" d="M173 494l39 -499h-160l38 499zM203 630q0 -29 -21 -50q-21 -21 -50 -21q-29 0 -49.5 21q-20.5 21 -20.5 50q0 29 20.5 49.5q20.5 20.5 49.5 20.5q29 0 50 -20.5t21 -49.5z" />
<glyph unicode="&#162;" horiz-adv-x="504" d="M365 481q23 -3 46.5 -8q23.5 -5 48.5 -12l-26 -94q-23 6 -43 10.5q-20 4.5 -40 6.5l-43 -294h3q32 0 62.5 15.5q30.5 15.5 60.5 35.5l47 -77q-16 -11 -36 -23.5q-20 -12.5 -43.5 -24q-23.5 -11.5 -51 -20q-27.5 -8.5 -57.5 -10.5l-10 -70h-83l11 76q-75 16 -123 76.5q-48 60.5 -48 168.5q0 65 22 112.5q22 47.5 56.5 78q34.5 30.5 78 45.5q43.5 15 87.5 15l10 69h82zM176 237q0 -45 13.5 -76q13.5 -31 38.5 -48l40 267q-42 -11 -67 -44t-25 -99z" />
<glyph unicode="&#163;" horiz-adv-x="584" d="M48 375h74q11 70 23 131.5q12 61.5 37 107.5q25 46 69 73q44 27 120 27q50 0 95.5 -9q45.5 -9 83.5 -19l-30 -106q-50 11 -97 20q-47 9 -70 9q-18 0 -31.5 -9.5q-13.5 -9.5 -25 -35.5q-11.5 -26 -22 -71.5q-10.5 -45.5 -23.5 -117.5l179 0v-91h-197l-34 -167q28 11 56 15.5q28 4.5 56 4.5q54 0 111.5 -10.5q57.5 -10.5 117.5 -21.5l-25 -123q-38 7 -77 15q-39 8 -75.5 14.5q-36.5 6.5 -70.5 11q-34 4.5 -61 4.5q-35 0 -59.5 -6.5q-24.5 -6.5 -45.5 -20.5l-76 0l55 284l-57 0z" />
<glyph unicode="&#164;" horiz-adv-x="823" d="M93 351q0 54 17.5 103q17.5 49 47.5 89l-108 110q14 14 28.5 29q14.5 15 29.5 29l108 -110q41 32 90 50q49 18 105 18q55 0 104.5 -18q49.5 -18 89.5 -50q54 56 110 110q14 -14 28.5 -29q14.5 -15 29.5 -29q-56 -54 -110 -110q31 -41 48 -89.5q17 -48.5 17 -102.5q0 -56 -17 -105q-17 -49 -49 -89l110 -111q-14 -14 -28.5 -28.5q-14.5 -14.5 -29.5 -28.5l-111 110q-40 -31 -89 -48q-49 -17 -103 -17q-55 0 -104 17q-49 17 -89 47l-110 -109q-15 14 -29.5 28.5q-14.5 14.5 -28.5 28.5l109 110q-31 41 -48.5 90q-17.5 49 -17.5 105zt0 0zM206 351q0 -42 16 -79.5q16 -37.5 44 -65q28 -27.5 65.5 -43.5q37.5 -16 79.5 -16q42 0 78.5 16q36.5 16 63.5 43.5q27 27.5 43 65q16 37.5 16 79.5q0 42 -16 78.5q-16 36.5 -43 63.5q-27 27 -63.5 43q-36.5 16 -78.5 16q-42 0 -79.5 -16q-37.5 -16 -65.5 -43q-28 -27 -44 -63.5t-16 -78.5z" />
<glyph unicode="&#165;" horiz-adv-x="653" d="M399 112v-112h-147v112h-210v85h210v44q-3 8 -5.5 15q-2.5 7 -4.5 15l-200 0v84h155l-182 345h156q40 -78 80 -154.5q40 -76.5 81 -153.5l163 308h142l-182 -345h155v-84h-200q-7 -17 -11 -31l0 -43h211l0 -85z" />
<glyph unicode="&#166;" horiz-adv-x="177" d="M50 -195v340h76v-340zM50 400v340h76l0 -340z" />
<glyph unicode="&#167;" horiz-adv-x="517" d="M468 291q0 -45 -22 -83.5q-22 -38.5 -61 -64.5q11 -17 19 -38.5q8 -21.5 8 -45.5q0 -35 -13 -66.5q-13 -31.5 -38 -55.5q-25 -24 -61.5 -38q-36.5 -14 -84.5 -14q-21 0 -42.5 5.5q-21.5 5.5 -41.5 14.5q-20 9 -37.5 19.5q-17.5 10.5 -31.5 20.5l47 83q13 -8 28 -16.5q15 -8.5 30.5 -16q15.5 -7.5 30.5 -12q15 -4.5 27 -4.5q38 0 59 18q21 18 21 50q0 25 -18.5 44.5q-18.5 19.5 -46.5 39q-28 19.5 -60.5 39.5q-32.5 20 -60.5 45q-28 25 -46.5 56q-18.5 31 -18.5 73q0 35 15.5 71q15.5 36 62.5 70q-17 17 -23 40.5q-6 23.5 -6 48.5q0 64 42 102.5q42 38.5 125 38.5q35 0 80.5 -11.5q45.5 -11.5 86.5 -28.5l-43 -91q-38 16 -73.5 28.5q-35.5 12.5 -55.5 12.5q-55 0 -55 -42q0 -21 19 -39q19 -18 48 -36.5q29 -18.5 62 -39q33 -20.5 62 -46q29 -25.5 48 -57.5q19 -32 19 -74zt0 0zM359 265q0 26 -15 47q-15 21 -39 39.5q-24 18.5 -53 37.5q-29 19 -57 42q-15 -12 -25 -29.5q-10 -17.5 -10 -33.5q0 -26 15 -45.5q15 -19.5 39 -38q24 -18.5 53 -37.5q29 -19 56 -42q18 12 27 29t9 31z" />
<glyph unicode="&#168;" horiz-adv-x="523" d="M385 552q-28 0 -48.5 20q-20.5 20 -20.5 48q0 29 20.5 50q20.5 21 48.5 21q29 0 50 -21q21 -21 21 -50q0 -28 -21 -48q-21 -20 -50 -20zt0 0zM175 552q-28 0 -48.5 20q-20.5 20 -20.5 48q0 29 20.5 50q20.5 21 48.5 21q30 0 50.5 -21q20.5 -21 20.5 -50q0 -28 -20.5 -48t-50.5 -20z" />
<glyph unicode="&#169;" horiz-adv-x="823" d="M50 351q0 75 28.5 141q28.5 66 77.5 115q49 49 115 77.5q66 28.5 141 28.5q75 0 140.5 -28.5q65.5 -28.5 114.5 -77.5q49 -49 77.5 -115q28.5 -66 28.5 -141q0 -75 -28.5 -140.5q-28.5 -65.5 -77.5 -114.5q-49 -49 -114.5 -77.5q-65.5 -28.5 -140.5 -28.5q-75 0 -141 28.5q-66 28.5 -115 77.5q-49 49 -77.5 114.5q-28.5 65.5 -28.5 140.5zt0 0zM417 577q42 0 77.5 -7q35.5 -7 66.5 -21l-30 -73q-28 11 -52 17q-24 6 -53 6q-57 0 -93 -40q-36 -40 -36 -109q0 -73 36 -109.5q36 -36.5 93 -36.5q32 0 62.5 14q30.5 14 57.5 31l37 -66q-7 -5 -22 -15q-15 -10 -37 -19.5q-22 -9.5 -49.5 -17q-27.5 -7.5 -58.5 -7.5q-55 0 -96 17q-41 17 -68 47q-27 30 -40.5 71.5q-13.5 41.5 -13.5 90.5q0 50 14 91.5q14 41.5 42 71.5q28 30 69 47q41 17 94 17zt0 0zM99 351q0 -65 24.5 -121.5q24.5 -56.5 67 -99q42.5 -42.5 99.5 -67q57 -24.5 122 -24.5q64 0 120.5 24.5q56.5 24.5 98.5 67q42 42.5 66.5 99q24.5 56.5 24.5 121.5q0 64 -24.5 121q-24.5 57 -66.5 99q-42 42 -98.5 66.5q-56.5 24.5 -120.5 24.5q-65 0 -122 -24.5q-57 -24.5 -99.5 -66.5q-42.5 -42 -67 -99t-24.5 -121z" />
<glyph unicode="&#170;" horiz-adv-x="436" d="M279 381q-24 -22 -55.5 -38.5q-31.5 -16.5 -66.5 -16.5q-48 0 -77.5 24q-29.5 24 -29.5 74q0 35 16 59.5q16 24.5 45.5 41q29.5 16.5 72 24.5q42.5 8 95.5 10q0 24 -5 37.5q-5 13.5 -13.5 20.5q-8.5 7 -19.5 8.5q-11 1.5 -24 1.5q-15 0 -33 -3q-18 -3 -35.5 -7.5q-17.5 -4.5 -33 -9q-15.5 -4.5 -24.5 -8.5q-6 17 -11.5 33.5q-5.5 16.5 -10.5 33.5q37 17 86 26q49 9 91 9q21 0 45.5 -5q24.5 -5 45.5 -21q21 -16 35 -44.5q14 -28.5 14 -74.5v-221h-107zM199 401q19 0 41 13q22 13 39 29l0 57q-56 -3 -90 -15.5q-34 -12.5 -34 -46.5q0 -37 44 -37z" />
<glyph unicode="&#171;" horiz-adv-x="439" d="M324 39l-52 -47l-222 238l222 238l52 -47l-152 -191zM423 119l-45 -42l-139 153l139 153l45 -42l-89 -111z" />
<glyph unicode="&#172;" horiz-adv-x="636" d="M509 89v122h-459v76h536l0 -198z" />
<glyph unicode="&#173;" horiz-adv-x="290" d="M30 211v83h230l0 -83z" />
<glyph unicode="&#174;" horiz-adv-x="478" d="M444 520q0 -43 -16 -80.5q-16 -37.5 -44 -65.5q-28 -28 -65.5 -44q-37.5 -16 -79.5 -16q-43 0 -80.5 16q-37.5 16 -65.5 44q-28 28 -44 65.5q-16 37.5 -16 80.5q0 42 16 79.5q16 37.5 44 65.5q28 28 65.5 44q37.5 16 80.5 16q42 0 79.5 -16q37.5 -16 65.5 -44q28 -28 44 -65.5q16 -37.5 16 -79.5zt0 0zM216 402h-50v243h84q16 0 31.5 -5q15.5 -5 28 -15q12.5 -10 20 -24.5q7.5 -14.5 7.5 -33.5q0 -27 -13.5 -43.5q-13.5 -16.5 -33.5 -24.5l59 -97h-58l-50 89h-25zM216 529h24q45 0 45 37q0 39 -45 39h-24zM406 520q0 35 -13 65.5q-13 30.5 -35.5 53q-22.5 22.5 -53 35.5q-30.5 13 -65.5 13q-35 0 -66 -13q-31 -13 -53.5 -35.5q-22.5 -22.5 -35.5 -53q-13 -30.5 -13 -65.5q0 -35 13 -66q13 -31 35.5 -53.5q22.5 -22.5 53.5 -35.5q31 -13 66 -13q35 0 65.5 13q30.5 13 53 35.5q22.5 22.5 35.5 53.5t13 66z" />
<glyph unicode="&#175;" horiz-adv-x="380" d="M50 582v84h280l0 -84z" />
<glyph unicode="&#176;" horiz-adv-x="299" d="M37 632q0 24 9 44.5q9 20.5 24 35.5q15 15 35.5 24q20.5 9 43.5 9q24 0 44.5 -9q20.5 -9 35.5 -24q15 -15 24 -35.5q9 -20.5 9 -44.5q0 -24 -9 -44.5q-9 -20.5 -24 -35.5q-15 -15 -35.5 -24q-20.5 -9 -44.5 -9q-23 0 -43.5 9q-20.5 9 -35.5 24q-15 15 -24 35.5q-9 20.5 -9 44.5zt0 0zM85 632q0 -26 18.5 -43.5q18.5 -17.5 44.5 -17.5q25 0 43 17.5q18 17.5 18 43.5q0 26 -18 44.5q-18 18.5 -43 18.5q-26 0 -44.5 -18.5t-18.5 -44.5z" />
<glyph unicode="&#177;" horiz-adv-x="640" d="M357 386h232v-76h-232v-172h-76v172h-231v76h231v171h76zM50 23v77h539l0 -77z" />
<glyph unicode="&#178;" horiz-adv-x="371" d="M67 335v29l118 146q13 16 22 32q9 16 9 34q0 24 -15 34q-15 10 -38 10q-15 0 -32.5 -7.5q-17.5 -7.5 -31.5 -19.5l-46 53q34 29 66.5 41.5q32.5 12.5 75.5 12.5q31 0 54 -8.5q23 -8.5 38 -22q15 -13.5 22 -30.5q7 -17 7 -35q0 -27 -9.5 -51q-9.5 -24 -25 -47.5q-15.5 -23.5 -36 -47.5q-20.5 -24 -42.5 -51l114 0l0 -72z" />
<glyph unicode="&#179;" horiz-adv-x="374" d="M200 700q30 0 50 -8q20 -8 32 -20q12 -12 16.5 -26q4.5 -14 4.5 -27q0 -32 -21.5 -57q-21.5 -25 -61.5 -38q46 -3 71.5 -24q25.5 -21 25.5 -58q0 -21 -9 -41.5q-9 -20.5 -28.5 -37q-19.5 -16.5 -49.5 -26.5q-30 -10 -71 -10q-41 0 -68.5 12q-27.5 12 -37.5 18l28 58q22 -10 38 -14q16 -4 33 -4q11 0 23 2.5q12 2.5 22.5 8q10.5 5.5 17.5 14.5q7 9 7 23q0 20 -14.5 28.5q-14.5 8.5 -34.5 8.5q-7 0 -14.5 -1.5q-7.5 -1.5 -17.5 -3.5q-4 13 -8 25q-4 12 -9 25q45 17 67.5 32.5q22.5 15.5 22.5 36.5q0 14 -10.5 22.5q-10.5 8.5 -28.5 8.5q-20 0 -36.5 -7q-16.5 -7 -34.5 -22q-10 12 -20.5 24q-10.5 12 -20.5 24q28 26 61.5 40t75.5 14z" />
<glyph unicode="&#180;" horiz-adv-x="540" d="M221 546h-75l105 165l134 0z" />
<glyph unicode="&#181;" horiz-adv-x="606" d="M90 197v73h-61v85h61v345h226q50 0 97 -12.5q47 -12.5 83.5 -38.5q36.5 -26 58.5 -67q22 -41 22 -99q0 -58 -20.5 -98.5q-20.5 -40.5 -54 -66q-33.5 -25.5 -77.5 -37q-44 -11.5 -92 -11.5h-95v-73h209v-85h-209v-112h-148v112h-61v85zM297 355q64 0 96 33q32 33 32 88q0 110 -128 110h-59l0 -231z" />
<glyph unicode="&#182;" horiz-adv-x="573" d="M265 330q-47 0 -88 10.5q-41 10.5 -72.5 33q-31.5 22.5 -49.5 58q-18 35.5 -18 85.5q0 53 23.5 88.5q23.5 35.5 58.5 56.5q35 21 74.5 29.5q39.5 8.5 71.5 8.5h244v-846h-89v742h-65v-742l-90 0z" />
<glyph unicode="&#183;" horiz-adv-x="234" d="M47 285q0 29 20.5 50q20.5 21 49.5 21q29 0 50 -21q21 -21 21 -50q0 -29 -21 -49.5q-21 -20.5 -50 -20.5q-29 0 -49.5 20.5t-20.5 49.5z" />
<glyph unicode="&#184;" horiz-adv-x="255" d="M39 -152q14 -4 29.5 -5.5q15.5 -1.5 23.5 -1.5q23 0 33.5 9q10.5 9 10.5 19q0 14 -11 21q-11 7 -31 9l-35 4l35 97h78l-25 -61q33 -5 53 -23q20 -18 20 -43q0 -35 -30.5 -59q-30.5 -24 -82.5 -24q-38 0 -68 13z" />
<glyph unicode="&#185;" horiz-adv-x="333" d="M80 335v65h54v193l-50 -27l-31 50l127 84h46v-300h54l0 -65z" />
<glyph unicode="&#186;" horiz-adv-x="494" d="M337 512q0 57 -23.5 88q-23.5 31 -66.5 31q-43 0 -66.5 -30.5q-23.5 -30.5 -23.5 -87.5q0 -57 23.5 -88q23.5 -31 66.5 -31q43 0 66.5 30.5q23.5 30.5 23.5 87.5zt0 0zM444 512q0 -45 -15 -80q-15 -35 -41 -59q-26 -24 -62.5 -36.5q-36.5 -12.5 -78.5 -12.5q-43 0 -79 12.5q-36 12.5 -62.5 37q-26.5 24.5 -41 59.5q-14.5 35 -14.5 80q0 45 14.5 80q14.5 35 41 59q26.5 24 62.5 36.5q36 12.5 79 12.5q42 0 78.5 -13q36.5 -13 62.5 -37q26 -24 41 -59t15 -80z" />
<glyph unicode="&#187;" horiz-adv-x="432" d="M15 341l46 41l138 -152l-138 -153l-46 41l89 112zM114 421l53 46l221 -237l-221 -237l-53 45l152 192z" />
<glyph unicode="&#188;" horiz-adv-x="787" d="M709 76h-49v-76h-92v76h-161v40l182 250h71v-229h49zM568 137v105l-78 -105zM167 0h-101l560 700h101zM88 335v65h54v193l-50 -27l-31 50l127 84h46v-300h54l0 -65z" />
<glyph unicode="&#189;" horiz-adv-x="820" d="M167 0h-101l560 700h100zM87 335v65h54v193l-49 -27l-31 50l126 84h47v-300h54v-65zM521 0v29q29 37 59 73q30 36 59 73q12 15 21 32q9 17 9 34q0 24 -15 34q-15 10 -37 10q-16 0 -33 -7.5q-17 -7.5 -31 -19.5l-47 53q34 29 67 41.5q33 12.5 76 12.5q31 0 54 -8.5q23 -8.5 37.5 -22q14.5 -13.5 21.5 -30.5q7 -17 7 -35q0 -27 -9.5 -51q-9.5 -24 -25 -47.5q-15.5 -23.5 -36 -47.5q-20.5 -24 -42.5 -51l114 0l0 -72z" />
<glyph unicode="&#190;" horiz-adv-x="794" d="M715 75h-49v-75h-92v75h-161v41l183 250h70v-230h49zM574 136v105q-20 -26 -39 -52.5q-19 -26.5 -39 -52.5zM174 0h-101l560 700h100zM199 700q31 0 51 -8q20 -8 32 -20q12 -12 16.5 -26q4.5 -14 4.5 -27q0 -32 -22 -57q-22 -25 -61 -38q45 -3 70.5 -24q25.5 -21 25.5 -58q0 -21 -9 -41.5q-9 -20.5 -28.5 -37q-19.5 -16.5 -49 -26.5q-29.5 -10 -70.5 -10q-42 0 -69 12q-27 12 -37 18l27 58q23 -10 39 -14q16 -4 33 -4q10 0 22.5 2.5q12.5 2.5 23 8q10.5 5.5 17.5 14.5q7 9 7 23q0 20 -15 28.5q-15 8.5 -35 8.5q-11 0 -31 -5l-18 50q45 17 67.5 32.5q22.5 15.5 22.5 36.5q0 31 -39 31q-20 0 -36.5 -7q-16.5 -7 -34.5 -22q-10 12 -20 24q-10 12 -21 24q29 26 62 40t75 14z" />
<glyph unicode="&#191;" horiz-adv-x="470" d="M244 -5q-63 0 -102 17.5q-39 17.5 -60.5 43q-21.5 25.5 -29 54.5q-7.5 29 -7.5 52q0 41 14.5 69.5q14.5 28.5 36.5 49.5q22 21 48 37.5q26 16.5 48 35q22 18.5 36.5 41.5q14.5 23 14.5 57q0 9 -1 19.5q-1 10.5 -4 22.5l83 0q14 -23 19.5 -43.5q5.5 -20.5 5.5 -40.5q0 -35 -13 -59.5q-13 -24.5 -32.5 -43q-19.5 -18.5 -42.5 -33q-23 -14.5 -42.5 -29.5q-19.5 -15 -32.5 -33q-13 -18 -13 -42q0 -19 8 -32q8 -13 19.5 -20.5q11.5 -7.5 25 -11q13.5 -3.5 24.5 -3.5q35 0 66 7.5q31 7.5 72 25.5l40 -100q-46 -20 -89.5 -30.5q-43.5 -10.5 -91.5 -10.5zt0 0zM350 630q0 -29 -21 -50q-21 -21 -50 -21q-29 0 -49.5 21q-20.5 21 -20.5 50q0 29 20.5 49.5q20.5 20.5 49.5 20.5q29 0 50 -20.5t21 -49.5z" />
<glyph unicode="&#192;" horiz-adv-x="683" d="M427 700l241 -700h-152l-54 158h-254l-54 -158h-139l241 700zM245 271h179l-88 265zM222 939h134l105 -165l-75 0z" />
<glyph unicode="&#193;" horiz-adv-x="683" d="M427 700l241 -700h-152l-54 158h-254l-54 -158h-139l241 700zM245 271h179l-88 265zM297 774h-75l105 165l134 0z" />
<glyph unicode="&#194;" horiz-adv-x="683" d="M427 700l241 -700h-152l-54 158h-254l-54 -158h-139l241 700zM245 271h179l-88 265zM526 774h-75l-110 98l-110 -98h-75l121 165l128 0z" />
<glyph unicode="&#195;" horiz-adv-x="683" d="M427 700l241 -700h-152l-54 158h-254l-54 -158h-139l241 700zM245 271h179l-88 265zM405 872q28 0 47 14q19 14 41 47l23 -78q-19 -30 -46.5 -48.5q-27.5 -18.5 -65.5 -18.5q-24 0 -39.5 8q-15.5 8 -29 17q-13.5 9 -26 17q-12.5 8 -30.5 8q-28 0 -47.5 -14q-19.5 -14 -41.5 -47l-23 78q19 30 47 48.5q28 18.5 66 18.5q24 0 39.5 -8q15.5 -8 29 -17q13.5 -9 26 -17t30.5 -8z" />
<glyph unicode="&#196;" horiz-adv-x="683" d="M427 700l241 -700h-152l-54 158h-254l-54 -158h-139l241 700zM245 271h179l-88 265zM445 780q-28 0 -48.5 20q-20.5 20 -20.5 48q0 29 20.5 50q20.5 21 48.5 21q29 0 50 -21q21 -21 21 -50q0 -28 -21 -48q-21 -20 -50 -20zt0 0zM235 780q-28 0 -48.5 20q-20.5 20 -20.5 48q0 29 20.5 50q20.5 21 48.5 21q30 0 50.5 -21q20.5 -21 20.5 -50q0 -28 -20.5 -48t-50.5 -20z" />
<glyph unicode="&#197;" horiz-adv-x="683" d="M427 700l241 -700h-152l-54 158h-254l-54 -158h-139l241 700zM245 271h179l-88 265zM252 859q0 38 26 63.5q26 25.5 64 25.5q38 0 63.5 -25.5q25.5 -25.5 25.5 -63.5q0 -38 -25.5 -64q-25.5 -26 -63.5 -26q-38 0 -64 26q-26 26 -26 64zt0 0zM302 859q0 -16 11 -27q11 -11 28 -11q16 0 26.5 11q10.5 11 10.5 27q0 17 -10.5 27.5q-10.5 10.5 -26.5 10.5q-17 0 -28 -10.5t-11 -27.5z" />
<glyph unicode="&#198;" horiz-adv-x="927" d="M848 303h-246l40 -190h238v-113h-366l-31 158h-253l-76 -158h-139l335 700h520v-114h-325l33 -170h270zM282 271h178q-13 66 -25.5 132q-12.5 66 -26.5 133z" />
<glyph unicode="&#199;" horiz-adv-x="678" d="M260 -152q14 -4 29.5 -5.5q15.5 -1.5 23.5 -1.5q23 0 33.5 9q10.5 9 10.5 19q0 14 -11 21q-11 7 -31 9l-35 4l32 88q-69 11 -120 42.5q-51 31.5 -85 78q-34 46.5 -50.5 107q-16.5 60.5 -16.5 130.5q0 80 23 147.5q23 67.5 67.5 116q44.5 48.5 110 75.5q65.5 27 150.5 27q69 0 129.5 -12q60.5 -12 109.5 -34l-48 -117q-45 18 -87 27.5q-42 9.5 -90 9.5q-45 0 -83 -16.5q-38 -16.5 -65.5 -47.5q-27.5 -31 -43 -75.5q-15.5 -44.5 -15.5 -100.5q0 -59 16 -103.5q16 -44.5 43.5 -74q27.5 -29.5 65.5 -44q38 -14.5 83 -14.5q51 0 100 22.5q49 22.5 94 51.5l59 -106q-11 -8 -35.5 -24q-24.5 -16 -59.5 -32q-35 -16 -79 -28q-44 -12 -95 -12h-3l-19 -46q33 -5 53 -23q20 -18 20 -43q0 -35 -30.5 -59q-30.5 -24 -82.5 -24q-38 0 -68 13z" />
<glyph unicode="&#200;" horiz-adv-x="554" d="M475 303h-237v-190h270v-113h-418v700h407v-113h-259v-170h237zM157 939h134l105 -165l-75 0z" />
<glyph unicode="&#201;" horiz-adv-x="554" d="M475 303h-237v-190h270v-113h-418v700h407v-113h-259v-170h237zM232 774h-75l105 165l134 0z" />
<glyph unicode="&#202;" horiz-adv-x="554" d="M475 303h-237v-190h270v-113h-418v700h407v-113h-259v-170h237zM462 774h-75l-110 98l-110 -98h-75l121 165l128 0z" />
<glyph unicode="&#203;" horiz-adv-x="554" d="M475 303h-237v-190h270v-113h-418v700h407v-113h-259v-170h237zM381 780q-28 0 -48.5 20q-20.5 20 -20.5 48q0 29 20.5 50q20.5 21 48.5 21q29 0 50 -21q21 -21 21 -50q0 -28 -21 -48q-21 -20 -50 -20zt0 0zM171 780q-28 0 -48.5 20q-20.5 20 -20.5 48q0 29 20.5 50q20.5 21 48.5 21q30 0 50.5 -21q20.5 -21 20.5 -50q0 -28 -20.5 -48t-50.5 -20z" />
<glyph unicode="&#204;" horiz-adv-x="328" d="M90 0v700h147v-700zM44 939h134l105 -165l-75 0z" />
<glyph unicode="&#205;" horiz-adv-x="328" d="M90 0v700h147v-700zM120 774h-75l105 165l134 0z" />
<glyph unicode="&#206;" horiz-adv-x="328" d="M90 0v700h147v-700zM349 774h-75l-110 98l-110 -98h-75l121 165l128 0z" />
<glyph unicode="&#207;" horiz-adv-x="328" d="M90 0v700h147v-700zM234 785q-23 0 -40 18q-17 18 -17 44q0 27 17 47q17 20 40 20q25 0 42 -20q17 -20 17 -47q0 -26 -17 -44q-17 -18 -42 -18zt0 0zM91 785q-23 0 -40 18q-17 18 -17 44q0 27 17 47q17 20 40 20q26 0 43 -20q17 -20 17 -47q0 -26 -17 -44t-43 -18z" />
<glyph unicode="&#208;" horiz-adv-x="719" d="M335 700q94 0 160 -31q66 -31 107.5 -81q41.5 -50 60.5 -112.5q19 -62.5 19 -125.5q0 -63 -18.5 -125.5q-18.5 -62.5 -59.5 -112.5q-41 -50 -107 -81q-66 -31 -162 -31h-245v304h-60v90h60v306zM237 304v-191h78q110 0 158 58.5q48 58.5 48 178.5q0 119 -48 177.5q-48 58.5 -158 58.5h-78v-192h101l0 -90z" />
<glyph unicode="&#209;" horiz-adv-x="784" d="M693 0h-116l-357 444v-444h-130v700h116l357 -445v445h130zM455 872q28 0 47 14q19 14 41 47l23 -78q-19 -30 -46.5 -48.5q-27.5 -18.5 -65.5 -18.5q-24 0 -39.5 8q-15.5 8 -29 17q-13.5 9 -26 17q-12.5 8 -30.5 8q-28 0 -47.5 -14q-19.5 -14 -41.5 -47l-23 78q19 30 47 48.5q28 18.5 66 18.5q24 0 39.5 -8q15.5 -8 29 -17q13.5 -9 26 -17t30.5 -8z" />
<glyph unicode="&#210;" horiz-adv-x="778" d="M188 350q0 -61 15 -108q15 -47 41.5 -79q26.5 -32 63.5 -48.5q37 -16.5 81 -16.5q45 0 82 16.5q37 16.5 63.5 48.5q26.5 32 41.5 79q15 47 15 108q0 61 -15 108q-15 47 -41.5 79q-26.5 32 -63.5 48.5q-37 16.5 -82 16.5q-44 0 -81 -16.5q-37 -16.5 -63.5 -48.5q-26.5 -32 -41.5 -79q-15 -47 -15 -108zt0 0zM40 350q0 75 22.5 141.5q22.5 66.5 67 116q44.5 49.5 109.5 78.5q65 29 150 29q85 0 150 -29q65 -29 109 -78.5q44 -49.5 67 -116q23 -66.5 23 -141.5q0 -75 -23 -141.5q-23 -66.5 -67 -116q-44 -49.5 -109 -78.5q-65 -29 -150 -29q-85 0 -150 29q-65 29 -109.5 78.5q-44.5 49.5 -67 116q-22.5 66.5 -22.5 141.5zt0 0zM273 939h134l105 -165l-75 0z" />
<glyph unicode="&#211;" horiz-adv-x="778" d="M188 350q0 -61 15 -108q15 -47 41.5 -79q26.5 -32 63.5 -48.5q37 -16.5 81 -16.5q45 0 82 16.5q37 16.5 63.5 48.5q26.5 32 41.5 79q15 47 15 108q0 61 -15 108q-15 47 -41.5 79q-26.5 32 -63.5 48.5q-37 16.5 -82 16.5q-44 0 -81 -16.5q-37 -16.5 -63.5 -48.5q-26.5 -32 -41.5 -79q-15 -47 -15 -108zt0 0zM40 350q0 75 22.5 141.5q22.5 66.5 67 116q44.5 49.5 109.5 78.5q65 29 150 29q85 0 150 -29q65 -29 109 -78.5q44 -49.5 67 -116q23 -66.5 23 -141.5q0 -75 -23 -141.5q-23 -66.5 -67 -116q-44 -49.5 -109 -78.5q-65 -29 -150 -29q-85 0 -150 29q-65 29 -109.5 78.5q-44.5 49.5 -67 116q-22.5 66.5 -22.5 141.5zt0 0zM348 774h-75l105 165l134 0z" />
<glyph unicode="&#212;" horiz-adv-x="778" d="M188 350q0 -61 15 -108q15 -47 41.5 -79q26.5 -32 63.5 -48.5q37 -16.5 81 -16.5q45 0 82 16.5q37 16.5 63.5 48.5q26.5 32 41.5 79q15 47 15 108q0 61 -15 108q-15 47 -41.5 79q-26.5 32 -63.5 48.5q-37 16.5 -82 16.5q-44 0 -81 -16.5q-37 -16.5 -63.5 -48.5q-26.5 -32 -41.5 -79q-15 -47 -15 -108zt0 0zM40 350q0 75 22.5 141.5q22.5 66.5 67 116q44.5 49.5 109.5 78.5q65 29 150 29q85 0 150 -29q65 -29 109 -78.5q44 -49.5 67 -116q23 -66.5 23 -141.5q0 -75 -23 -141.5q-23 -66.5 -67 -116q-44 -49.5 -109 -78.5q-65 -29 -150 -29q-85 0 -150 29q-65 29 -109.5 78.5q-44.5 49.5 -67 116q-22.5 66.5 -22.5 141.5zt0 0zM577 774h-75l-110 98l-110 -98h-75l121 165l128 0z" />
<glyph unicode="&#213;" horiz-adv-x="778" d="M188 350q0 -61 15 -108q15 -47 41.5 -79q26.5 -32 63.5 -48.5q37 -16.5 81 -16.5q45 0 82 16.5q37 16.5 63.5 48.5q26.5 32 41.5 79q15 47 15 108q0 61 -15 108q-15 47 -41.5 79q-26.5 32 -63.5 48.5q-37 16.5 -82 16.5q-44 0 -81 -16.5q-37 -16.5 -63.5 -48.5q-26.5 -32 -41.5 -79q-15 -47 -15 -108zt0 0zM40 350q0 75 22.5 141.5q22.5 66.5 67 116q44.5 49.5 109.5 78.5q65 29 150 29q85 0 150 -29q65 -29 109 -78.5q44 -49.5 67 -116q23 -66.5 23 -141.5q0 -75 -23 -141.5q-23 -66.5 -67 -116q-44 -49.5 -109 -78.5q-65 -29 -150 -29q-85 0 -150 29q-65 29 -109.5 78.5q-44.5 49.5 -67 116q-22.5 66.5 -22.5 141.5zt0 0zM456 872q28 0 47 14q19 14 41 47l23 -78q-19 -30 -46.5 -48.5q-27.5 -18.5 -65.5 -18.5q-24 0 -39.5 8q-15.5 8 -29 17q-13.5 9 -26 17q-12.5 8 -30.5 8q-28 0 -47.5 -14q-19.5 -14 -41.5 -47l-23 78q19 30 47 48.5q28 18.5 66 18.5q24 0 39.5 -8q15.5 -8 29 -17q13.5 -9 26 -17t30.5 -8z" />
<glyph unicode="&#214;" horiz-adv-x="778" d="M188 350q0 -61 15 -108q15 -47 41.5 -79q26.5 -32 63.5 -48.5q37 -16.5 81 -16.5q45 0 82 16.5q37 16.5 63.5 48.5q26.5 32 41.5 79q15 47 15 108q0 61 -15 108q-15 47 -41.5 79q-26.5 32 -63.5 48.5q-37 16.5 -82 16.5q-44 0 -81 -16.5q-37 -16.5 -63.5 -48.5q-26.5 -32 -41.5 -79q-15 -47 -15 -108zt0 0zM40 350q0 75 22.5 141.5q22.5 66.5 67 116q44.5 49.5 109.5 78.5q65 29 150 29q85 0 150 -29q65 -29 109 -78.5q44 -49.5 67 -116q23 -66.5 23 -141.5q0 -75 -23 -141.5q-23 -66.5 -67 -116q-44 -49.5 -109 -78.5q-65 -29 -150 -29q-85 0 -150 29q-65 29 -109.5 78.5q-44.5 49.5 -67 116q-22.5 66.5 -22.5 141.5zt0 0zM496 780q-28 0 -48.5 20q-20.5 20 -20.5 48q0 29 20.5 50q20.5 21 48.5 21q29 0 50 -21q21 -21 21 -50q0 -28 -21 -48q-21 -20 -50 -20zt0 0zM286 780q-28 0 -48.5 20q-20.5 20 -20.5 48q0 29 20.5 50q20.5 21 48.5 21q30 0 50.5 -21q20.5 -21 20.5 -50q0 -28 -20.5 -48t-50.5 -20z" />
<glyph unicode="&#215;" horiz-adv-x="640" d="M319 240q-48 -49 -96.5 -97q-48.5 -48 -97.5 -97l-54 54q49 48 97 96.5q48 48.5 97 97.5l-194 193l55 54l193 -194l194 195l54 -54q-49 -48 -97 -97q-48 -49 -97 -97q49 -49 97 -97.5q48 -48.5 97 -96.5l-54 -55z" />
<glyph unicode="&#216;" horiz-adv-x="785" d="M389 -15q-51 0 -94 10.5q-43 10.5 -79 29.5l-17 -25h-97l49 70q-55 51 -83 123q-28 72 -28 157q0 75 22.5 141.5q22.5 66.5 67 116q44.5 49.5 109.5 78.5q65 29 150 29q51 0 95.5 -11q44.5 -11 81.5 -31q5 7 9.5 13.5q4.5 6.5 9.5 13.5l97 0l-52 -75q54 -51 81 -122q27 -71 27 -153q0 -75 -23 -141.5q-23 -66.5 -67 -116q-44 -49.5 -109 -78.5q-65 -29 -150 -29zt0 0zM495 571q-45 30 -106 30q-45 0 -82 -16.5q-37 -16.5 -63.5 -48.5q-26.5 -32 -41.5 -78.5q-15 -46.5 -15 -107.5q0 -53 10.5 -94q10.5 -41 30.5 -73zM389 98q44 0 81 16.5q37 16.5 63.5 48.5q26.5 32 41.5 79q15 47 15 108q0 50 -10.5 90q-10.5 40 -28.5 71q-67 -97 -133 -193q-66 -96 -132 -193q43 -27 103 -27z" />
<glyph unicode="&#217;" horiz-adv-x="756" d="M378 -15q-64 0 -117 16q-53 16 -91 49q-38 33 -59 83.5q-21 50.5 -21 119.5v447h148v-447q0 -65 33 -103.5q33 -38.5 107 -38.5q74 0 107 38.5q33 38.5 33 103.5v447h148v-447q0 -69 -21 -119.5q-21 -50.5 -59 -83.5q-38 -33 -91 -49q-53 -16 -117 -16zt0 0zM258 939h134l105 -165l-75 0z" />
<glyph unicode="&#218;" horiz-adv-x="756" d="M378 -15q-64 0 -117 16q-53 16 -91 49q-38 33 -59 83.5q-21 50.5 -21 119.5v447h148v-447q0 -65 33 -103.5q33 -38.5 107 -38.5q74 0 107 38.5q33 38.5 33 103.5v447h148v-447q0 -69 -21 -119.5q-21 -50.5 -59 -83.5q-38 -33 -91 -49q-53 -16 -117 -16zt0 0zM333 774h-75l105 165l134 0z" />
<glyph unicode="&#219;" horiz-adv-x="756" d="M378 -15q-64 0 -117 16q-53 16 -91 49q-38 33 -59 83.5q-21 50.5 -21 119.5v447h148v-447q0 -65 33 -103.5q33 -38.5 107 -38.5q74 0 107 38.5q33 38.5 33 103.5v447h148v-447q0 -69 -21 -119.5q-21 -50.5 -59 -83.5q-38 -33 -91 -49q-53 -16 -117 -16zt0 0zM563 774h-75l-110 98l-110 -98h-75l121 165l128 0z" />
<glyph unicode="&#220;" horiz-adv-x="756" d="M378 -15q-64 0 -117 16q-53 16 -91 49q-38 33 -59 83.5q-21 50.5 -21 119.5v447h148v-447q0 -65 33 -103.5q33 -38.5 107 -38.5q74 0 107 38.5q33 38.5 33 103.5v447h148v-447q0 -69 -21 -119.5q-21 -50.5 -59 -83.5q-38 -33 -91 -49q-53 -16 -117 -16zt0 0zM482 780q-28 0 -48.5 20q-20.5 20 -20.5 48q0 29 20.5 50q20.5 21 48.5 21q29 0 50 -21q21 -21 21 -50q0 -28 -21 -48q-21 -20 -50 -20zt0 0zM272 780q-28 0 -48.5 20q-20.5 20 -20.5 48q0 29 20.5 50q20.5 21 48.5 21q30 0 50.5 -21q20.5 -21 20.5 -50q0 -28 -20.5 -48t-50.5 -20z" />
<glyph unicode="&#221;" horiz-adv-x="653" d="M399 0h-147v251l-237 449h156l161 -308l163 308h142l-238 -451zM282 774h-75l105 165l134 0z" />
<glyph unicode="&#222;" horiz-adv-x="606" d="M238 0h-148v710h148v-129h95q47 0 91 -14.5q44 -14.5 78 -42.5q34 -28 54.5 -69.5q20.5 -41.5 20.5 -96.5q0 -58 -20.5 -100.5q-20.5 -42.5 -54 -70q-33.5 -27.5 -77.5 -40.5q-44 -13 -92 -13h-95zM238 244h59q64 0 96 29.5q32 29.5 32 84.5q0 110 -128 110l-59 0z" />
<glyph unicode="&#223;" horiz-adv-x="611" d="M60 416q0 21 1 41.5q1 20.5 3 41.5q4 45 25 84.5q21 39.5 53.5 69q32.5 29.5 75.5 46q43 16.5 93 16.5q59 0 99 -13.5q40 -13.5 64 -36q24 -22.5 34.5 -50.5q10.5 -28 10.5 -57q0 -34 -12.5 -57q-12.5 -23 -31.5 -38.5q-19 -15.5 -41.5 -27q-22.5 -11.5 -41.5 -22.5q-19 -11 -31.5 -24.5q-12.5 -13.5 -12.5 -33.5q0 -18 17 -29q17 -11 42 -20.5q25 -9.5 55 -20.5q30 -11 55 -29q25 -18 42 -45.5q17 -27.5 17 -70.5q0 -35 -14.5 -64q-14.5 -29 -40 -49q-25.5 -20 -61.5 -31q-36 -11 -79 -11q-92 0 -172 65l48 80q19 -16 35 -26.5q16 -10.5 30 -17q14 -6.5 28 -9q14 -2.5 31 -2.5q33 0 55.5 13q22.5 13 22.5 39q0 23 -16 35.5q-16 12.5 -40.5 22q-24.5 9.5 -53 19q-28.5 9.5 -53 26q-24.5 16.5 -40.5 43.5q-16 27 -16 72q0 36 12 59.5q12 23.5 29.5 40q17.5 16.5 38.5 27.5q21 11 38.5 22.5q17.5 11.5 29.5 26q12 14.5 12 36.5q0 11 -3.5 22.5q-3.5 11.5 -13 20.5q-9.5 9 -26 14.5q-16.5 5.5 -43.5 5.5q-24 0 -45.5 -9q-21.5 -9 -38.5 -27q-17 -18 -27 -44.5q-10 -26.5 -10 -62.5v-477l-133 0z" />
<glyph unicode="&#224;" horiz-adv-x="520" d="M334 63q-33 -30 -74.5 -52q-41.5 -22 -87.5 -22q-63 0 -102.5 32q-39.5 32 -39.5 98q0 46 21 79q21 33 60.5 54q39.5 21 96 32q56.5 11 126.5 14q0 34 -6.5 53q-6.5 19 -18.5 28.5q-12 9.5 -27.5 11.5q-15.5 2 -33.5 2q-19 0 -42.5 -4q-23.5 -4 -46 -10q-22.5 -6 -43 -12.5q-20.5 -6.5 -33.5 -11.5l-28 88q23 10 51.5 18q28.5 8 58.5 14q30 6 61 9.5q31 3.5 58 3.5q29 0 61 -7.5q32 -7.5 59 -28.5q27 -21 44.5 -59q17.5 -38 17.5 -99v-294h-132zM221 84q13 0 27.5 5.5q14.5 5.5 29.5 14q15 8.5 29.5 19.5q14.5 11 26.5 22l0 76q-38 -2 -70 -7q-32 -5 -55 -14.5q-23 -9.5 -36 -25.5q-13 -16 -13 -39q0 -24 14.5 -37.5q14.5 -13.5 46.5 -13.5zt0 0zM140 711h134l105 -165l-75 0z" />
<glyph unicode="&#225;" horiz-adv-x="520" d="M334 63q-33 -30 -74.5 -52q-41.5 -22 -87.5 -22q-63 0 -102.5 32q-39.5 32 -39.5 98q0 46 21 79q21 33 60.5 54q39.5 21 96 32q56.5 11 126.5 14q0 34 -6.5 53q-6.5 19 -18.5 28.5q-12 9.5 -27.5 11.5q-15.5 2 -33.5 2q-19 0 -42.5 -4q-23.5 -4 -46 -10q-22.5 -6 -43 -12.5q-20.5 -6.5 -33.5 -11.5l-28 88q23 10 51.5 18q28.5 8 58.5 14q30 6 61 9.5q31 3.5 58 3.5q29 0 61 -7.5q32 -7.5 59 -28.5q27 -21 44.5 -59q17.5 -38 17.5 -99v-294h-132zM221 84q13 0 27.5 5.5q14.5 5.5 29.5 14q15 8.5 29.5 19.5q14.5 11 26.5 22l0 76q-38 -2 -70 -7q-32 -5 -55 -14.5q-23 -9.5 -36 -25.5q-13 -16 -13 -39q0 -24 14.5 -37.5q14.5 -13.5 46.5 -13.5zt0 0zM216 546h-75l105 165l134 0z" />
<glyph unicode="&#226;" horiz-adv-x="520" d="M334 63q-33 -30 -74.5 -52q-41.5 -22 -87.5 -22q-63 0 -102.5 32q-39.5 32 -39.5 98q0 46 21 79q21 33 60.5 54q39.5 21 96 32q56.5 11 126.5 14q0 34 -6.5 53q-6.5 19 -18.5 28.5q-12 9.5 -27.5 11.5q-15.5 2 -33.5 2q-19 0 -42.5 -4q-23.5 -4 -46 -10q-22.5 -6 -43 -12.5q-20.5 -6.5 -33.5 -11.5l-28 88q23 10 51.5 18q28.5 8 58.5 14q30 6 61 9.5q31 3.5 58 3.5q29 0 61 -7.5q32 -7.5 59 -28.5q27 -21 44.5 -59q17.5 -38 17.5 -99v-294h-132zM221 84q13 0 27.5 5.5q14.5 5.5 29.5 14q15 8.5 29.5 19.5q14.5 11 26.5 22l0 76q-38 -2 -70 -7q-32 -5 -55 -14.5q-23 -9.5 -36 -25.5q-13 -16 -13 -39q0 -24 14.5 -37.5q14.5 -13.5 46.5 -13.5zt0 0zM445 546h-75l-110 98l-110 -98h-75l121 165l128 0z" />
<glyph unicode="&#227;" horiz-adv-x="520" d="M334 63q-33 -30 -74.5 -52q-41.5 -22 -87.5 -22q-63 0 -102.5 32q-39.5 32 -39.5 98q0 46 21 79q21 33 60.5 54q39.5 21 96 32q56.5 11 126.5 14q0 34 -6.5 53q-6.5 19 -18.5 28.5q-12 9.5 -27.5 11.5q-15.5 2 -33.5 2q-19 0 -42.5 -4q-23.5 -4 -46 -10q-22.5 -6 -43 -12.5q-20.5 -6.5 -33.5 -11.5l-28 88q23 10 51.5 18q28.5 8 58.5 14q30 6 61 9.5q31 3.5 58 3.5q29 0 61 -7.5q32 -7.5 59 -28.5q27 -21 44.5 -59q17.5 -38 17.5 -99v-294h-132zM221 84q13 0 27.5 5.5q14.5 5.5 29.5 14q15 8.5 29.5 19.5q14.5 11 26.5 22l0 76q-38 -2 -70 -7q-32 -5 -55 -14.5q-23 -9.5 -36 -25.5q-13 -16 -13 -39q0 -24 14.5 -37.5q14.5 -13.5 46.5 -13.5zt0 0zM323 644q28 0 47 14q19 14 41 47l23 -78q-19 -30 -46.5 -48.5q-27.5 -18.5 -65.5 -18.5q-24 0 -39.5 8q-15.5 8 -29 17q-13.5 9 -26 17q-12.5 8 -30.5 8q-28 0 -47.5 -14q-19.5 -14 -41.5 -47l-23 78q19 30 47 48.5q28 18.5 66 18.5q24 0 39.5 -8q15.5 -8 29 -17q13.5 -9 26 -17t30.5 -8z" />
<glyph unicode="&#228;" horiz-adv-x="520" d="M334 63q-33 -30 -74.5 -52q-41.5 -22 -87.5 -22q-63 0 -102.5 32q-39.5 32 -39.5 98q0 46 21 79q21 33 60.5 54q39.5 21 96 32q56.5 11 126.5 14q0 34 -6.5 53q-6.5 19 -18.5 28.5q-12 9.5 -27.5 11.5q-15.5 2 -33.5 2q-19 0 -42.5 -4q-23.5 -4 -46 -10q-22.5 -6 -43 -12.5q-20.5 -6.5 -33.5 -11.5l-28 88q23 10 51.5 18q28.5 8 58.5 14q30 6 61 9.5q31 3.5 58 3.5q29 0 61 -7.5q32 -7.5 59 -28.5q27 -21 44.5 -59q17.5 -38 17.5 -99v-294h-132zM221 84q13 0 27.5 5.5q14.5 5.5 29.5 14q15 8.5 29.5 19.5q14.5 11 26.5 22l0 76q-38 -2 -70 -7q-32 -5 -55 -14.5q-23 -9.5 -36 -25.5q-13 -16 -13 -39q0 -24 14.5 -37.5q14.5 -13.5 46.5 -13.5zt0 0zM364 552q-28 0 -48.5 20q-20.5 20 -20.5 48q0 29 20.5 50q20.5 21 48.5 21q29 0 50 -21q21 -21 21 -50q0 -28 -21 -48q-21 -20 -50 -20zt0 0zM154 552q-28 0 -48.5 20q-20.5 20 -20.5 48q0 29 20.5 50q20.5 21 48.5 21q30 0 50.5 -21q20.5 -21 20.5 -50q0 -28 -20.5 -48t-50.5 -20z" />
<glyph unicode="&#229;" horiz-adv-x="520" d="M334 63q-33 -30 -74.5 -52q-41.5 -22 -87.5 -22q-63 0 -102.5 32q-39.5 32 -39.5 98q0 46 21 79q21 33 60.5 54q39.5 21 96 32q56.5 11 126.5 14q0 34 -6.5 53q-6.5 19 -18.5 28.5q-12 9.5 -27.5 11.5q-15.5 2 -33.5 2q-19 0 -42.5 -4q-23.5 -4 -46 -10q-22.5 -6 -43 -12.5q-20.5 -6.5 -33.5 -11.5l-28 88q23 10 51.5 18q28.5 8 58.5 14q30 6 61 9.5q31 3.5 58 3.5q29 0 61 -7.5q32 -7.5 59 -28.5q27 -21 44.5 -59q17.5 -38 17.5 -99v-294h-132zM221 84q13 0 27.5 5.5q14.5 5.5 29.5 14q15 8.5 29.5 19.5q14.5 11 26.5 22l0 76q-38 -2 -70 -7q-32 -5 -55 -14.5q-23 -9.5 -36 -25.5q-13 -16 -13 -39q0 -24 14.5 -37.5q14.5 -13.5 46.5 -13.5zt0 0zM170 631q0 38 26 63.5q26 25.5 64 25.5q38 0 63.5 -25.5q25.5 -25.5 25.5 -63.5q0 -38 -25.5 -64q-25.5 -26 -63.5 -26q-38 0 -64 26q-26 26 -26 64zt0 0zM220 631q0 -16 11 -27q11 -11 28 -11q16 0 26.5 11q10.5 11 10.5 27q0 17 -10.5 27.5q-10.5 10.5 -26.5 10.5q-17 0 -28 -10.5t-11 -27.5z" />
<glyph unicode="&#230;" horiz-adv-x="813" d="M284 488q36 0 73 -13.5q37 -13.5 63 -47.5q32 32 70 46.5q38 14.5 78 14.5q217 0 217 -264l-322 0q1 -41 13 -67.5q12 -26.5 31.5 -43q19.5 -16.5 46 -23q26.5 -6.5 57.5 -6.5q17 0 36 5q19 5 37 12.5q18 7.5 34.5 16q16.5 8.5 28.5 16.5q10 -18 19.5 -36q9.5 -18 18.5 -36q-17 -12 -38 -26q-21 -14 -45.5 -25q-24.5 -11 -54 -18.5q-29.5 -7.5 -64.5 -7.5q-69 0 -120.5 24.5q-51.5 24.5 -83.5 74.5q-23 -25 -49 -43q-26 -18 -53 -29.5q-27 -11.5 -52.5 -17q-25.5 -5.5 -45.5 -5.5q-69 0 -109 32q-40 32 -40 98q0 46 21 79q21 33 60.5 54q39.5 21 96 32q56.5 11 126.5 14q0 34 -6.5 53q-6.5 19 -18.5 28.5q-12 9.5 -27.5 11.5q-15.5 2 -33.5 2q-19 0 -42.5 -4q-23.5 -4 -46 -10q-22.5 -6 -43 -12.5q-20.5 -6.5 -33.5 -11.5q-8 23 -14.5 44q-6.5 21 -13.5 44q23 10 51.5 18q28.5 8 58.5 14q30 6 61 9.5q31 3.5 58 3.5zt0 0zM221 84q13 0 29 4.5q16 4.5 32.5 13q16.5 8.5 32.5 20.5q16 12 29 27q-4 14 -6.5 31.5q-2.5 17.5 -3.5 40.5q-38 -2 -70 -7q-32 -5 -55 -14.5q-23 -9.5 -36 -25.5q-13 -16 -13 -39q0 -24 14.5 -37.5q14.5 -13.5 46.5 -13.5zt0 0zM575 400q-36 0 -66 -22q-30 -22 -45 -80l203 0q-1 21 -5.5 39.5q-4.5 18.5 -15 32.5q-10.5 14 -28 22t-43.5 8z" />
<glyph unicode="&#231;" horiz-adv-x="504" d="M175 -152q14 -4 29.5 -5.5q15.5 -1.5 23.5 -1.5q23 0 33.5 9q10.5 9 10.5 19q0 14 -11 21q-11 7 -31 9l-35 4l31 86q-40 7 -74 25q-34 18 -59 49q-25 31 -39 74q-14 43 -14 100q0 65 22 112.5q22 47.5 56.5 78q34.5 30.5 78 45.5q43.5 15 87.5 15q41 0 85 -7q44 -7 91 -20l-26 -94q-32 9 -61.5 14q-29.5 5 -57.5 5q-30 0 -55.5 -8q-25.5 -8 -44 -25.5q-18.5 -17.5 -29 -46q-10.5 -28.5 -10.5 -69.5q0 -75 37 -111q37 -36 98 -36q32 0 62.5 15.5q30.5 15.5 60.5 35.5l47 -77q-15 -11 -34.5 -23q-19.5 -12 -42 -23q-22.5 -11 -48 -19.5q-25.5 -8.5 -54.5 -11.5l-19 -48q33 -5 53 -23q20 -18 20 -43q0 -35 -30.5 -59q-30.5 -24 -82.5 -24q-38 0 -68 13z" />
<glyph unicode="&#232;" horiz-adv-x="511" d="M33 226q0 67 20 116.5q20 49.5 53 82q33 32.5 75 48q42 15.5 86 15.5q216 0 216 -264l-320 0q1 -40 12 -67q11 -27 30.5 -43q19.5 -16 46 -23q26.5 -7 57.5 -7q17 0 36 5q19 5 37 12.5q18 7.5 34.5 16q16.5 8.5 29.5 16.5l37 -72q-17 -12 -37.5 -26q-20.5 -14 -45.5 -25q-25 -11 -54.5 -18.5q-29.5 -7.5 -64.5 -7.5q-55 0 -100.5 15.5q-45.5 15.5 -78.5 45.5q-33 30 -51 75q-18 45 -18 105zt0 0zM273 400q-36 0 -62.5 -22q-26.5 -22 -41.5 -80l197 0q-1 21 -6 39.5q-5 18.5 -15.5 32.5q-10.5 14 -28 22q-17.5 8 -43.5 8zt0 0zM136 711h134l105 -165l-75 0z" />
<glyph unicode="&#233;" horiz-adv-x="511" d="M33 226q0 67 20 116.5q20 49.5 53 82q33 32.5 75 48q42 15.5 86 15.5q216 0 216 -264l-320 0q1 -40 12 -67q11 -27 30.5 -43q19.5 -16 46 -23q26.5 -7 57.5 -7q17 0 36 5q19 5 37 12.5q18 7.5 34.5 16q16.5 8.5 29.5 16.5l37 -72q-17 -12 -37.5 -26q-20.5 -14 -45.5 -25q-25 -11 -54.5 -18.5q-29.5 -7.5 -64.5 -7.5q-55 0 -100.5 15.5q-45.5 15.5 -78.5 45.5q-33 30 -51 75q-18 45 -18 105zt0 0zM273 400q-36 0 -62.5 -22q-26.5 -22 -41.5 -80l197 0q-1 21 -6 39.5q-5 18.5 -15.5 32.5q-10.5 14 -28 22q-17.5 8 -43.5 8zt0 0zM211 546h-75l105 165l134 0z" />
<glyph unicode="&#234;" horiz-adv-x="511" d="M33 226q0 67 20 116.5q20 49.5 53 82q33 32.5 75 48q42 15.5 86 15.5q216 0 216 -264l-320 0q1 -40 12 -67q11 -27 30.5 -43q19.5 -16 46 -23q26.5 -7 57.5 -7q17 0 36 5q19 5 37 12.5q18 7.5 34.5 16q16.5 8.5 29.5 16.5l37 -72q-17 -12 -37.5 -26q-20.5 -14 -45.5 -25q-25 -11 -54.5 -18.5q-29.5 -7.5 -64.5 -7.5q-55 0 -100.5 15.5q-45.5 15.5 -78.5 45.5q-33 30 -51 75q-18 45 -18 105zt0 0zM273 400q-36 0 -62.5 -22q-26.5 -22 -41.5 -80l197 0q-1 21 -6 39.5q-5 18.5 -15.5 32.5q-10.5 14 -28 22q-17.5 8 -43.5 8zt0 0zM440 546h-75l-110 98l-110 -98h-75l121 165l128 0z" />
<glyph unicode="&#235;" horiz-adv-x="511" d="M33 226q0 67 20 116.5q20 49.5 53 82q33 32.5 75 48q42 15.5 86 15.5q216 0 216 -264l-320 0q1 -40 12 -67q11 -27 30.5 -43q19.5 -16 46 -23q26.5 -7 57.5 -7q17 0 36 5q19 5 37 12.5q18 7.5 34.5 16q16.5 8.5 29.5 16.5l37 -72q-17 -12 -37.5 -26q-20.5 -14 -45.5 -25q-25 -11 -54.5 -18.5q-29.5 -7.5 -64.5 -7.5q-55 0 -100.5 15.5q-45.5 15.5 -78.5 45.5q-33 30 -51 75q-18 45 -18 105zt0 0zM273 400q-36 0 -62.5 -22q-26.5 -22 -41.5 -80l197 0q-1 21 -6 39.5q-5 18.5 -15.5 32.5q-10.5 14 -28 22q-17.5 8 -43.5 8zt0 0zM360 552q-28 0 -48.5 20q-20.5 20 -20.5 48q0 29 20.5 50q20.5 21 48.5 21q29 0 50 -21q21 -21 21 -50q0 -28 -21 -48q-21 -20 -50 -20zt0 0zM150 552q-28 0 -48.5 20q-20.5 20 -20.5 48q0 29 20.5 50q20.5 21 48.5 21q30 0 50.5 -21q20.5 -21 20.5 -50q0 -28 -20.5 -48t-50.5 -20z" />
<glyph unicode="&#236;" horiz-adv-x="252" d="M192 0h-132v472h132zM7 711h134l105 -165l-75 0z" />
<glyph unicode="&#237;" horiz-adv-x="252" d="M192 0h-132v472h132zM82 546h-75l105 165l134 0z" />
<glyph unicode="&#238;" horiz-adv-x="252" d="M192 0h-132v472h132zM311 546h-75l-110 98l-110 -98h-75l121 165l128 0z" />
<glyph unicode="&#239;" horiz-adv-x="252" d="M192 0h-132v472h132zM197 553q-23 0 -40 18.5q-17 18.5 -17 44.5q0 26 17 46q17 20 40 20q25 0 42 -20q17 -20 17 -46q0 -26 -17 -44.5q-17 -18.5 -42 -18.5zt0 0zM54 553q-23 0 -40 18.5q-17 18.5 -17 44.5q0 26 17 46q17 20 40 20q25 0 42.5 -20q17.5 -20 17.5 -46q0 -26 -17.5 -44.5t-42.5 -18.5z" />
<glyph unicode="&#240;" horiz-adv-x="578" d="M277 693q128 -40 198 -143q70 -103 70 -268q0 -65 -20.5 -119q-20.5 -54 -56.5 -94q-36 -40 -83.5 -62q-47.5 -22 -101.5 -22q-55 0 -100.5 16.5q-45.5 16.5 -78 48q-32.5 31.5 -50.5 77q-18 45.5 -18 103.5q0 63 21.5 111q21.5 48 58.5 80.5q37 32.5 86.5 49.5q49.5 17 105.5 17q18 0 37 -2.5q19 -2.5 35 -7.5q-16 48 -52 78.5q-36 30.5 -81 47.5l-24 -75l-76 24l23 69q-12 3 -33.5 4.5q-21.5 1.5 -32.5 1.5l0 90q25 -1 48 -2.5q23 -1.5 46 -5.5l22 68l77 -23zM413 269q0 29 -3.5 57q-3.5 28 -14.5 57q-17 5 -38.5 8q-21.5 3 -35.5 3q-36 0 -64 -13.5q-28 -13.5 -47.5 -36.5q-19.5 -23 -29.5 -55q-10 -32 -10 -69q0 -70 30.5 -107.5q30.5 -37.5 87.5 -37.5q31 0 54 16q23 16 39 42.5q16 26.5 24 61.5t8 74z" />
<glyph unicode="&#241;" horiz-adv-x="594" d="M192 415q12 12 28 25q16 13 35.5 23q19.5 10 42.5 16.5q23 6.5 51 6.5q41 0 75.5 -13.5q34.5 -13.5 60 -40q25.5 -26.5 39.5 -66q14 -39.5 14 -91.5v-275h-132v259q0 35 -8.5 58q-8.5 23 -22.5 36.5q-14 13.5 -31.5 18.5q-17.5 5 -35.5 5q-14 0 -30 -4q-16 -4 -32 -11q-16 -7 -30 -16.5q-14 -9.5 -24 -20.5l0 -325h-132v472h132zM360 644q28 0 47 14q19 14 41 47l23 -78q-19 -30 -46.5 -48.5q-27.5 -18.5 -65.5 -18.5q-24 0 -39.5 8q-15.5 8 -29 17q-13.5 9 -26 17q-12.5 8 -30.5 8q-28 0 -47.5 -14q-19.5 -14 -41.5 -47l-23 78q19 30 47 48.5q28 18.5 66 18.5q24 0 39.5 -8q15.5 -8 29 -17q13.5 -9 26 -17t30.5 -8z" />
<glyph unicode="&#242;" horiz-adv-x="583" d="M417 236q0 78 -32.5 120q-32.5 42 -92.5 42q-60 0 -93 -41.5q-33 -41.5 -33 -119.5q0 -78 33 -120q33 -42 93 -42q60 0 92.5 41.5q32.5 41.5 32.5 119.5zt0 0zM550 236q0 -60 -19.5 -107q-19.5 -47 -54 -79q-34.5 -32 -82 -48.5q-47.5 -16.5 -102.5 -16.5q-56 0 -103.5 16.5q-47.5 16.5 -82 49q-34.5 32.5 -54 79.5q-19.5 47 -19.5 107q0 60 19.5 107q19.5 47 54 79q34.5 32 82 48.5q47.5 16.5 103.5 16.5q55 0 102.5 -16.5q47.5 -16.5 82 -49q34.5 -32.5 54 -79.5q19.5 -47 19.5 -107zt0 0zM172 711h134l105 -165l-75 0z" />
<glyph unicode="&#243;" horiz-adv-x="583" d="M417 236q0 78 -32.5 120q-32.5 42 -92.5 42q-60 0 -93 -41.5q-33 -41.5 -33 -119.5q0 -78 33 -120q33 -42 93 -42q60 0 92.5 41.5q32.5 41.5 32.5 119.5zt0 0zM550 236q0 -60 -19.5 -107q-19.5 -47 -54 -79q-34.5 -32 -82 -48.5q-47.5 -16.5 -102.5 -16.5q-56 0 -103.5 16.5q-47.5 16.5 -82 49q-34.5 32.5 -54 79.5q-19.5 47 -19.5 107q0 60 19.5 107q19.5 47 54 79q34.5 32 82 48.5q47.5 16.5 103.5 16.5q55 0 102.5 -16.5q47.5 -16.5 82 -49q34.5 -32.5 54 -79.5q19.5 -47 19.5 -107zt0 0zM247 546h-75l105 165l134 0z" />
<glyph unicode="&#244;" horiz-adv-x="583" d="M417 236q0 78 -32.5 120q-32.5 42 -92.5 42q-60 0 -93 -41.5q-33 -41.5 -33 -119.5q0 -78 33 -120q33 -42 93 -42q60 0 92.5 41.5q32.5 41.5 32.5 119.5zt0 0zM550 236q0 -60 -19.5 -107q-19.5 -47 -54 -79q-34.5 -32 -82 -48.5q-47.5 -16.5 -102.5 -16.5q-56 0 -103.5 16.5q-47.5 16.5 -82 49q-34.5 32.5 -54 79.5q-19.5 47 -19.5 107q0 60 19.5 107q19.5 47 54 79q34.5 32 82 48.5q47.5 16.5 103.5 16.5q55 0 102.5 -16.5q47.5 -16.5 82 -49q34.5 -32.5 54 -79.5q19.5 -47 19.5 -107zt0 0zM476 546h-75l-110 98l-110 -98h-75l121 165l128 0z" />
<glyph unicode="&#245;" horiz-adv-x="583" d="M417 236q0 78 -32.5 120q-32.5 42 -92.5 42q-60 0 -93 -41.5q-33 -41.5 -33 -119.5q0 -78 33 -120q33 -42 93 -42q60 0 92.5 41.5q32.5 41.5 32.5 119.5zt0 0zM550 236q0 -60 -19.5 -107q-19.5 -47 -54 -79q-34.5 -32 -82 -48.5q-47.5 -16.5 -102.5 -16.5q-56 0 -103.5 16.5q-47.5 16.5 -82 49q-34.5 32.5 -54 79.5q-19.5 47 -19.5 107q0 60 19.5 107q19.5 47 54 79q34.5 32 82 48.5q47.5 16.5 103.5 16.5q55 0 102.5 -16.5q47.5 -16.5 82 -49q34.5 -32.5 54 -79.5q19.5 -47 19.5 -107zt0 0zM355 644q28 0 47 14q19 14 41 47l23 -78q-19 -30 -46.5 -48.5q-27.5 -18.5 -65.5 -18.5q-24 0 -39.5 8q-15.5 8 -29 17q-13.5 9 -26 17q-12.5 8 -30.5 8q-28 0 -47.5 -14q-19.5 -14 -41.5 -47l-23 78q19 30 47 48.5q28 18.5 66 18.5q24 0 39.5 -8q15.5 -8 29 -17q13.5 -9 26 -17t30.5 -8z" />
<glyph unicode="&#246;" horiz-adv-x="583" d="M417 236q0 78 -32.5 120q-32.5 42 -92.5 42q-60 0 -93 -41.5q-33 -41.5 -33 -119.5q0 -78 33 -120q33 -42 93 -42q60 0 92.5 41.5q32.5 41.5 32.5 119.5zt0 0zM550 236q0 -60 -19.5 -107q-19.5 -47 -54 -79q-34.5 -32 -82 -48.5q-47.5 -16.5 -102.5 -16.5q-56 0 -103.5 16.5q-47.5 16.5 -82 49q-34.5 32.5 -54 79.5q-19.5 47 -19.5 107q0 60 19.5 107q19.5 47 54 79q34.5 32 82 48.5q47.5 16.5 103.5 16.5q55 0 102.5 -16.5q47.5 -16.5 82 -49q34.5 -32.5 54 -79.5q19.5 -47 19.5 -107zt0 0zM395 552q-28 0 -48.5 20q-20.5 20 -20.5 48q0 29 20.5 50q20.5 21 48.5 21q29 0 50 -21q21 -21 21 -50q0 -28 -21 -48q-21 -20 -50 -20zt0 0zM185 552q-28 0 -48.5 20q-20.5 20 -20.5 48q0 29 20.5 50q20.5 21 48.5 21q30 0 50.5 -21q20.5 -21 20.5 -50q0 -28 -20.5 -48t-50.5 -20z" />
<glyph unicode="&#247;" horiz-adv-x="640" d="M255 447q0 27 19.5 46.5q19.5 19.5 45.5 19.5q29 0 48 -19.5q19 -19.5 19 -46.5q0 -27 -19 -46q-19 -19 -48 -19q-26 0 -45.5 19q-19.5 19 -19.5 46zt0 0zM50 249v77h540v-77zM255 128q0 27 19.5 46.5q19.5 19.5 45.5 19.5q29 0 48 -19.5q19 -19.5 19 -46.5q0 -27 -19 -46q-19 -19 -48 -19q-26 0 -45.5 19t-19.5 46z" />
<glyph unicode="&#248;" horiz-adv-x="583" d="M291 -15q-42 0 -78 9.5q-36 9.5 -67 26.5l-19 -21h-94l58 66q-28 32 -43 74.5q-15 42.5 -15 96.5q0 60 19.5 107q19.5 47 54 79q34.5 32 81.5 48.5q47 16.5 103 16.5q80 0 141 -35l17 19h94l-55 -63q29 -32 45 -75q16 -43 16 -98q0 -60 -19.5 -107q-19.5 -47 -54 -79q-34.5 -32 -82 -48.5q-47.5 -16.5 -102.5 -16.5zt0 0zM291 74q60 0 93 42q33 42 33 120q0 23 -3.5 42.5q-3.5 19.5 -8.5 36.5l-190 -216q31 -25 76 -25zt0 0zM165 237q0 -45 10 -76l189 214q-31 23 -73 23q-60 0 -93 -41.5t-33 -119.5z" />
<glyph unicode="&#249;" horiz-adv-x="578" d="M187 211q0 -37 8 -58.5q8 -21.5 21 -32.5q13 -11 29.5 -14q16.5 -3 34.5 -3q29 0 56 17q27 17 50 43l0 309h132v-472h-132v71q-9 -10 -25 -24q-16 -14 -37 -27q-21 -13 -45.5 -22q-24.5 -9 -49.5 -9q-86 0 -130 49.5q-44 49.5 -44 156.5v277h132zM169 711h134l105 -165l-75 0z" />
<glyph unicode="&#250;" horiz-adv-x="578" d="M187 211q0 -37 8 -58.5q8 -21.5 21 -32.5q13 -11 29.5 -14q16.5 -3 34.5 -3q29 0 56 17q27 17 50 43l0 309h132v-472h-132v71q-9 -10 -25 -24q-16 -14 -37 -27q-21 -13 -45.5 -22q-24.5 -9 -49.5 -9q-86 0 -130 49.5q-44 49.5 -44 156.5v277h132zM244 546h-75l105 165l134 0z" />
<glyph unicode="&#251;" horiz-adv-x="578" d="M187 211q0 -37 8 -58.5q8 -21.5 21 -32.5q13 -11 29.5 -14q16.5 -3 34.5 -3q29 0 56 17q27 17 50 43l0 309h132v-472h-132v71q-9 -10 -25 -24q-16 -14 -37 -27q-21 -13 -45.5 -22q-24.5 -9 -49.5 -9q-86 0 -130 49.5q-44 49.5 -44 156.5v277h132zM474 546h-75l-110 98l-110 -98h-75l121 165l128 0z" />
<glyph unicode="&#252;" horiz-adv-x="578" d="M187 211q0 -37 8 -58.5q8 -21.5 21 -32.5q13 -11 29.5 -14q16.5 -3 34.5 -3q29 0 56 17q27 17 50 43l0 309h132v-472h-132v71q-9 -10 -25 -24q-16 -14 -37 -27q-21 -13 -45.5 -22q-24.5 -9 -49.5 -9q-86 0 -130 49.5q-44 49.5 -44 156.5v277h132zM393 552q-28 0 -48.5 20q-20.5 20 -20.5 48q0 29 20.5 50q20.5 21 48.5 21q29 0 50 -21q21 -21 21 -50q0 -28 -21 -48q-21 -20 -50 -20zt0 0zM183 552q-28 0 -48.5 20q-20.5 20 -20.5 48q0 29 20.5 50q20.5 21 48.5 21q30 0 50.5 -21q20.5 -21 20.5 -50q0 -28 -20.5 -48t-50.5 -20z" />
<glyph unicode="&#253;" horiz-adv-x="544" d="M408 472h126l-282 -667h-127l86 199l-201 468h143l125 -317zM227 546h-75l105 165l134 0z" />
<glyph unicode="&#254;" horiz-adv-x="587" d="M419 241q0 40 -12.5 67.5q-12.5 27.5 -31 44q-18.5 16.5 -40 23.5q-21.5 7 -39.5 7q-29 0 -56 -11.5q-27 -11.5 -48 -28.5l0 -233q18 -16 46.5 -22.5q28.5 -6.5 50.5 -6.5q18 0 40.5 5q22.5 5 42.5 21.5q20 16.5 33.5 48q13.5 31.5 13.5 85.5zt0 0zM553 245q0 -69 -21.5 -118q-21.5 -49 -55 -80.5q-33.5 -31.5 -74.5 -46.5q-41 -15 -80 -15q-32 0 -69 10.5q-37 10.5 -61 27.5l0 -218h-132v895h132v-271q24 23 63 41.5q39 18.5 84 18.5q40 0 78.5 -17q38.5 -17 68.5 -48.5q30 -31.5 48.5 -76.5t18.5 -102z" />
<glyph unicode="&#255;" horiz-adv-x="544" d="M408 472h126l-282 -667h-127l86 199l-201 468h143l125 -317zM376 552q-28 0 -48.5 20q-20.5 20 -20.5 48q0 29 20.5 50q20.5 21 48.5 21q29 0 50 -21q21 -21 21 -50q0 -28 -21 -48q-21 -20 -50 -20zt0 0zM166 552q-28 0 -48.5 20q-20.5 20 -20.5 48q0 29 20.5 50q20.5 21 48.5 21q30 0 50.5 -21q20.5 -21 20.5 -50q0 -28 -20.5 -48t-50.5 -20z" />
<glyph unicode="&#256;" horiz-adv-x="683" d="M427 700l241 -700h-152l-54 158h-254l-54 -158h-139l241 700zM245 271h179l-88 265zM201 810v84h280l0 -84z" />
<glyph unicode="&#257;" horiz-adv-x="520" d="M334 63q-33 -30 -74.5 -52q-41.5 -22 -87.5 -22q-63 0 -102.5 32q-39.5 32 -39.5 98q0 46 21 79q21 33 60.5 54q39.5 21 96 32q56.5 11 126.5 14q0 34 -6.5 53q-6.5 19 -18.5 28.5q-12 9.5 -27.5 11.5q-15.5 2 -33.5 2q-19 0 -42.5 -4q-23.5 -4 -46 -10q-22.5 -6 -43 -12.5q-20.5 -6.5 -33.5 -11.5l-28 88q23 10 51.5 18q28.5 8 58.5 14q30 6 61 9.5q31 3.5 58 3.5q29 0 61 -7.5q32 -7.5 59 -28.5q27 -21 44.5 -59q17.5 -38 17.5 -99v-294h-132zM221 84q13 0 27.5 5.5q14.5 5.5 29.5 14q15 8.5 29.5 19.5q14.5 11 26.5 22l0 76q-38 -2 -70 -7q-32 -5 -55 -14.5q-23 -9.5 -36 -25.5q-13 -16 -13 -39q0 -24 14.5 -37.5q14.5 -13.5 46.5 -13.5zt0 0zM120 582v84h280l0 -84z" />
<glyph unicode="&#260;" horiz-adv-x="683" d="M516 0l-54 158h-254l-54 -158h-139l241 700h171l241 -700q-28 -18 -45.5 -34.5q-17.5 -16.5 -27 -30q-9.5 -13.5 -12.5 -24.5q-3 -11 -3 -20q0 -15 10.5 -24.5q10.5 -9.5 32.5 -9.5q8 0 21.5 1.5q13.5 1.5 23.5 5.5l0 -47q-17 -11 -41 -19q-24 -8 -52 -8q-22 0 -37.5 8q-15.5 8 -25 20q-9.5 12 -13.5 26.5q-4 14.5 -4 26.5q0 32 21.5 65.5q21.5 33.5 67.5 63.5zM245 271h179l-88 265z" />
<glyph unicode="&#261;" horiz-adv-x="520" d="M334 63q-33 -30 -74.5 -52q-41.5 -22 -87.5 -22q-63 0 -102.5 32q-39.5 32 -39.5 98q0 46 21 79q21 33 60.5 54q39.5 21 96 32q56.5 11 126.5 14q0 34 -6.5 53q-6.5 19 -18.5 28.5q-12 9.5 -27.5 11.5q-15.5 2 -33.5 2q-19 0 -42.5 -4q-23.5 -4 -46 -10q-22.5 -6 -43 -12.5q-20.5 -6.5 -33.5 -11.5l-28 88q23 10 51.5 18q28.5 8 58.5 14q30 6 61 9.5q31 3.5 58 3.5q29 0 61 -7.5q32 -7.5 59 -28.5q27 -21 44.5 -59q17.5 -38 17.5 -99v-294q-28 -18 -45.5 -34.5q-17.5 -16.5 -27 -30q-9.5 -13.5 -12.5 -24.5q-3 -11 -3 -20q0 -15 10.5 -24.5q10.5 -9.5 32.5 -9.5q8 0 21.5 1.5q13.5 1.5 23.5 5.5l0 -47q-17 -11 -41 -19q-24 -8 -52 -8q-22 0 -37.5 8q-15.5 8 -25 20q-9.5 12 -13.5 26.5q-4 14.5 -4 26.5q0 32 21.5 65.5q21.5 33.5 67.5 63.5l-48 0zM221 84q13 0 27.5 5.5q14.5 5.5 29.5 14q15 8.5 29.5 19.5q14.5 11 26.5 22l0 76q-38 -2 -70 -7q-32 -5 -55 -14.5q-23 -9.5 -36 -25.5q-13 -16 -13 -39q0 -24 14.5 -37.5t46.5 -13.5z" />
<glyph unicode="&#262;" horiz-adv-x="678" d="M391 715q69 0 129.5 -12q60.5 -12 109.5 -34l-48 -117q-45 18 -87 27.5q-42 9.5 -90 9.5q-45 0 -83 -16.5q-38 -16.5 -65.5 -47.5q-27.5 -31 -43 -75.5q-15.5 -44.5 -15.5 -100.5q0 -59 16 -103.5q16 -44.5 43.5 -74q27.5 -29.5 65.5 -44q38 -14.5 83 -14.5q51 0 100 22.5q49 22.5 94 51.5l59 -106q-11 -8 -35.5 -24q-24.5 -16 -59.5 -32q-35 -16 -79 -28q-44 -12 -95 -12q-89 0 -154.5 27.5q-65.5 27.5 -109 76q-43.5 48.5 -65 115q-21.5 66.5 -21.5 145.5q0 80 23 147.5q23 67.5 67.5 116q44.5 48.5 110 75.5q65.5 27 150.5 27zt0 0zM294 774h-75l105 165l134 0z" />
<glyph unicode="&#263;" horiz-adv-x="504" d="M481 64q-17 -12 -38.5 -25.5q-21.5 -13.5 -47.5 -25.5q-26 -12 -56 -20q-30 -8 -64 -8q-49 0 -92 15q-43 15 -74.5 46q-31.5 31 -50 78.5q-18.5 47.5 -18.5 112.5q0 65 22 112.5q22 47.5 56.5 78q34.5 30.5 78 45.5q43.5 15 87.5 15q41 0 85 -7q44 -7 91 -20l-26 -94q-32 9 -61.5 14q-29.5 5 -57.5 5q-30 0 -55.5 -8q-25.5 -8 -44 -25.5q-18.5 -17.5 -29 -46q-10.5 -28.5 -10.5 -69.5q0 -75 37 -111q37 -36 98 -36q32 0 62.5 15.5q30.5 15.5 60.5 35.5zM208 546h-75l105 165l134 0z" />
<glyph unicode="&#268;" horiz-adv-x="678" d="M391 715q69 0 129.5 -12q60.5 -12 109.5 -34l-48 -117q-45 18 -87 27.5q-42 9.5 -90 9.5q-45 0 -83 -16.5q-38 -16.5 -65.5 -47.5q-27.5 -31 -43 -75.5q-15.5 -44.5 -15.5 -100.5q0 -59 16 -103.5q16 -44.5 43.5 -74q27.5 -29.5 65.5 -44q38 -14.5 83 -14.5q51 0 100 22.5q49 22.5 94 51.5l59 -106q-11 -8 -35.5 -24q-24.5 -16 -59.5 -32q-35 -16 -79 -28q-44 -12 -95 -12q-89 0 -154.5 27.5q-65.5 27.5 -109 76q-43.5 48.5 -65 115q-21.5 66.5 -21.5 145.5q0 80 23 147.5q23 67.5 67.5 116q44.5 48.5 110 75.5q65.5 27 150.5 27zt0 0zM402 774h-127l-121 165h75l110 -99l110 99l74 0z" />
<glyph unicode="&#269;" horiz-adv-x="504" d="M481 64q-17 -12 -38.5 -25.5q-21.5 -13.5 -47.5 -25.5q-26 -12 -56 -20q-30 -8 -64 -8q-49 0 -92 15q-43 15 -74.5 46q-31.5 31 -50 78.5q-18.5 47.5 -18.5 112.5q0 65 22 112.5q22 47.5 56.5 78q34.5 30.5 78 45.5q43.5 15 87.5 15q41 0 85 -7q44 -7 91 -20l-26 -94q-32 9 -61.5 14q-29.5 5 -57.5 5q-30 0 -55.5 -8q-25.5 -8 -44 -25.5q-18.5 -17.5 -29 -46q-10.5 -28.5 -10.5 -69.5q0 -75 37 -111q37 -36 98 -36q32 0 62.5 15.5q30.5 15.5 60.5 35.5zM316 546h-127l-121 165h75l110 -99l110 99l74 0z" />
<glyph unicode="&#270;" horiz-adv-x="719" d="M522 350q0 120 -48 178.5q-48 58.5 -158 58.5h-78v-474h78q110 0 158 58.5q48 58.5 48 178.5zt0 0zM336 700q94 0 160 -31q66 -31 107 -81q41 -50 60 -112.5q19 -62.5 19 -125.5q0 -63 -18.5 -125.5q-18.5 -62.5 -59.5 -112.5q-41 -50 -107 -81q-66 -31 -161 -31h-246v700zM423 774h-127l-121 165h75l110 -99l110 99l74 0z" />
<glyph unicode="&#271;" horiz-adv-x="746" d="M407 352q-22 15 -46 24.5q-24 9.5 -56 9.5q-20 0 -42.5 -5.5q-22.5 -5.5 -42.5 -21.5q-20 -16 -33 -45.5q-13 -29.5 -13 -76.5q0 -39 9.5 -66q9.5 -27 25.5 -43.5q16 -16.5 38 -23.5q22 -7 48 -7q30 0 58 17.5q28 17.5 54 43.5zM407 0v65q-13 -15 -30 -29q-17 -14 -37.5 -25.5q-20.5 -11.5 -43 -18.5q-22.5 -7 -46.5 -7q-39 0 -76.5 14q-37.5 14 -67 44q-29.5 30 -48 78q-18.5 48 -18.5 116q0 67 22 114.5q22 47.5 55.5 78q33.5 30.5 74 44.5q40.5 14 77.5 14q42 0 75.5 -11q33.5 -11 62.5 -27l0 250h133v-700zM591 632q0 13 5.5 25.5q5.5 12.5 15 22q9.5 9.5 22.5 15q13 5.5 27 5.5q32 0 54.5 -22.5q22.5 -22.5 22.5 -57.5q0 -27 -13 -55q-13 -28 -30.5 -52.5q-17.5 -24.5 -35 -44q-17.5 -19.5 -25.5 -28.5l-44 26l59 102q-25 4 -41.5 21.5t-16.5 42.5z" />
<glyph unicode="&#272;" horiz-adv-x="719" d="M335 700q94 0 160 -31q66 -31 107.5 -81q41.5 -50 60.5 -112.5q19 -62.5 19 -125.5q0 -63 -18.5 -125.5q-18.5 -62.5 -59.5 -112.5q-41 -50 -107 -81q-66 -31 -162 -31h-245v304h-60v90h60v306zM237 304v-191h78q110 0 158 58.5q48 58.5 48 178.5q0 119 -48 177.5q-48 58.5 -158 58.5h-78v-192h101l0 -90z" />
<glyph unicode="&#273;" horiz-adv-x="600" d="M407 0v65q-13 -15 -30 -29q-17 -14 -37.5 -25.5q-20.5 -11.5 -43 -18.5q-22.5 -7 -46.5 -7q-39 0 -76.5 14q-37.5 14 -67 44q-29.5 30 -48 78q-18.5 48 -18.5 116q0 67 22 114.5q22 47.5 55.5 78q33.5 30.5 74 44.5q40.5 14 77.5 14q42 0 75.5 -11q33.5 -11 62.5 -27l0 84h-131v83h131v83h133v-83h60v-83h-60v-534zM407 352q-22 15 -46 24.5q-24 9.5 -56 9.5q-20 0 -42.5 -5.5q-22.5 -5.5 -42.5 -21.5q-20 -16 -33 -45.5q-13 -29.5 -13 -76.5q0 -39 9.5 -66q9.5 -27 25.5 -43.5q16 -16.5 38 -23.5q22 -7 48 -7q30 0 58 17.5q28 17.5 54 43.5z" />
<glyph unicode="&#274;" horiz-adv-x="554" d="M475 303h-237v-190h270v-113h-418v700h407v-113h-259v-170h237zM137 810v84h280l0 -84z" />
<glyph unicode="&#275;" horiz-adv-x="511" d="M33 226q0 67 20 116.5q20 49.5 53 82q33 32.5 75 48q42 15.5 86 15.5q216 0 216 -264l-320 0q1 -40 12 -67q11 -27 30.5 -43q19.5 -16 46 -23q26.5 -7 57.5 -7q17 0 36 5q19 5 37 12.5q18 7.5 34.5 16q16.5 8.5 29.5 16.5l37 -72q-17 -12 -37.5 -26q-20.5 -14 -45.5 -25q-25 -11 -54.5 -18.5q-29.5 -7.5 -64.5 -7.5q-55 0 -100.5 15.5q-45.5 15.5 -78.5 45.5q-33 30 -51 75q-18 45 -18 105zt0 0zM273 400q-36 0 -62.5 -22q-26.5 -22 -41.5 -80l197 0q-1 21 -6 39.5q-5 18.5 -15.5 32.5q-10.5 14 -28 22q-17.5 8 -43.5 8zt0 0zM115 582v84h280l0 -84z" />
<glyph unicode="&#278;" horiz-adv-x="554" d="M475 303h-237v-190h270v-113h-418v700h407v-113h-259v-170h237zM277 780q-28 0 -49 20q-21 20 -21 48q0 29 21 50q21 21 49 21q29 0 49.5 -21q20.5 -21 20.5 -50q0 -28 -20.5 -48t-49.5 -20z" />
<glyph unicode="&#279;" horiz-adv-x="511" d="M33 226q0 67 20 116.5q20 49.5 53 82q33 32.5 75 48q42 15.5 86 15.5q216 0 216 -264l-320 0q1 -40 12 -67q11 -27 30.5 -43q19.5 -16 46 -23q26.5 -7 57.5 -7q17 0 36 5q19 5 37 12.5q18 7.5 34.5 16q16.5 8.5 29.5 16.5l37 -72q-17 -12 -37.5 -26q-20.5 -14 -45.5 -25q-25 -11 -54.5 -18.5q-29.5 -7.5 -64.5 -7.5q-55 0 -100.5 15.5q-45.5 15.5 -78.5 45.5q-33 30 -51 75q-18 45 -18 105zt0 0zM273 400q-36 0 -62.5 -22q-26.5 -22 -41.5 -80l197 0q-1 21 -6 39.5q-5 18.5 -15.5 32.5q-10.5 14 -28 22q-17.5 8 -43.5 8zt0 0zM255 552q-28 0 -49 20q-21 20 -21 48q0 29 21 50q21 21 49 21q29 0 49.5 -21q20.5 -21 20.5 -50q0 -28 -20.5 -48t-49.5 -20z" />
<glyph unicode="&#280;" horiz-adv-x="554" d="M90 0v700h407v-113h-259v-170h237v-114h-237v-190h270v-113h-1q-28 -18 -45.5 -34.5q-17.5 -16.5 -27 -30q-9.5 -13.5 -12.5 -24.5q-3 -11 -3 -20q0 -15 10.5 -24.5q10.5 -9.5 32.5 -9.5q8 0 21.5 1.5q13.5 1.5 23.5 5.5l0 -47q-17 -11 -41 -19q-24 -8 -52 -8q-22 0 -37.5 8q-15.5 8 -25 20q-9.5 12 -13.5 26.5q-4 14.5 -4 26.5q0 32 21.5 65.5q21.5 33.5 67.5 63.5z" />
<glyph unicode="&#281;" horiz-adv-x="511" d="M33 226q0 67 20 116.5q20 49.5 53 82q33 32.5 75 48q42 15.5 86 15.5q216 0 216 -264l-320 0q1 -40 12 -67q11 -27 30.5 -43q19.5 -16 46 -23q26.5 -7 57.5 -7q17 0 36 5q19 5 37 12.5q18 7.5 34.5 16q16.5 8.5 29.5 16.5l37 -72q-23 -17 -51 -34.5q-28 -17.5 -65 -28.5q-27 -18 -44 -34q-17 -16 -26 -29.5q-9 -13.5 -12 -24.5q-3 -11 -3 -20q0 -15 10.5 -24.5q10.5 -9.5 32.5 -9.5q8 0 21.5 1.5q13.5 1.5 23.5 5.5l0 -47q-17 -11 -41 -19q-24 -8 -52 -8q-22 0 -37.5 8q-15.5 8 -25 20q-9.5 12 -13.5 26.5q-4 14.5 -4 26.5q0 29 16.5 58q16.5 29 51.5 56q-52 2 -94.5 18.5q-42.5 16.5 -73 47q-30.5 30.5 -47.5 74.5q-17 44 -17 101zt0 0zM273 400q-36 0 -62.5 -22q-26.5 -22 -41.5 -80l197 0q-1 21 -6 39.5q-5 18.5 -15.5 32.5q-10.5 14 -28 22t-43.5 8z" />
<glyph unicode="&#282;" horiz-adv-x="554" d="M475 303h-237v-190h270v-113h-418v700h407v-113h-259v-170h237zM340 774h-127l-121 165h75l110 -99l110 99l74 0z" />
<glyph unicode="&#283;" horiz-adv-x="511" d="M33 226q0 67 20 116.5q20 49.5 53 82q33 32.5 75 48q42 15.5 86 15.5q216 0 216 -264l-320 0q1 -40 12 -67q11 -27 30.5 -43q19.5 -16 46 -23q26.5 -7 57.5 -7q17 0 36 5q19 5 37 12.5q18 7.5 34.5 16q16.5 8.5 29.5 16.5l37 -72q-17 -12 -37.5 -26q-20.5 -14 -45.5 -25q-25 -11 -54.5 -18.5q-29.5 -7.5 -64.5 -7.5q-55 0 -100.5 15.5q-45.5 15.5 -78.5 45.5q-33 30 -51 75q-18 45 -18 105zt0 0zM273 400q-36 0 -62.5 -22q-26.5 -22 -41.5 -80l197 0q-1 21 -6 39.5q-5 18.5 -15.5 32.5q-10.5 14 -28 22q-17.5 8 -43.5 8zt0 0zM319 546h-127l-121 165h75l110 -99l110 99l74 0z" />
<glyph unicode="&#290;" horiz-adv-x="693" d="M391 715q69 0 129.5 -12q60.5 -12 109.5 -34l-48 -117q-45 18 -87 27.5q-42 9.5 -90 9.5q-45 0 -83 -16.5q-38 -16.5 -65.5 -47.5q-27.5 -31 -43 -75.5q-15.5 -44.5 -15.5 -100.5q0 -59 16 -103.5q16 -44.5 43.5 -74q27.5 -29.5 65.5 -44.5q38 -15 83 -15q31 0 60.5 9.5q29.5 9.5 58.5 23.5l0 192h138v-258q-11 -9 -36 -24.5q-25 -15.5 -61 -31q-36 -15.5 -80.5 -27q-44.5 -11.5 -95.5 -11.5q-89 0 -154.5 27.5q-65.5 27.5 -109 76q-43.5 48.5 -65 115q-21.5 66.5 -21.5 145.5q0 80 23 147.5q23 67.5 67.5 116q44.5 48.5 110 75.5q65.5 27 150.5 27zt0 0zM273 -108q0 13 5.5 25.5q5.5 12.5 15 22q9.5 9.5 22.5 15q13 5.5 27 5.5q32 0 54.5 -22.5q22.5 -22.5 22.5 -57.5q0 -27 -13 -55q-13 -28 -30.5 -52.5q-17.5 -24.5 -35 -44q-17.5 -19.5 -25.5 -28.5l-44 26l59 102q-25 4 -41.5 21.5t-16.5 42.5z" />
<glyph unicode="&#291;" horiz-adv-x="540" d="M337 618q0 -13 -5.5 -25.5q-5.5 -12.5 -15 -22q-9.5 -9.5 -22.5 -15q-13 -5.5 -27 -5.5q-32 0 -54.5 22.5q-22.5 22.5 -22.5 57.5q0 27 13 54.5q13 27.5 30.5 52.5q17.5 25 35 44.5q17.5 19.5 25.5 28.5l44 -26l-59 -102q25 -4 41.5 -21.5q16.5 -17.5 16.5 -42.5zt0 0zM439 401q15 -18 24.5 -39.5q9.5 -21.5 9.5 -52.5q0 -50 -21.5 -84q-21.5 -34 -57.5 -57q-36 -23 -82.5 -37.5q-46.5 -14.5 -95.5 -26.5l0 -7q76 -3 128.5 -15.5q52.5 -12.5 84.5 -32q32 -19.5 46 -44.5q14 -25 14 -52q0 -38 -20.5 -68q-20.5 -30 -56 -51q-35.5 -21 -81.5 -32.5q-46 -11.5 -97 -11.5q-59 0 -99 11q-40 11 -64.5 28.5q-24.5 17.5 -35 40q-10.5 22.5 -10.5 46.5q0 35 31 67q31 32 86 57l-89 13v64q31 9 61.5 17.5q30.5 8.5 61.5 18.5q-69 22 -101.5 59q-32.5 37 -32.5 97q0 42 16 75q16 33 44.5 56.5q28.5 23.5 68 35.5q39.5 12 86.5 12q25 0 54.5 -6.5q29.5 -6.5 49.5 -16.5l150 51v-94zM167 309q0 -45 22.5 -73q22.5 -28 67.5 -28q45 0 68 28q23 28 23 73q0 39 -23 68q-23 29 -68 29q-45 0 -67.5 -29q-22.5 -29 -22.5 -68zt0 0zM238 -123q66 0 100.5 20q34.5 20 34.5 51q0 23 -26.5 41q-26.5 18 -89.5 27q-40 -11 -66 -24q-26 -13 -41 -25.5q-15 -12.5 -21 -23.5q-6 -11 -6 -18q0 -20 28 -34t87 -14z" />
<glyph unicode="&#298;" horiz-adv-x="328" d="M90 0v700h147v-700zM24 810v84h280l0 -84z" />
<glyph unicode="&#299;" horiz-adv-x="252" d="M192 0h-132v472h132zM-14 582v84h280l0 -84z" />
<glyph unicode="&#302;" horiz-adv-x="328" d="M90 0v700h147v-700q-28 -18 -45.5 -34.5q-17.5 -16.5 -27 -30q-9.5 -13.5 -12.5 -24.5q-3 -11 -3 -20q0 -15 10.5 -24.5q10.5 -9.5 32.5 -9.5q8 0 21.5 1.5q13.5 1.5 23.5 5.5l0 -47q-17 -11 -41 -19q-24 -8 -52 -8q-22 0 -37.5 8q-15.5 8 -25 20q-9.5 12 -13.5 26.5q-4 14.5 -4 26.5q0 32 21.5 65.5q21.5 33.5 67.5 63.5z" />
<glyph unicode="&#303;" horiz-adv-x="252" d="M60 0v472h132v-472q-28 -18 -45.5 -34.5q-17.5 -16.5 -27 -30q-9.5 -13.5 -12.5 -24.5q-3 -11 -3 -20q0 -15 10.5 -24.5q10.5 -9.5 32.5 -9.5q8 0 21.5 1.5q13.5 1.5 23.5 5.5l0 -47q-17 -11 -41 -19q-24 -8 -52 -8q-22 0 -37.5 8q-15.5 8 -25 20q-9.5 12 -13.5 26.5q-4 14.5 -4 26.5q0 32 21.5 65.5q21.5 33.5 67.5 63.5zM50 622q0 31 22 53q22 22 53 22q32 0 54 -22q22 -22 22 -53q0 -15 -6 -28q-6 -13 -16.5 -23q-10.5 -10 -24 -16q-13.5 -6 -29.5 -6q-15 0 -29 6q-14 6 -24 16q-10 10 -16 23t-6 28z" />
<glyph unicode="&#305;" horiz-adv-x="252" d="M192 0h-132v472l132 0z" />
<glyph unicode="&#310;" horiz-adv-x="697" d="M279 -108q0 13 5.5 25.5q5.5 12.5 15 22q9.5 9.5 22.5 15q13 5.5 27 5.5q32 0 54.5 -22.5q22.5 -22.5 22.5 -57.5q0 -27 -13 -55q-13 -28 -30.5 -52.5q-17.5 -24.5 -35 -44q-17.5 -19.5 -25.5 -28.5l-44 26l59 102q-25 4 -41.5 21.5q-16.5 17.5 -16.5 42.5zt0 0zM495 0l-193 298h-65v-298h-147v700h147v-276h61l188 276h175l-237 -333l248 -367z" />
<glyph unicode="&#311;" horiz-adv-x="542" d="M331 275l195 -275h-152l-132 189l-50 -51v-138h-132v700h132v-427l186 199h151zM198 -108q0 13 5.5 25.5q5.5 12.5 15 22q9.5 9.5 22.5 15q13 5.5 27 5.5q32 0 54.5 -22.5q22.5 -22.5 22.5 -57.5q0 -27 -13 -55q-13 -28 -30.5 -52.5q-17.5 -24.5 -35 -44q-17.5 -19.5 -25.5 -28.5l-44 26l59 102q-25 4 -41.5 21.5t-16.5 42.5z" />
<glyph unicode="&#313;" horiz-adv-x="558" d="M536 0h-446v700h147v-581h299zM247 774h-75l105 165l134 0z" />
<glyph unicode="&#314;" horiz-adv-x="252" d="M192 0h-132v700h132zM95 769h-75l105 165l134 0z" />
<glyph unicode="&#315;" horiz-adv-x="558" d="M536 0h-446v700h147v-581h299zM206 -108q0 13 5.5 25.5q5.5 12.5 15 22q9.5 9.5 22.5 15q13 5.5 27 5.5q32 0 54.5 -22.5q22.5 -22.5 22.5 -57.5q0 -27 -13 -55q-13 -28 -30.5 -52.5q-17.5 -24.5 -35 -44q-17.5 -19.5 -25.5 -28.5l-44 26l59 102q-25 4 -41.5 21.5t-16.5 42.5z" />
<glyph unicode="&#316;" horiz-adv-x="252" d="M192 0h-132v700h132zM53 -108q0 13 5.5 25.5q5.5 12.5 15 22q9.5 9.5 22.5 15q13 5.5 27 5.5q32 0 54.5 -22.5q22.5 -22.5 22.5 -57.5q0 -27 -13 -55q-13 -28 -30.5 -52.5q-17.5 -24.5 -35 -44q-17.5 -19.5 -25.5 -28.5l-44 26l59 102q-25 4 -41.5 21.5t-16.5 42.5z" />
<glyph unicode="&#317;" horiz-adv-x="558" d="M536 0h-446v700h147v-581h299zM308 632q0 13 5.5 25.5q5.5 12.5 15 22q9.5 9.5 22.5 15q13 5.5 27 5.5q32 0 54.5 -22.5q22.5 -22.5 22.5 -57.5q0 -27 -13 -55q-13 -28 -30.5 -52.5q-17.5 -24.5 -35 -44q-17.5 -19.5 -25.5 -28.5l-44 26l59 102q-25 4 -41.5 21.5t-16.5 42.5z" />
<glyph unicode="&#318;" horiz-adv-x="399" d="M192 0h-132v700h132zM244 632q0 13 5.5 25.5q5.5 12.5 15 22q9.5 9.5 22.5 15q13 5.5 27 5.5q32 0 54.5 -22.5q22.5 -22.5 22.5 -57.5q0 -27 -13 -55q-13 -28 -30.5 -52.5q-17.5 -24.5 -35 -44q-17.5 -19.5 -25.5 -28.5l-44 26l59 102q-25 4 -41.5 21.5t-16.5 42.5z" />
<glyph unicode="&#321;" horiz-adv-x="558" d="M238 321v-201h299v-120h-447v235l-53 -30l-44 74l97 56v365h148v-280l84 49l43 -74z" />
<glyph unicode="&#322;" horiz-adv-x="252" d="M192 266v-266h-132v190l-50 -29l-43 75l93 53v411h132v-335l56 32l44 -74z" />
<glyph unicode="&#323;" horiz-adv-x="784" d="M693 0h-116l-357 444v-444h-130v700h116l357 -445v445h130zM347 774h-75l105 165l134 0z" />
<glyph unicode="&#324;" horiz-adv-x="594" d="M192 415q12 12 28 25q16 13 35.5 23q19.5 10 42.5 16.5q23 6.5 51 6.5q41 0 75.5 -13.5q34.5 -13.5 60 -40q25.5 -26.5 39.5 -66q14 -39.5 14 -91.5v-275h-132v259q0 35 -8.5 58q-8.5 23 -22.5 36.5q-14 13.5 -31.5 18.5q-17.5 5 -35.5 5q-14 0 -30 -4q-16 -4 -32 -11q-16 -7 -30 -16.5q-14 -9.5 -24 -20.5l0 -325h-132v472h132zM252 546h-75l105 165l134 0z" />
<glyph unicode="&#325;" horiz-adv-x="784" d="M693 0h-116l-357 444v-444h-130v700h116l357 -445v445h130zM319 -108q0 13 5.5 25.5q5.5 12.5 15 22q9.5 9.5 22.5 15q13 5.5 27 5.5q32 0 54.5 -22.5q22.5 -22.5 22.5 -57.5q0 -27 -13 -55q-13 -28 -30.5 -52.5q-17.5 -24.5 -35 -44q-17.5 -19.5 -25.5 -28.5l-44 26l59 102q-25 4 -41.5 21.5t-16.5 42.5z" />
<glyph unicode="&#326;" horiz-adv-x="594" d="M192 415q12 12 28 25q16 13 35.5 23q19.5 10 42.5 16.5q23 6.5 51 6.5q41 0 75.5 -13.5q34.5 -13.5 60 -40q25.5 -26.5 39.5 -66q14 -39.5 14 -91.5v-275h-132v259q0 35 -8.5 58q-8.5 23 -22.5 36.5q-14 13.5 -31.5 18.5q-17.5 5 -35.5 5q-14 0 -30 -4q-16 -4 -32 -11q-16 -7 -30 -16.5q-14 -9.5 -24 -20.5l0 -325h-132v472h132zM224 -108q0 13 5.5 25.5q5.5 12.5 15 22q9.5 9.5 22.5 15q13 5.5 27 5.5q32 0 54.5 -22.5q22.5 -22.5 22.5 -57.5q0 -27 -13 -55q-13 -28 -30.5 -52.5q-17.5 -24.5 -35 -44q-17.5 -19.5 -25.5 -28.5l-44 26l59 102q-25 4 -41.5 21.5t-16.5 42.5z" />
<glyph unicode="&#327;" horiz-adv-x="784" d="M693 0h-116l-357 444v-444h-130v700h116l357 -445v445h130zM455 774h-127l-121 165h75l110 -99l110 99l74 0z" />
<glyph unicode="&#328;" horiz-adv-x="594" d="M192 415q12 12 28 25q16 13 35.5 23q19.5 10 42.5 16.5q23 6.5 51 6.5q41 0 75.5 -13.5q34.5 -13.5 60 -40q25.5 -26.5 39.5 -66q14 -39.5 14 -91.5v-275h-132v259q0 35 -8.5 58q-8.5 23 -22.5 36.5q-14 13.5 -31.5 18.5q-17.5 5 -35.5 5q-14 0 -30 -4q-16 -4 -32 -11q-16 -7 -30 -16.5q-14 -9.5 -24 -20.5l0 -325h-132v472h132zM360 546h-127l-121 165h75l110 -99l110 99l74 0z" />
<glyph unicode="&#332;" horiz-adv-x="778" d="M188 350q0 -61 15 -108q15 -47 41.5 -79q26.5 -32 63.5 -48.5q37 -16.5 81 -16.5q45 0 82 16.5q37 16.5 63.5 48.5q26.5 32 41.5 79q15 47 15 108q0 61 -15 108q-15 47 -41.5 79q-26.5 32 -63.5 48.5q-37 16.5 -82 16.5q-44 0 -81 -16.5q-37 -16.5 -63.5 -48.5q-26.5 -32 -41.5 -79q-15 -47 -15 -108zt0 0zM40 350q0 75 22.5 141.5q22.5 66.5 67 116q44.5 49.5 109.5 78.5q65 29 150 29q85 0 150 -29q65 -29 109 -78.5q44 -49.5 67 -116q23 -66.5 23 -141.5q0 -75 -23 -141.5q-23 -66.5 -67 -116q-44 -49.5 -109 -78.5q-65 -29 -150 -29q-85 0 -150 29q-65 29 -109.5 78.5q-44.5 49.5 -67 116q-22.5 66.5 -22.5 141.5zt0 0zM252 810v84h280l0 -84z" />
<glyph unicode="&#333;" horiz-adv-x="583" d="M417 236q0 78 -32.5 120q-32.5 42 -92.5 42q-60 0 -93 -41.5q-33 -41.5 -33 -119.5q0 -78 33 -120q33 -42 93 -42q60 0 92.5 41.5q32.5 41.5 32.5 119.5zt0 0zM550 236q0 -60 -19.5 -107q-19.5 -47 -54 -79q-34.5 -32 -82 -48.5q-47.5 -16.5 -102.5 -16.5q-56 0 -103.5 16.5q-47.5 16.5 -82 49q-34.5 32.5 -54 79.5q-19.5 47 -19.5 107q0 60 19.5 107q19.5 47 54 79q34.5 32 82 48.5q47.5 16.5 103.5 16.5q55 0 102.5 -16.5q47.5 -16.5 82 -49q34.5 -32.5 54 -79.5q19.5 -47 19.5 -107zt0 0zM151 582v84h280l0 -84z" />
<glyph unicode="&#336;" horiz-adv-x="778" d="M188 350q0 -61 15 -108q15 -47 41.5 -79q26.5 -32 63.5 -48.5q37 -16.5 81 -16.5q45 0 82 16.5q37 16.5 63.5 48.5q26.5 32 41.5 79q15 47 15 108q0 61 -15 108q-15 47 -41.5 79q-26.5 32 -63.5 48.5q-37 16.5 -82 16.5q-44 0 -81 -16.5q-37 -16.5 -63.5 -48.5q-26.5 -32 -41.5 -79q-15 -47 -15 -108zt0 0zM40 350q0 75 22.5 141.5q22.5 66.5 67 116q44.5 49.5 109.5 78.5q65 29 150 29q85 0 150 -29q65 -29 109 -78.5q44 -49.5 67 -116q23 -66.5 23 -141.5q0 -75 -23 -141.5q-23 -66.5 -67 -116q-44 -49.5 -109 -78.5q-65 -29 -150 -29q-85 0 -150 29q-65 29 -109.5 78.5q-44.5 49.5 -67 116q-22.5 66.5 -22.5 141.5zt0 0zM259 774h-75l105 165h134zM436 774h-74l104 165l134 0z" />
<glyph unicode="&#337;" horiz-adv-x="583" d="M417 236q0 78 -32.5 120q-32.5 42 -92.5 42q-60 0 -93 -41.5q-33 -41.5 -33 -119.5q0 -78 33 -120q33 -42 93 -42q60 0 92.5 41.5q32.5 41.5 32.5 119.5zt0 0zM550 236q0 -60 -19.5 -107q-19.5 -47 -54 -79q-34.5 -32 -82 -48.5q-47.5 -16.5 -102.5 -16.5q-56 0 -103.5 16.5q-47.5 16.5 -82 49q-34.5 32.5 -54 79.5q-19.5 47 -19.5 107q0 60 19.5 107q19.5 47 54 79q34.5 32 82 48.5q47.5 16.5 103.5 16.5q55 0 102.5 -16.5q47.5 -16.5 82 -49q34.5 -32.5 54 -79.5q19.5 -47 19.5 -107zt0 0zM158 546h-75l105 165h134zM335 546h-74l104 165l134 0z" />
<glyph unicode="&#338;" horiz-adv-x="1054" d="M974 303h-237v-190h270v-113h-418v54q-38 -32 -88 -50.5q-50 -18.5 -112 -18.5q-85 0 -150 29q-65 29 -109.5 78.5q-44.5 49.5 -67 116q-22.5 66.5 -22.5 141.5q0 75 22.5 141.5q22.5 66.5 67 116q44.5 49.5 109.5 78.5q65 29 150 29q62 0 112 -19q50 -19 88 -51l0 55h407v-114h-259v-170h237zM389 98q44 0 81 16.5q37 16.5 63.5 48.5q26.5 32 41.5 79q15 47 15 108q0 61 -15 107.5q-15 46.5 -41.5 78.5q-26.5 32 -63.5 48.5q-37 16.5 -81 16.5q-45 0 -82 -16.5q-37 -16.5 -63.5 -48.5q-26.5 -32 -41.5 -78.5q-15 -46.5 -15 -107.5q0 -61 15 -108q15 -47 41.5 -79q26.5 -32 63.5 -48.5t82 -16.5z" />
<glyph unicode="&#339;" horiz-adv-x="896" d="M291 -15q-56 0 -103 16.5q-47 16.5 -81.5 48.5q-34.5 32 -54 79q-19.5 47 -19.5 108q0 60 19.5 107q19.5 47 54 79q34.5 32 81.5 48.5q47 16.5 103 16.5q58 0 106.5 -19.5q48.5 -19.5 81.5 -57.5q33 39 78.5 58q45.5 19 93.5 19q217 0 217 -264l-323 0q1 -40 13 -67q12 -27 31.5 -43q19.5 -16 46.5 -23q27 -7 58 -7q17 0 36 5q19 5 37 12.5q18 7.5 34.5 16q16.5 8.5 28.5 16.5q10 -18 19.5 -36q9.5 -18 18.5 -36q-17 -12 -38 -26q-21 -14 -45.5 -25q-24.5 -11 -54 -18.5q-29.5 -7.5 -64.5 -7.5q-57 0 -105.5 19.5q-48.5 19.5 -81.5 57.5q-32 -38 -81 -57.5q-49 -19.5 -107 -19.5zt0 0zM291 74q60 0 93 42q33 42 33 120q0 78 -33 120q-33 42 -93 42q-60 0 -93 -41.5q-33 -41.5 -33 -119.5q0 -78 33 -120.5q33 -42.5 93 -42.5zt0 0zM658 400q-36 0 -63.5 -22q-27.5 -22 -43.5 -80l199 0q-1 21 -5.5 39.5q-4.5 18.5 -15 32.5q-10.5 14 -28 22t-43.5 8z" />
<glyph unicode="&#340;" horiz-adv-x="659" d="M231 0h-148v700h223q45 0 93 -11q48 -11 88.5 -37.5q40.5 -26.5 66.5 -70q26 -43.5 26 -107.5q0 -77 -36.5 -126q-36.5 -49 -92.5 -71q41 -70 81.5 -139q40.5 -69 80.5 -138l-166 0l-141 252h-75zM231 362h73q59 0 91.5 28.5q32.5 28.5 32.5 82.5q0 55 -32.5 82.5q-32.5 27.5 -91.5 27.5h-73zM285 774h-75l105 165l134 0z" />
<glyph unicode="&#341;" horiz-adv-x="399" d="M192 331q22 71 65 106.5q43 35.5 109 50.5l25 -114q-60 -17 -99 -38.5q-39 -21.5 -61 -51q-22 -29.5 -30.5 -69q-8.5 -39.5 -8.5 -91.5v-124h-132v472h132zM155 546h-75l105 165l134 0z" />
<glyph unicode="&#342;" horiz-adv-x="659" d="M231 0h-148v700h223q45 0 93 -11q48 -11 88.5 -37.5q40.5 -26.5 66.5 -70q26 -43.5 26 -107.5q0 -77 -36.5 -126q-36.5 -49 -92.5 -71q41 -70 81.5 -139q40.5 -69 80.5 -138l-166 0l-141 252h-75zM231 362h73q59 0 91.5 28.5q32.5 28.5 32.5 82.5q0 55 -32.5 82.5q-32.5 27.5 -91.5 27.5h-73zM256 -108q0 13 5.5 25.5q5.5 12.5 15 22q9.5 9.5 22.5 15q13 5.5 27 5.5q32 0 54.5 -22.5q22.5 -22.5 22.5 -57.5q0 -27 -13 -55q-13 -28 -30 -52.5q-17 -24.5 -34.5 -44q-17.5 -19.5 -26.5 -28.5l-44 26l59 102q-25 4 -41.5 21.5t-16.5 42.5z" />
<glyph unicode="&#343;" horiz-adv-x="399" d="M192 331q22 71 65 106.5q43 35.5 109 50.5l25 -114q-60 -17 -99 -38.5q-39 -21.5 -61 -51q-22 -29.5 -30.5 -69q-8.5 -39.5 -8.5 -91.5v-124h-132v472h132zM126 -108q0 13 5.5 25.5q5.5 12.5 15 22q9.5 9.5 22.5 15q13 5.5 27 5.5q32 0 54.5 -22.5q22.5 -22.5 22.5 -57.5q0 -27 -13 -55q-13 -28 -30.5 -52.5q-17.5 -24.5 -35 -44q-17.5 -19.5 -25.5 -28.5l-44 26l59 102q-25 4 -41.5 21.5t-16.5 42.5z" />
<glyph unicode="&#344;" horiz-adv-x="659" d="M231 0h-148v700h223q45 0 93 -11q48 -11 88.5 -37.5q40.5 -26.5 66.5 -70q26 -43.5 26 -107.5q0 -77 -36.5 -126q-36.5 -49 -92.5 -71q41 -70 81.5 -139q40.5 -69 80.5 -138l-166 0l-141 252h-75zM231 362h73q59 0 91.5 28.5q32.5 28.5 32.5 82.5q0 55 -32.5 82.5q-32.5 27.5 -91.5 27.5h-73zM393 774h-127l-121 165h75l110 -99l110 99l74 0z" />
<glyph unicode="&#345;" horiz-adv-x="399" d="M192 331q22 71 65 106.5q43 35.5 109 50.5l25 -114q-60 -17 -99 -38.5q-39 -21.5 -61 -51q-22 -29.5 -30.5 -69q-8.5 -39.5 -8.5 -91.5v-124h-132v472h132zM263 546h-127l-121 165h75l110 -99l110 99l74 0z" />
<glyph unicode="&#346;" horiz-adv-x="578" d="M543 207q0 -43 -16 -83q-16 -40 -49 -70.5q-33 -30.5 -82.5 -49q-49.5 -18.5 -116.5 -18.5q-33 0 -67 7q-34 7 -66.5 19q-32.5 12 -61 27.5q-28.5 15.5 -49.5 32.5l59 107q17 -12 39 -25.5q22 -13.5 47 -25q25 -11.5 51.5 -18.5q26.5 -7 52.5 -7q19 0 39.5 4.5q20.5 4.5 36.5 14.5q16 10 26.5 25.5q10.5 15.5 10.5 37.5q0 32 -24.5 52q-24.5 20 -61.5 36q-37 16 -80.5 32.5q-43.5 16.5 -80.5 42q-37 25.5 -61.5 64.5q-24.5 39 -24.5 99q0 42 14 79q14 37 45 64.5q31 27.5 80 43.5q49 16 118 16q25 0 53 -4q28 -4 55 -11q27 -7 52 -16q25 -9 43 -19l-48 -111q-40 18 -86 31q-46 13 -84 13q-18 0 -36.5 -3q-18.5 -3 -32.5 -11q-14 -8 -23 -21.5q-9 -13.5 -9 -33.5q0 -31 25 -49.5q25 -18.5 62.5 -33q37.5 -14.5 81.5 -30.5q44 -16 81.5 -41.5q37.5 -25.5 62.5 -65q25 -39.5 25 -101.5zt0 0zM314 774h-75l105 165l134 0z" />
<glyph unicode="&#347;" horiz-adv-x="480" d="M445 146q0 -46 -19 -77q-19 -31 -48 -49.5q-29 -18.5 -64.5 -26.5q-35.5 -8 -68.5 -8q-63 0 -115.5 18q-52.5 18 -94.5 47l43 81q42 -28 84.5 -42q42.5 -14 73.5 -14q45 0 63.5 14q18.5 14 18.5 37q0 21 -19.5 32.5q-19.5 11.5 -48.5 20q-29 8.5 -63.5 17.5q-34.5 9 -63.5 25.5q-29 16.5 -48.5 44q-19.5 27.5 -19.5 72.5q0 31 12 58.5q12 27.5 36 48q24 20.5 59.5 32.5q35.5 12 82.5 12q48 0 92 -8.5q44 -8.5 92 -27.5l-29 -92q-52 19 -94 26.5q-42 7.5 -76 7.5q-27 0 -40.5 -11q-13.5 -11 -13.5 -29q0 -18 20 -28.5q20 -10.5 50 -19.5q30 -9 64.5 -19q34.5 -10 64.5 -27q30 -17 50 -44.5q20 -27.5 20 -70.5zt0 0zM246 546h-75l105 165l134 0z" />
<glyph unicode="&#352;" horiz-adv-x="578" d="M543 207q0 -43 -16 -83q-16 -40 -49 -70.5q-33 -30.5 -82.5 -49q-49.5 -18.5 -116.5 -18.5q-33 0 -67 7q-34 7 -66.5 19q-32.5 12 -61 27.5q-28.5 15.5 -49.5 32.5l59 107q17 -12 39 -25.5q22 -13.5 47 -25q25 -11.5 51.5 -18.5q26.5 -7 52.5 -7q19 0 39.5 4.5q20.5 4.5 36.5 14.5q16 10 26.5 25.5q10.5 15.5 10.5 37.5q0 32 -24.5 52q-24.5 20 -61.5 36q-37 16 -80.5 32.5q-43.5 16.5 -80.5 42q-37 25.5 -61.5 64.5q-24.5 39 -24.5 99q0 42 14 79q14 37 45 64.5q31 27.5 80 43.5q49 16 118 16q25 0 53 -4q28 -4 55 -11q27 -7 52 -16q25 -9 43 -19l-48 -111q-40 18 -86 31q-46 13 -84 13q-18 0 -36.5 -3q-18.5 -3 -32.5 -11q-14 -8 -23 -21.5q-9 -13.5 -9 -33.5q0 -31 25 -49.5q25 -18.5 62.5 -33q37.5 -14.5 81.5 -30.5q44 -16 81.5 -41.5q37.5 -25.5 62.5 -65q25 -39.5 25 -101.5zt0 0zM352 774h-127l-121 165h75l110 -99l110 99l74 0z" />
<glyph unicode="&#353;" horiz-adv-x="480" d="M445 146q0 -46 -19 -77q-19 -31 -48 -49.5q-29 -18.5 -64.5 -26.5q-35.5 -8 -68.5 -8q-63 0 -115.5 18q-52.5 18 -94.5 47l43 81q42 -28 84.5 -42q42.5 -14 73.5 -14q45 0 63.5 14q18.5 14 18.5 37q0 21 -19.5 32.5q-19.5 11.5 -48.5 20q-29 8.5 -63.5 17.5q-34.5 9 -63.5 25.5q-29 16.5 -48.5 44q-19.5 27.5 -19.5 72.5q0 31 12 58.5q12 27.5 36 48q24 20.5 59.5 32.5q35.5 12 82.5 12q48 0 92 -8.5q44 -8.5 92 -27.5l-29 -92q-52 19 -94 26.5q-42 7.5 -76 7.5q-27 0 -40.5 -11q-13.5 -11 -13.5 -29q0 -18 20 -28.5q20 -10.5 50 -19.5q30 -9 64.5 -19q34.5 -10 64.5 -27q30 -17 50 -44.5q20 -27.5 20 -70.5zt0 0zM304 546h-127l-121 165h75l110 -99l110 99l74 0z" />
<glyph unicode="&#356;" horiz-adv-x="610" d="M594 573h-216v-573h-147v573h-216v127h579zM368 774h-127l-121 165h75l110 -99l110 99l74 0z" />
<glyph unicode="&#357;" horiz-adv-x="521" d="M373 40q-33 -18 -71.5 -33.5q-38.5 -15.5 -80.5 -15.5q-37 0 -61.5 11.5q-24.5 11.5 -39 31q-14.5 19.5 -20.5 46.5q-6 27 -6 57v242h-81v13l188 212h26v-132h141v-93h-141v-226q0 -56 40 -56q16 0 36 6.5q20 6.5 40 14.5zM388 632q0 13 5.5 25.5q5.5 12.5 15 22q9.5 9.5 22.5 15q13 5.5 27 5.5q32 0 54.5 -22.5q22.5 -22.5 22.5 -57.5q0 -27 -13 -55q-13 -28 -30.5 -52.5q-17.5 -24.5 -35 -44q-17.5 -19.5 -25.5 -28.5l-44 26l59 102q-25 4 -41.5 21.5t-16.5 42.5z" />
<glyph unicode="&#362;" horiz-adv-x="756" d="M378 -15q-64 0 -117 16q-53 16 -91 49q-38 33 -59 83.5q-21 50.5 -21 119.5v447h148v-447q0 -65 33 -103.5q33 -38.5 107 -38.5q74 0 107 38.5q33 38.5 33 103.5v447h148v-447q0 -69 -21 -119.5q-21 -50.5 -59 -83.5q-38 -33 -91 -49q-53 -16 -117 -16zt0 0zM238 810v84h280l0 -84z" />
<glyph unicode="&#363;" horiz-adv-x="578" d="M187 211q0 -37 8 -58.5q8 -21.5 21 -32.5q13 -11 29.5 -14q16.5 -3 34.5 -3q29 0 56 17q27 17 50 43l0 309h132v-472h-132v71q-9 -10 -25 -24q-16 -14 -37 -27q-21 -13 -45.5 -22q-24.5 -9 -49.5 -9q-86 0 -130 49.5q-44 49.5 -44 156.5v277h132zM149 582v84h280l0 -84z" />
</font>
</defs>
</svg>
