<?xml version="1.0" standalone="no"?>
<!DOCTYPE svg PUBLIC "-//W3C//DTD SVG 1.1//EN" "http://www.w3.org/Graphics/SVG/1.1/DTD/svg11.dtd" >
<svg xmlns="http://www.w3.org/2000/svg">
<metadata>
Generated by SVGconv.
Copyright   : Copyright (c) 2010 by Letterhead Studio. All rights reserved.
Designer    : Yuri Gordon
Foundry     : Letterhead Studio
Foundry URL : www.letterhead.ru
</metadata>
<defs>
<font id="ConquerorSans-Italic" horiz-adv-x="536" >
<font-face units-per-em="1000" ascent="985" descent="322" />
<missing-glyph horiz-adv-x="500" />
<glyph unicode="&#13;" horiz-adv-x="275" />
<glyph unicode="&#32;" horiz-adv-x="275" />
<glyph unicode="&#33;" horiz-adv-x="267" d="M102 195l45 505h110l-95 -505zM50 57q0 26 18.5 44.5q18.5 18.5 44.5 18.5q26 0 44 -18.5q18 -18.5 18 -44.5q0 -26 -18 -44q-18 -18 -44 -18q-26 0 -44.5 18t-18.5 44z" />
<glyph unicode="&#34;" horiz-adv-x="448" d="M409 661q-2 -15 -7.5 -25q-5.5 -10 -16.5 -22l-155 -168l-35 26l105 189q11 18 27 34.5q16 16.5 37 16.5q16 0 30.5 -9.5q14.5 -9.5 14.5 -32.5zM249 661q-2 -15 -7.5 -25q-5.5 -10 -16.5 -22l-155 -168l-35 26l105 189q11 18 27 34.5q16 16.5 37 16.5q16 0 30.5 -9.5q14.5 -9.5 14.5 -32.5z" />
<glyph unicode="&#35;" horiz-adv-x="718" d="M532 414l-61 -128h146l-9 -65h-167l-104 -221h-72l105 221h-143l-103 -221h-72l106 221h-126l9 65h148l59 128h-140l9 65h162l109 221h73l-110 -221h143l106 221h72l-109 -221h122l-9 -65zM259 286h140l62 128l-141 0z" />
<glyph unicode="&#36;" horiz-adv-x="500" d="M453 227q0 -54 -20.5 -97.5q-20.5 -43.5 -56.5 -74.5q-36 -31 -84 -49q-48 -18 -103 -21l-19 -69h-67l21 77q-42 12 -71.5 31q-29.5 19 -52.5 39l52 82q17 -14 40.5 -31.5q23.5 -17.5 58.5 -28.5l69 241q-27 13 -53.5 27.5q-26.5 14.5 -46.5 34q-20 19.5 -32.5 44.5q-12.5 25 -12.5 60q0 43 14.5 83q14.5 40 46 70.5q31.5 30.5 79.5 49.5q48 19 116 20l17 62h67l-19 -68q9 -1 23 -4.5q14 -3.5 29 -8.5q15 -5 29 -10.5q14 -5.5 23 -11.5l-41 -84q-14 7 -39 14.5q-25 7.5 -51 12.5l-62 -218q27 -13 53.5 -28q26.5 -15 47 -35q20.5 -20 33 -46.5q12.5 -26.5 12.5 -62.5zt0 0zM215 75q26 0 51 8q25 8 45 23q20 15 32.5 38q12.5 23 12.5 54q0 35 -23 57.5q-23 22.5 -55 41.5zM305 625q-23 0 -47 -6q-24 -6 -43.5 -18.5q-19.5 -12.5 -32.5 -33q-13 -20.5 -13 -48.5q0 -33 22.5 -54q22.5 -21 57.5 -38z" />
<glyph unicode="&#37;" horiz-adv-x="798" d="M676 173q0 -33 -12 -64.5q-12 -31.5 -34 -57q-22 -25.5 -53 -41q-31 -15.5 -68 -15.5q-56 0 -88 37.5q-32 37.5 -32 92.5q0 46 13.5 79q13.5 33 36 55q22.5 22 52 32.5q29.5 10.5 61.5 10.5q54 0 89 -33q35 -33 35 -96zt0 0zM518 55q21 0 38.5 9q17.5 9 29.5 25q12 16 18.5 36.5q6.5 20.5 6.5 43.5q0 32 -16 52.5q-16 20.5 -51 20.5q-21 0 -38.5 -9q-17.5 -9 -29.5 -25q-12 -16 -18.5 -36.5q-6.5 -20.5 -6.5 -43.5q0 -32 16 -52.5q16 -20.5 51 -20.5zt0 0zM410 576q0 -33 -12 -64.5q-12 -31.5 -34 -57q-22 -25.5 -53 -41q-31 -15.5 -68 -15.5q-56 0 -88 37.5q-32 37.5 -32 92.5q0 46 13.5 79q13.5 33 36 55q22.5 22 52 32.5q29.5 10.5 61.5 10.5q54 0 89 -33q35 -33 35 -96zt0 0zM111 0h-81l657 700h81zM252 458q21 0 38.5 9q17.5 9 29.5 25q12 16 18.5 36.5q6.5 20.5 6.5 43.5q0 32 -16 52.5q-16 20.5 -51 20.5q-21 0 -38.5 -9q-17.5 -9 -29.5 -25q-12 -16 -18.5 -36.5q-6.5 -20.5 -6.5 -43.5q0 -32 16 -52.5t51 -20.5z" />
<glyph unicode="&#38;" horiz-adv-x="634" d="M614 446v-87h-118q21 -29 31 -62q10 -33 10 -66q0 -47 -19 -91q-19 -44 -56.5 -78.5q-37.5 -34.5 -92.5 -55.5q-55 -21 -127 -21q-44 0 -81.5 16q-37.5 16 -65.5 44q-28 28 -44 65q-16 37 -16 78q0 90 43 143.5q43 53.5 139 85.5q-24 11 -39 26.5q-15 15.5 -23.5 32.5q-8.5 17 -11 35q-2.5 18 -2.5 33q0 37 17 68q17 31 46.5 54q29.5 23 68.5 36q39 13 83 13q32 0 59.5 -5.5q27.5 -5.5 47.5 -12.5q23 -8 42 -18l-34 -82q-42 22 -76 25.5q-34 3.5 -61 3.5q-19 0 -35 -9q-16 -9 -28 -22q-12 -13 -18.5 -27.5q-6.5 -14.5 -6.5 -25.5q0 -14 5.5 -31q5.5 -17 16.5 -31.5q11 -14.5 27.5 -24q16.5 -9.5 38.5 -9.5h30l-38 -87h-56q-68 -25 -103.5 -68.5q-35.5 -43.5 -35.5 -89.5q0 -28 13 -51.5q13 -23.5 34 -40.5q21 -17 48.5 -26.5q27.5 -9.5 56.5 -9.5q34 0 64 11.5q30 11.5 52 31.5q22 20 34.5 47.5q12.5 27.5 12.5 60.5q0 31 -13 65.5q-13 34.5 -42 69.5l38 87z" />
<glyph unicode="&#39;" horiz-adv-x="288" d="M249 661q-2 -15 -7.5 -25q-5.5 -10 -16.5 -22l-155 -168l-35 26l105 189q11 18 27 34.5q16 16.5 37 16.5q16 0 30.5 -9.5q14.5 -9.5 14.5 -32.5l0 -9z" />
<glyph unicode="&#40;" horiz-adv-x="382" d="M420 679q-63 -47 -115.5 -99.5q-52.5 -52.5 -90.5 -113.5q-38 -61 -59 -132q-21 -71 -21 -155q0 -54 11.5 -99.5q11.5 -45.5 33 -86q21.5 -40.5 53 -78q31.5 -37.5 71.5 -74.5l-46 -61q-111 75 -162.5 173q-51.5 98 -51.5 218q0 177 86 323q86 146 261 246l30 -61z" />
<glyph unicode="&#41;" horiz-adv-x="382" d="M-38 -159q62 47 114 99q52 52 90 112.5q38 60.5 59.5 131q21.5 70.5 21.5 154.5q0 55 -11.5 101q-11.5 46 -33.5 87q-22 41 -53 78.5q-31 37.5 -71 74.5l46 61q111 -75 162.5 -174q51.5 -99 51.5 -220q0 -177 -86 -321.5q-86 -144.5 -260 -244.5l-30 61z" />
<glyph unicode="&#42;" horiz-adv-x="424" d="M257 516l66 -102l-63 -42l-56 109l-88 -109l-51 42l93 102l-118 34l31 68l115 -43l11 125h70l-22 -125l128 43l11 -68z" />
<glyph unicode="&#43;" horiz-adv-x="639" d="M350 259l-33 -235h-70l33 235h-235l9 70h235l33 235h70l-33 -235h235l-9 -70z" />
<glyph unicode="&#44;" horiz-adv-x="228" d="M188 39q0 -22 -13.5 -51q-13.5 -29 -31.5 -57.5q-18 -28.5 -36 -53q-18 -24.5 -28 -36.5l-39 22l71 132q-24 2 -41 19.5q-17 17.5 -17 42.5q0 25 18.5 44q18.5 19 44.5 19q29 0 50.5 -21t21.5 -60z" />
<glyph unicode="&#45;" horiz-adv-x="290" d="M25 219l9 70h230l-9 -70z" />
<glyph unicode="&#46;" horiz-adv-x="225" d="M50 57q0 26 18.5 44.5q18.5 18.5 44.5 18.5q26 0 44 -18.5q18 -18.5 18 -44.5q0 -26 -18 -44q-18 -18 -44 -18q-26 0 -44.5 18t-18.5 44z" />
<glyph unicode="&#47;" horiz-adv-x="497" d="M-64 -200l553 922h72l-554 -922z" />
<glyph unicode="&#48;" horiz-adv-x="500" d="M484 464q0 -41 -5.5 -92.5q-5.5 -51.5 -18.5 -105q-13 -53.5 -34 -104q-21 -50.5 -52.5 -90q-31.5 -39.5 -75 -63.5q-43.5 -24 -99.5 -24q-50 0 -85 18.5q-35 18.5 -57 51.5q-22 33 -32 79q-10 46 -10 101q0 95 17.5 182q17.5 87 53 153q35.5 66 89 105.5q53.5 39.5 125.5 39.5q50 0 85 -18.5q35 -18.5 57 -52q22 -33.5 32 -79.5q10 -46 10 -101zt0 0zM211 75q31 0 55.5 18.5q24.5 18.5 43.5 50.5q19 32 32.5 73.5q13.5 41.5 22 88q8.5 46.5 12.5 94q4 47.5 4 90.5q0 70 -21 102.5q-21 32.5 -72 32.5q-31 0 -55.5 -19q-24.5 -19 -43.5 -51q-19 -32 -32.5 -74q-13.5 -42 -22 -88.5q-8.5 -46.5 -12.5 -94q-4 -47.5 -4 -90.5q0 -69 21 -101t72 -32z" />
<glyph unicode="&#49;" horiz-adv-x="500" d="M67 0l12 90h100l68 485l-111 -54l-22 58l202 121h48l-85 -610h100l-12 -90z" />
<glyph unicode="&#50;" horiz-adv-x="500" d="M8 0l6 42l250 296q16 20 34 42.5q18 22.5 32.5 47.5q14.5 25 24 52.5q9.5 27.5 9.5 58.5q0 49 -29 66.5q-29 17.5 -77 17.5q-38 0 -70.5 -21q-32.5 -21 -69.5 -51l-49 68q51 45 105.5 70.5q54.5 25.5 121.5 25.5q47 0 80.5 -12q33.5 -12 55 -33q21.5 -21 31.5 -48.5q10 -27.5 10 -58.5q0 -37 -10.5 -72.5q-10.5 -35.5 -27.5 -68q-17 -32.5 -39 -62.5q-22 -30 -45 -57l-178 -204h238l-13 -99z" />
<glyph unicode="&#51;" horiz-adv-x="500" d="M315 715q41 0 69.5 -12q28.5 -12 46.5 -30.5q18 -18.5 26 -42q8 -23.5 8 -45.5q0 -72 -44.5 -126.5q-44.5 -54.5 -114.5 -83.5q67 -9 103 -47q36 -38 36 -95q0 -48 -20 -93q-20 -45 -57 -79.5q-37 -34.5 -88 -55q-51 -20.5 -113 -20.5q-58 0 -99.5 18q-41.5 18 -73.5 42l55 79q32 -22 60 -35.5q28 -13.5 60 -13.5q23 0 51.5 7.5q28.5 7.5 54 24.5q25.5 17 43 45.5q17.5 28.5 17.5 70.5q0 21 -8.5 36.5q-8.5 15.5 -23 25.5q-14.5 10 -33 14.5q-18.5 4.5 -39.5 4.5q-14 0 -25 -2.5q-11 -2.5 -26 -8.5l-26 82q49 21 88.5 41.5q39.5 20.5 67 43q27.5 22.5 42 48q14.5 25.5 14.5 56.5q0 28 -21 44.5q-21 16.5 -56 16.5q-51 0 -88.5 -21.5q-37.5 -21.5 -66.5 -52.5l-50 68q21 19 45.5 36.5q24.5 17.5 52.5 30.5q28 13 61 21t72 8z" />
<glyph unicode="&#52;" horiz-adv-x="500" d="M460 178h-87l-25 -178h-100l25 178h-283l7 50l403 486h47l-63 -451h87zM284 263l34 240l-200 -240z" />
<glyph unicode="&#53;" horiz-adv-x="500" d="M171 -15q-51 0 -95 14.5q-44 14.5 -79 40.5l53 79q32 -21 61.5 -32.5q29.5 -11.5 61.5 -11.5q25 0 55 7q30 7 56 25q26 18 43.5 49q17.5 31 17.5 80q0 53 -31.5 83q-31.5 30 -87.5 30q-26 0 -46.5 -5q-20.5 -5 -38.5 -15l-43 44l107 327h298l-12 -90h-225l-57 -176q13 2 26 3q13 1 27 1q38 0 71.5 -14q33.5 -14 58.5 -38.5q25 -24.5 39.5 -59.5q14.5 -35 14.5 -77q0 -24 -5.5 -53q-5.5 -29 -18 -58q-12.5 -29 -33.5 -57q-21 -28 -51.5 -49q-30.5 -21 -71.5 -34t-95 -13z" />
<glyph unicode="&#54;" horiz-adv-x="500" d="M449 238q0 -50 -16.5 -95.5q-16.5 -45.5 -48 -80.5q-31.5 -35 -77 -56q-45.5 -21 -103.5 -21q-50 0 -84.5 17.5q-34.5 17.5 -55.5 48q-21 30.5 -30.5 72q-9.5 41.5 -9.5 89.5q0 46 6 101.5q6 55.5 20 111.5q14 56 37.5 108.5q23.5 52.5 58.5 92.5q35 40 83 64.5q48 24.5 112 24.5q42 0 81 -12.5q39 -12.5 66 -38.5l-59 -76q-25 23 -52 30q-27 7 -51 7q-31 0 -57.5 -9.5q-26.5 -9.5 -49 -34q-22.5 -24.5 -40.5 -68.5q-18 -44 -31 -113q21 11 44 21q20 8 43.5 15q23.5 7 46.5 7q43 0 75 -18q32 -18 52 -47q20 -29 30 -66q10 -37 10 -74zt0 0zM215 75q34 0 60 12q26 12 44 33q18 21 27 49q9 28 9 60q0 27 -7.5 51q-7.5 24 -21 41.5q-13.5 17.5 -32 28q-18.5 10.5 -40.5 10.5q-21 0 -53.5 -10q-32.5 -10 -64.5 -34q-4 -25 -6.5 -40.5q-2.5 -15.5 -4 -26.5q-1.5 -11 -2 -19.5q-0.5 -8.5 -0.5 -18.5q0 -26 4 -50.5q4 -24.5 14.5 -43.5q10.5 -19 28.5 -30.5t45 -11.5z" />
<glyph unicode="&#55;" horiz-adv-x="500" d="M41 0l334 610h-298l12 90h418l-5 -40l-362 -660z" />
<glyph unicode="&#56;" horiz-adv-x="500" d="M199 -15q-39 0 -74 12q-35 12 -61.5 35.5q-26.5 23.5 -42 58q-15.5 34.5 -15.5 79.5q0 38 10 68q10 30 27.5 54q17.5 24 41.5 42.5q24 18.5 51 33.5q-16 9 -28 23.5q-12 14.5 -20.5 32.5q-8.5 18 -12.5 38q-4 20 -4 39q0 52 18 92q18 40 49 67q31 27 72.5 41q41.5 14 89.5 14q84 0 130 -47.5q46 -47.5 46 -123.5q0 -54 -27 -102.5q-27 -48.5 -81 -73.5q35 -23 58 -63.5q23 -40.5 23 -90.5q0 -62 -23 -105q-23 -43 -59 -71q-36 -28 -80.5 -40.5q-44.5 -12.5 -87.5 -12.5zt0 0zM245 317q-26 0 -50.5 -5.5q-24.5 -5.5 -44 -21q-19.5 -15.5 -31.5 -43q-12 -27.5 -12 -70.5q0 -53 30 -77.5q30 -24.5 74 -24.5q25 0 50 5q25 5 44.5 20q19.5 15 31.5 42q12 27 12 71q0 54 -30 79q-30 25 -74 25zt0 0zM288 625q-23 0 -44.5 -5.5q-21.5 -5.5 -37.5 -19q-16 -13.5 -25.5 -37q-9.5 -23.5 -9.5 -59.5q0 -45 24.5 -71q24.5 -26 61.5 -26q22 0 43.5 7q21.5 7 38 22q16.5 15 26.5 39q10 24 10 59q0 45 -23.5 68t-63.5 23z" />
<glyph unicode="&#57;" horiz-adv-x="500" d="M50 462q0 49 16.5 95q16.5 46 48 81q31.5 35 77 56q45.5 21 103.5 21q50 0 84.5 -17.5q34.5 -17.5 55.5 -48q21 -30.5 30.5 -72q9.5 -41.5 9.5 -89.5q0 -46 -6 -101.5q-6 -55.5 -20 -111.5q-14 -56 -37.5 -108.5q-23.5 -52.5 -58.5 -92.5q-35 -40 -83.5 -64.5q-48.5 -24.5 -111.5 -24.5q-42 0 -81 12.5q-39 12.5 -66 38.5l59 76q25 -23 52 -30q27 -7 51 -7q31 0 57.5 9.5q26.5 9.5 49 34q22.5 24.5 40 68.5q17.5 44 31.5 113q-21 -12 -44 -22q-20 -8 -43.5 -14.5q-23.5 -6.5 -46.5 -6.5q-44 0 -75.5 18q-31.5 18 -51.5 47q-20 29 -30 65.5q-10 36.5 -10 74.5zt0 0zM284 625q-34 0 -60 -12q-26 -12 -44 -33q-18 -21 -27 -49q-9 -28 -9 -60q0 -27 7.5 -51q7.5 -24 21 -41.5q13.5 -17.5 32 -28q18.5 -10.5 40.5 -10.5q21 0 53.5 10q32.5 10 64.5 34q8 35 10.5 59.5q2.5 24.5 2.5 45.5q0 26 -4.5 50.5q-4.5 24.5 -15 43.5q-10.5 19 -28 30.5t-44.5 11.5z" />
<glyph unicode="&#58;" horiz-adv-x="245" d="M90 337q0 26 18.5 44.5q18.5 18.5 44.5 18.5q26 0 44 -18.5q18 -18.5 18 -44.5q0 -26 -18 -44q-18 -18 -44 -18q-26 0 -44.5 18q-18.5 18 -18.5 44zt0 0zM50 57q0 26 18.5 44.5q18.5 18.5 44.5 18.5q26 0 44 -18.5q18 -18.5 18 -44.5q0 -26 -18 -44q-18 -18 -44 -18q-26 0 -44.5 18t-18.5 44z" />
<glyph unicode="&#59;" horiz-adv-x="239" d="M84 337q0 26 18.5 44.5q18.5 18.5 44.5 18.5q26 0 44 -18.5q18 -18.5 18 -44.5q0 -26 -18 -44q-18 -18 -44 -18q-26 0 -44.5 18q-18.5 18 -18.5 44zt0 0zM198 39q0 -22 -15 -48.5q-15 -26.5 -35.5 -53.5q-20.5 -27 -42.5 -51q-22 -24 -36 -40l-29 17l81 132q-24 2 -41 19.5q-17 17.5 -17 42.5q0 25 18.5 44q18.5 19 44.5 19q29 0 50.5 -21t21.5 -60z" />
<glyph unicode="&#60;" horiz-adv-x="519" d="M504 549l-12 -81l-321 -172l274 -172l-12 -81l-403 253z" />
<glyph unicode="&#61;" horiz-adv-x="663" d="M45 163l9 70h540l-9 -70zM69 335l9 70h540l-9 -70z" />
<glyph unicode="&#62;" horiz-adv-x="519" d="M14 43l12 81l322 172l-275 172l12 81l404 -253z" />
<glyph unicode="&#63;" horiz-adv-x="406" d="M396 563q0 -50 -17.5 -82.5q-17.5 -32.5 -43.5 -56q-26 -23.5 -57 -42q-31 -18.5 -57 -40q-26 -21.5 -43.5 -51q-17.5 -29.5 -17.5 -74.5q0 -5 0 -10.5q0 -5.5 1 -11.5l-60 0q-14 31 -14 62q0 40 16 69q16 29 40.5 52q24.5 23 52.5 41q28 18 52.5 37q24.5 19 40.5 40.5q16 21.5 16 50.5q0 18 -8 30q-8 12 -20 19.5q-12 7.5 -26 10.5q-14 3 -26 3q-32 0 -63.5 -7.5q-31.5 -7.5 -68.5 -23.5l-21 84q45 18 83 27.5q38 9.5 81 9.5q51 0 82 -14q31 -14 48.5 -34.5q17.5 -20.5 23.5 -44.5q6 -24 6 -44zt0 0zM50 57q0 26 18.5 44.5q18.5 18.5 44.5 18.5q26 0 44 -18.5q18 -18.5 18 -44.5q0 -26 -18 -44q-18 -18 -44 -18q-26 0 -44.5 18t-18.5 44z" />
<glyph unicode="&#64;" horiz-adv-x="824" d="M488 326q-49 0 -88.5 -21.5q-39.5 -21.5 -67 -52q-27.5 -30.5 -42.5 -64.5q-15 -34 -15 -58q0 -38 10 -47.5q10 -9.5 27 -9.5q26 0 56 25.5q30 25.5 56.5 63.5q26.5 38 44.5 82q18 44 19 82zt0 0zM779 282q0 -80 -27.5 -134q-27.5 -54 -70.5 -87q-43 -33 -94 -47q-51 -14 -98 -14l0 158q-17 -28 -37 -57q-20 -29 -44.5 -52.5q-24.5 -23.5 -53 -38.5q-28.5 -15 -61.5 -15q-18 0 -36 6.5q-18 6.5 -31.5 22q-13.5 15.5 -22 41.5q-8.5 26 -8.5 65q0 51 25.5 100.5q25.5 49.5 73.5 88.5q48 39 117 63.5q69 24.5 156 24.5l0 -323q25 4 50 22.5q25 18.5 45 45.5q20 27 33 60.5q13 33.5 13 67.5q0 51 -20 86q-20 35 -53 56.5q-33 21.5 -76 31q-43 9.5 -89 9.5q-64 0 -127.5 -19q-63.5 -19 -114 -58.5q-50.5 -39.5 -82 -100q-31.5 -60.5 -31.5 -144.5q0 -73 21.5 -122q21.5 -49 56 -78.5q34.5 -29.5 78.5 -42q44 -12.5 88 -12.5q28 0 61 4q33 4 67.5 12q34.5 8 67.5 20q33 12 60 28l22 -67q-33 -17 -69 -29.5q-36 -12.5 -72 -20.5q-36 -8 -70.5 -12.5q-34.5 -4.5 -63.5 -4.5q-77 0 -136 23q-59 23 -99.5 65.5q-40.5 42.5 -61 102.5q-20.5 60 -20.5 134q0 88 36 160.5q36 72.5 95.5 124q59.5 51.5 136 79.5q76.5 28 157.5 28q72 0 129.5 -17.5q57.5 -17.5 97 -50q39.5 -32.5 61 -79t21.5 -104.5z" />
<glyph unicode="&#65;" horiz-adv-x="629" d="M437 188h-271l-91 -188h-95l337 700h106l156 -700h-100zM209 278h208l-66 291z" />
<glyph unicode="&#66;" horiz-adv-x="554" d="M494 217q0 -48 -19.5 -88q-19.5 -40 -52.5 -68.5q-33 -28.5 -77.5 -44.5q-44.5 -16 -94.5 -16h-210l97 700h210q30 0 60.5 -9q30.5 -9 55.5 -27.5q25 -18.5 40.5 -47.5q15.5 -29 15.5 -68q0 -68 -38.5 -115q-38.5 -47 -106.5 -67q54 -12 87 -51.5q33 -39.5 33 -97.5zt0 0zM243 90q29 0 56 6.5q27 6.5 48 21q21 14.5 34 38q13 23.5 13 58.5q0 49 -32 76q-32 27 -87 27h-91l-32 -227zM279 407q57 0 96.5 30.5q39.5 30.5 39.5 93.5q0 42 -27 60.5q-27 18.5 -80 18.5h-83l-29 -203z" />
<glyph unicode="&#67;" horiz-adv-x="659" d="M442 715q65 0 120 -11.5q55 -11.5 97 -31.5l-47 -87q-44 18 -85.5 29q-41.5 11 -96.5 11q-57 0 -108.5 -23.5q-51.5 -23.5 -90.5 -67q-39 -43.5 -62 -105.5q-23 -62 -23 -139q0 -53 15 -93.5q15 -40.5 42.5 -67.5q27.5 -27 65.5 -40.5q38 -13.5 84 -13.5q57 0 112.5 25q55.5 25 105.5 56l33 -77q-39 -27 -82 -47q-37 -18 -84 -32.5q-47 -14.5 -97 -14.5q-77 0 -134.5 20.5q-57.5 20.5 -95.5 58.5q-38 38 -57 91.5q-19 53.5 -19 119.5q0 91 27 171q27 80 79 140q52 60 128 94.5t173 34.5z" />
<glyph unicode="&#68;" horiz-adv-x="664" d="M350 700q78 0 131.5 -24q53.5 -24 86 -64q32.5 -40 47 -91q14.5 -51 14.5 -106q0 -68 -21 -141q-21 -73 -66 -134q-45 -61 -116.5 -100.5q-71.5 -39.5 -172.5 -39.5h-213l97 700zM250 90q136 0 203 87q67 87 67 242q0 92 -45.5 141.5q-45.5 49.5 -151.5 49.5h-98l-73 -520z" />
<glyph unicode="&#69;" horiz-adv-x="495" d="M418 317h-234l-32 -227h269l-12 -90h-369l97 700h358l-12 -90h-258l-29 -203l234 0z" />
<glyph unicode="&#70;" horiz-adv-x="476" d="M225 610l-29 -206h234l-13 -90h-234l-43 -314h-100l97 700h359l-12 -90z" />
<glyph unicode="&#71;" horiz-adv-x="672" d="M442 715q65 0 120 -11.5q55 -11.5 97 -31.5l-47 -87q-44 18 -85.5 29q-41.5 11 -96.5 11q-57 0 -108.5 -23.5q-51.5 -23.5 -90.5 -67q-39 -43.5 -62 -105.5q-23 -62 -23 -139q0 -53 15 -93.5q15 -40.5 42.5 -67.5q27.5 -27 65.5 -40.5q38 -13.5 84 -13.5q39 0 78.5 12.5q39.5 12.5 77.5 32.5l31 217h100l-36 -258q-39 -27 -82 -47q-37 -18 -84 -32.5q-47 -14.5 -97 -14.5q-77 0 -134.5 20.5q-57.5 20.5 -95.5 58.5q-38 38 -57 91.5q-19 53.5 -19 119.5q0 91 27 171q27 80 79 140q52 60 128 94.5t173 34.5z" />
<glyph unicode="&#72;" horiz-adv-x="726" d="M489 0l44 317h-350l-44 -317h-99l96 700h100l-40 -293h350l40 293h100l-97 -700z" />
<glyph unicode="&#73;" horiz-adv-x="277" d="M40 0l97 700h100l-97 -700z" />
<glyph unicode="&#74;" horiz-adv-x="280" d="M152 700h100l-91 -651q-17 -121 -80.5 -182.5q-63.5 -61.5 -191.5 -61.5l0 90q27 0 54 4q27 4 51 19.5q24 15.5 41.5 46.5q17.5 31 25.5 84z" />
<glyph unicode="&#75;" horiz-adv-x="622" d="M418 0l-157 317h-77l-44 -317h-100l97 700h100l-41 -293h71l248 293h120l-283 -334l192 -366z" />
<glyph unicode="&#76;" horiz-adv-x="484" d="M442 0h-402l97 700h100l-85 -610l302 0z" />
<glyph unicode="&#77;" horiz-adv-x="891" d="M688 0l59 590l-299 -590h-83l-127 590l-112 -590h-91l134 700h151l114 -536l278 536h144l-67 -700z" />
<glyph unicode="&#78;" horiz-adv-x="747" d="M610 0h-70l-339 510l-71 -510h-90l97 700h70l339 -511l71 511l90 0z" />
<glyph unicode="&#79;" horiz-adv-x="753" d="M326 -15q-72 0 -126 23.5q-54 23.5 -91 64q-37 40.5 -55.5 95.5q-18.5 55 -18.5 118q0 84 28 161.5q28 77.5 79 137q51 59.5 123.5 95q72.5 35.5 161.5 35.5q72 0 126.5 -23.5q54.5 -23.5 91 -64.5q36.5 -41 55 -96.5q18.5 -55.5 18.5 -118.5q0 -83 -28 -160.5q-28 -77.5 -79.5 -136.5q-51.5 -59 -124 -94.5q-72.5 -35.5 -160.5 -35.5zt0 0zM338 75q55 0 105.5 22.5q50.5 22.5 89.5 65q39 42.5 62 104q23 61.5 23 138.5q0 52 -14.5 93q-14.5 41 -41.5 69q-27 28 -64.5 43q-37.5 15 -82.5 15q-55 0 -105.5 -23q-50.5 -23 -89 -65.5q-38.5 -42.5 -61.5 -104q-23 -61.5 -23 -139.5q0 -52 14.5 -92.5q14.5 -40.5 41.5 -68.5q27 -28 64 -42.5t82 -14.5z" />
<glyph unicode="&#80;" horiz-adv-x="550" d="M190 364h69q77 0 121 32q44 32 44 104q0 49 -32.5 79.5q-32.5 30.5 -97.5 30.5h-69zM140 0h-100l97 700h187q40 0 77.5 -12q37.5 -12 66 -36q28.5 -24 45.5 -59.5q17 -35.5 17 -81.5q0 -64 -24.5 -109q-24.5 -45 -62.5 -73.5q-38 -28.5 -85 -41.5q-47 -13 -93 -13l-87 0z" />
<glyph unicode="&#81;" horiz-adv-x="754" d="M35 281q0 80 26.5 158q26.5 78 77 139.5q50.5 61.5 123.5 99q73 37.5 166 37.5q72 0 126 -22q54 -22 91 -61.5q37 -39.5 55.5 -94q18.5 -54.5 18.5 -119.5q0 -71 -18.5 -136q-18.5 -65 -52 -118.5q-33.5 -53.5 -81.5 -94q-48 -40.5 -107 -61.5l249 -100l-47 -84l-430 173q-94 38 -145.5 108q-51.5 70 -51.5 176zt0 0zM338 75q67 0 119 28q52 28 88 74.5q36 46.5 54.5 106.5q18.5 60 18.5 125q0 54 -15 94.5q-15 40.5 -41.5 67.5q-26.5 27 -64 40.5q-37.5 13.5 -82.5 13.5q-55 0 -105.5 -21q-50.5 -21 -89.5 -63q-39 -42 -62 -105q-23 -63 -23 -147q0 -54 15 -94q15 -40 41.5 -66.5q26.5 -26.5 64 -40t82.5 -13.5z" />
<glyph unicode="&#82;" horiz-adv-x="570" d="M140 0h-100l97 700h197q40 0 77.5 -12q37.5 -12 66 -36q28.5 -24 45.5 -59.5q17 -35.5 17 -81.5q0 -45 -13 -80.5q-13 -35.5 -35 -62q-22 -26.5 -50.5 -45q-28.5 -18.5 -59.5 -30.5l128 -293h-115l-121 274h-96zM190 364h79q77 0 121 32q44 32 44 104q0 49 -32.5 79.5q-32.5 30.5 -97.5 30.5l-79 0z" />
<glyph unicode="&#83;" horiz-adv-x="530" d="M489 218q0 -52 -21 -95q-21 -43 -57 -73.5q-36 -30.5 -85 -47.5q-49 -17 -104 -17q-33 0 -65 9q-32 9 -60 22.5q-28 13.5 -50.5 28q-22.5 14.5 -36.5 26.5l58 77q12 -10 30.5 -22.5q18.5 -12.5 40.5 -24q22 -11.5 47.5 -19q25.5 -7.5 52.5 -7.5q29 0 55 6.5q26 6.5 45.5 20q19.5 13.5 31 35q11.5 21.5 11.5 52.5q0 34 -20.5 58q-20.5 24 -52 45q-31.5 21 -67.5 41q-36 20 -67.5 44.5q-31.5 24.5 -52 56.5q-20.5 32 -20.5 77q0 44 12 81.5q12 37.5 41.5 64.5q29.5 27 78 42.5q48.5 15.5 122.5 15.5q46 0 89.5 -13.5q43.5 -13.5 74.5 -30.5l-40 -82q-23 11 -63.5 23.5q-40.5 12.5 -84.5 12.5q-24 0 -47 -2.5q-23 -2.5 -40.5 -11q-17.5 -8.5 -28 -25.5q-10.5 -17 -10.5 -47q0 -31 21 -54q21 -23 52.5 -43q31.5 -20 68 -39.5q36.5 -19.5 68 -45q31.5 -25.5 52.5 -59t21 -80.5z" />
<glyph unicode="&#84;" horiz-adv-x="557" d="M575 610h-223l-85 -610h-99l85 610h-223l12 90l545 0z" />
<glyph unicode="&#85;" horiz-adv-x="713" d="M319 75q46 0 80 12.5q34 12.5 57 34.5q23 22 35.5 51.5q12.5 29.5 17.5 62.5l64 464h100l-64 -464q-9 -62 -34.5 -109q-25.5 -47 -64.5 -78.5q-39 -31.5 -90.5 -47.5q-51.5 -16 -112.5 -16q-110 0 -173.5 51.5q-63.5 51.5 -63.5 152.5q0 11 1 22.5q1 11.5 3 24.5l64 464h100l-64 -464q-3 -18 -3 -34q0 -27 8 -50.5q8 -23.5 25.5 -40.5q17.5 -17 45.5 -26.5t69 -9.5z" />
<glyph unicode="&#86;" horiz-adv-x="670" d="M175 700l137 -523l288 523h103l-384 -700h-66l-190 700z" />
<glyph unicode="&#87;" horiz-adv-x="922" d="M647 215l214 485h94l-309 -700h-60l-105 498l-243 -498h-60l-115 700h105l78 -487l237 487l60 0z" />
<glyph unicode="&#88;" horiz-adv-x="608" d="M360 355l174 -355h-119l-128 260l-199 -260h-105l263 345l-173 355h118l128 -261l200 261l106 0z" />
<glyph unicode="&#89;" horiz-adv-x="598" d="M299 0h-99l35 255l-172 445h111l130 -340l226 340h101l-297 -447z" />
<glyph unicode="&#90;" horiz-adv-x="617" d="M7 0v35l439 575h-334v90h498v-36l-440 -574h352l-12 -90z" />
<glyph unicode="&#91;" horiz-adv-x="251" d="M-22 -220l132 960h181l-9 -70h-101l-115 -820h101l-9 -70z" />
<glyph unicode="&#92;" horiz-adv-x="497" d="M136 722l296 -922h-72l-296 922z" />
<glyph unicode="&#93;" horiz-adv-x="251" d="M273 740l-133 -960h-180l9 70h100l115 820h-101l9 70z" />
<glyph unicode="&#94;" horiz-adv-x="454" d="M347 549l-102 125l-138 -125h-82l210 191h38l156 -191z" />
<glyph unicode="&#95;" horiz-adv-x="532" d="M-4 -96l8 70h532l-9 -70z" />
<glyph unicode="&#96;" horiz-adv-x="296" d="M74 706h98l61 -162l-65 0z" />
<glyph unicode="&#97;" horiz-adv-x="495" d="M321 70q-44 -42 -88 -61.5q-44 -19.5 -88 -19.5q-52 0 -86 34q-34 34 -34 87q0 55 23 89.5q23 34.5 66 54q43 19.5 103.5 28q60.5 8.5 134.5 11.5q3 24 3 42q0 27 -7 42q-7 15 -19 22q-12 7 -27.5 8q-15.5 1 -33.5 1q-17 0 -37.5 -3q-20.5 -3 -42 -8.5q-21.5 -5.5 -42 -12q-20.5 -6.5 -36.5 -12.5l-15 77q17 6 41 13q24 7 51.5 13q27.5 6 56 9.5q28.5 3.5 55.5 3.5q29 0 55.5 -6.5q26.5 -6.5 46.5 -23q20 -16.5 32 -45q12 -28.5 12 -72.5q0 -12 -1 -25.5q-1 -13.5 -3 -28.5l-40 -287h-90zM188 66q16 0 33.5 7.5q17.5 7.5 36 19q18.5 11.5 37.5 26.5q19 15 37 30l10 74q-45 -2 -86 -5q-41 -3 -72 -12.5q-31 -9.5 -49 -27.5q-18 -18 -18 -49q0 -10 4.5 -21q4.5 -11 13.5 -20.5q9 -9.5 22.5 -15.5t30.5 -6z" />
<glyph unicode="&#98;" horiz-adv-x="564" d="M233 -15q-49 0 -97 18q-48 18 -92 50l90 647h90l-37 -266q28 19 68.5 36.5q40.5 17.5 88.5 17.5q39 0 72.5 -15.5q33.5 -15.5 58 -43q24.5 -27.5 39 -65.5q14.5 -38 14.5 -82q0 -79 -27 -135q-27 -56 -69.5 -92q-42.5 -36 -95 -53q-52.5 -17 -103.5 -17zt0 0zM234 65q97 0 148.5 51q51.5 51 51.5 152q0 37 -14 63.5q-14 26.5 -34 43.5q-20 17 -41 24.5q-21 7.5 -36 7.5q-38 0 -71 -15.5q-33 -15.5 -62 -38.5l-36 -257q16 -13 43 -22t51 -9z" />
<glyph unicode="&#99;" horiz-adv-x="491" d="M441 59q-14 -9 -35.5 -21.5q-21.5 -12.5 -48 -24.5q-26.5 -12 -56.5 -20q-30 -8 -61 -8q-41 0 -78 11q-37 11 -65 35q-28 24 -44.5 61.5q-16.5 37.5 -16.5 91.5q0 79 27 136.5q27 57.5 69 95q42 37.5 92 55q50 17.5 96 17.5q38 0 78 -6q40 -6 79 -17l-31 -77q-36 10 -67 15.5q-31 5.5 -60 5.5q-39 0 -72.5 -12q-33.5 -12 -58.5 -37.5q-25 -25.5 -39.5 -65.5q-14.5 -40 -14.5 -96q0 -67 36 -98.5q36 -31.5 100 -31.5q32 0 68.5 18.5q36.5 18.5 71.5 38.5z" />
<glyph unicode="&#100;" horiz-adv-x="571" d="M377 0l9 67q-15 -14 -34 -28.5q-19 -14.5 -41 -26.5q-22 -12 -46.5 -19.5q-24.5 -7.5 -49.5 -7.5q-35 0 -67.5 11q-32.5 11 -57 34.5q-24.5 23.5 -39.5 61q-15 37.5 -15 90.5q0 80 26.5 138q26.5 58 66 95.5q39.5 37.5 86.5 55q47 17.5 89 17.5q42 0 75.5 -11q33.5 -11 59.5 -27l35 250h91l-97 -700zM428 365q-27 20 -53.5 31.5q-26.5 11.5 -67.5 11.5q-23 0 -54 -8.5q-31 -8.5 -58.5 -32q-27.5 -23.5 -47 -65.5q-19.5 -42 -19.5 -109q0 -35 9 -58.5q9 -23.5 25 -38q16 -14.5 38 -21q22 -6.5 47 -6.5q38 0 77 22.5q39 22.5 74 57.5z" />
<glyph unicode="&#101;" horiz-adv-x="501" d="M36 191q0 51 16 104q16 53 47 95.5q31 42.5 77 70q46 27.5 107 27.5q92 0 137 -45q45 -45 45 -140q0 -17 -1.5 -34q-1.5 -17 -3.5 -36l-328 0q-3 -21 -3 -39q0 -36 9.5 -60.5q9.5 -24.5 27.5 -39q18 -14.5 43.5 -20.5q25.5 -6 57.5 -6q16 0 35.5 5.5q19.5 5.5 39 14q19.5 8.5 37.5 18.5q18 10 31 19l28 -65q-17 -11 -38 -24q-21 -13 -46.5 -24.5q-25.5 -11.5 -54 -19q-28.5 -7.5 -59.5 -7.5q-41 0 -78 13q-37 13 -65 39q-28 26 -44.5 64.5q-16.5 38.5 -16.5 89.5zt0 0zM284 408q-43 0 -76 -24.5q-33 -24.5 -60 -85.5l234 0q1 5 1 9.5q0 4.5 0 9.5q0 42 -21 66.5t-78 24.5z" />
<glyph unicode="&#102;" horiz-adv-x="301" d="M30 0l54 392h-60l11 80h60l14 94q6 44 21.5 73q15.5 29 36 46q20.5 17 44.5 23.5q24 6.5 47 6.5q38 0 72 -6.5q34 -6.5 67 -16.5l-35 -74q-35 13 -60.5 19.5q-25.5 6.5 -47.5 6.5q-21 0 -34 -11q-13 -11 -17 -40l-17 -121h117l-11 -80h-117l-54 -392z" />
<glyph unicode="&#103;" horiz-adv-x="505" d="M444 403q9 -14 14.5 -29q5.5 -15 5.5 -37q0 -62 -25 -102.5q-25 -40.5 -66 -66.5q-41 -26 -93 -40.5q-52 -14.5 -105 -25.5l0 -6q68 -3 116.5 -14q48.5 -11 79 -28.5q30.5 -17.5 45 -40q14.5 -22.5 14.5 -47.5q0 -39 -22 -71.5q-22 -32.5 -58.5 -55.5q-36.5 -23 -83 -36q-46.5 -13 -95.5 -13q-51 0 -85.5 9q-34.5 9 -55.5 24.5q-21 15.5 -29.5 35q-8.5 19.5 -8.5 40.5q0 42 33.5 77q33.5 35 109.5 69l-92 13l9 61q30 8 60 16q30 8 60 18q-54 20 -78.5 49q-24.5 29 -24.5 77q0 47 17.5 85.5q17.5 38.5 47.5 66q30 27.5 70.5 42.5q40.5 15 86.5 15q24 0 53 -7q29 -7 46 -18l140 50l-12 -83zM281 416q-26 0 -48 -10q-22 -10 -38.5 -27.5q-16.5 -17.5 -26 -41q-9.5 -23.5 -9.5 -50.5q0 -40 23 -64.5q23 -24.5 69 -24.5q55 0 88.5 36.5q33.5 36.5 33.5 92.5q0 37 -22.5 63q-22.5 26 -69.5 26zt0 0zM181 -140q74 0 117 25q43 25 43 67q0 24 -25.5 43.5q-25.5 19.5 -88.5 28.5q-51 -17 -81.5 -33.5q-30.5 -16.5 -46 -31.5q-15.5 -15 -20.5 -27.5q-5 -12.5 -5 -19.5q0 -23 27 -37.5t80 -14.5z" />
<glyph unicode="&#104;" horiz-adv-x="563" d="M184 414q14 12 31.5 24.5q17.5 12.5 38.5 23q21 10.5 45 17.5q24 7 51 7q31 0 60.5 -10q29.5 -10 51.5 -30.5q22 -20.5 35.5 -52q13.5 -31.5 13.5 -75.5q0 -22 -3 -44l-38 -274h-91l38 274q2 8 2 16q0 8 0 16q0 28 -7.5 47q-7.5 19 -21 30.5q-13.5 11.5 -31.5 16.5q-18 5 -38 5q-16 0 -36 -5q-20 -5 -40.5 -13.5q-20.5 -8.5 -39 -20q-18.5 -11.5 -31.5 -24.5l-47 -342h-90l97 700l90 0z" />
<glyph unicode="&#105;" horiz-adv-x="230" d="M127 0h-90l66 472h90zM168 562q-23 0 -40.5 17q-17.5 17 -17.5 40q0 25 17.5 42.5q17.5 17.5 40.5 17.5q25 0 42 -17.5q17 -17.5 17 -42.5q0 -23 -17 -40t-42 -17z" />
<glyph unicode="&#106;" horiz-adv-x="229" d="M128 15q-9 -62 -33 -102.5q-24 -40.5 -56 -64.5q-32 -24 -69 -33.5q-37 -9.5 -71 -9.5l0 80q31 0 55 10.5q24 10.5 41.5 28.5q17.5 18 28 41.5q10.5 23.5 14.5 49.5l64 457h90zM165 562q-23 0 -40.5 17q-17.5 17 -17.5 40q0 25 17.5 42.5q17.5 17.5 40.5 17.5q25 0 42 -17.5q17 -17.5 17 -42.5q0 -23 -17 -40t-42 -17z" />
<glyph unicode="&#107;" horiz-adv-x="492" d="M288 278l143 -278h-107l-110 211l-66 -61l-21 -150h-90l97 700h90l-62 -446l233 218l107 0z" />
<glyph unicode="&#108;" horiz-adv-x="235" d="M127 0h-90l97 700l90 0z" />
<glyph unicode="&#109;" horiz-adv-x="824" d="M429 0h-91l39 285q3 19 3 35q0 27 -7 43.5q-7 16.5 -18.5 25.5q-11.5 9 -27 12q-15.5 3 -32.5 3q-34 0 -68 -21q-34 -21 -54 -51l-46 -332h-90l65 472h90l-8 -60q9 10 23 23q14 13 32.5 25q18.5 12 40.5 20q22 8 46 8q44 0 77.5 -21.5q33.5 -21.5 53.5 -56.5q10 9 26.5 22.5q16.5 13.5 38 26q21.5 12.5 48.5 21q27 8.5 57 8.5q66 0 105.5 -41q39.5 -41 39.5 -118q0 -22 -3 -44l-39 -285h-91l39 285q3 19 3 35q0 27 -7 43.5q-7 16.5 -18.5 25.5q-11.5 9 -27 12q-15.5 3 -32.5 3q-14 0 -31 -6.5q-17 -6.5 -34.5 -16q-17.5 -9.5 -32 -21.5q-14.5 -12 -23.5 -23z" />
<glyph unicode="&#110;" horiz-adv-x="564" d="M184 414q14 12 31.5 24.5q17.5 12.5 38.5 23q21 10.5 45 17.5q24 7 51 7q31 0 60.5 -10q29.5 -10 51.5 -30.5q22 -20.5 35.5 -52q13.5 -31.5 13.5 -75.5q0 -22 -3 -44l-38 -274h-91l38 274q2 8 2 16q0 8 0 16q0 28 -7.5 47q-7.5 19 -21 30.5q-13.5 11.5 -31.5 16.5q-18 5 -38 5q-16 0 -36 -5q-20 -5 -40.5 -13.5q-20.5 -8.5 -39 -20q-18.5 -11.5 -31.5 -24.5l-47 -342h-90l65 472l90 0z" />
<glyph unicode="&#111;" horiz-adv-x="559" d="M244 -15q-45 0 -83 14q-38 14 -66 41q-28 27 -43.5 66.5q-15.5 39.5 -15.5 90.5q0 75 23.5 130q23.5 55 62.5 91q39 36 89 53q50 17 104 17q45 0 83 -14q38 -14 66 -41q28 -27 43.5 -66.5q15.5 -39.5 15.5 -90.5q0 -75 -23.5 -130q-23.5 -55 -62.5 -91q-39 -36 -89 -53q-50 -17 -104 -17zt0 0zM255 60q37 0 69.5 14.5q32.5 14.5 56.5 42q24 27.5 37.5 67.5q13.5 40 13.5 92q0 66 -34 101.5q-34 35.5 -94 35.5q-37 0 -69.5 -14.5q-32.5 -14.5 -56.5 -42q-24 -27.5 -37.5 -67.5q-13.5 -40 -13.5 -92q0 -66 34 -101.5t94 -35.5z" />
<glyph unicode="&#112;" horiz-adv-x="558" d="M249 59q45 0 78.5 17q33.5 17 56 46.5q22.5 29.5 34 68q11.5 38.5 11.5 81.5q0 41 -12.5 67.5q-12.5 26.5 -30.5 42q-18 15.5 -38.5 21.5q-20.5 6 -36.5 6q-20 0 -39.5 -7.5q-19.5 -7.5 -37.5 -18.5q-18 -11 -34 -24q-16 -13 -28 -24l-33 -237q9 -10 21.5 -17.5q12.5 -7.5 27.5 -12q15 -4.5 31 -7q16 -2.5 30 -2.5zt0 0zM101 472h90l-9 -61q9 9 26.5 22.5q17.5 13.5 40.5 25.5q23 12 49.5 20.5q26.5 8.5 54.5 8.5q31 0 61.5 -12.5q30.5 -12.5 54.5 -37q24 -24.5 38.5 -62.5q14.5 -38 14.5 -89q0 -82 -26.5 -139.5q-26.5 -57.5 -65.5 -93.5q-39 -36 -84 -52.5q-45 -16.5 -83 -16.5q-33 0 -71 9q-38 9 -64 26l-30 -215l-90 0z" />
<glyph unicode="&#113;" horiz-adv-x="535" d="M407 393q-15 9 -34.5 15q-19.5 6 -32.5 6q-35 0 -72 -9.5q-37 -9.5 -68 -34.5q-31 -25 -51 -68q-20 -43 -20 -110q0 -43 13 -69q13 -26 30.5 -39.5q17.5 -13.5 36 -18q18.5 -4.5 30.5 -4.5q43 0 73 14q30 14 55 35zM357 34q-29 -23 -63.5 -36q-34.5 -13 -72.5 -13q-36 0 -69.5 12.5q-33.5 12.5 -59 38q-25.5 25.5 -41 63.5q-15.5 38 -15.5 88q0 77 29 134q29 57 73.5 94q44.5 37 99 55q54.5 18 105.5 18q20 0 39 -4.5q19 -4.5 36 -11.5l96 47l-99 -714l-90 0z" />
<glyph unicode="&#114;" horiz-adv-x="359" d="M172 324q30 74 76 110.5q46 36.5 119 53.5l12 -77q-109 -32 -162.5 -89q-53.5 -57 -65.5 -147l-24 -175h-90l65 472l90 0z" />
<glyph unicode="&#115;" horiz-adv-x="447" d="M401 152q0 -41 -15.5 -72.5q-15.5 -31.5 -42 -52.5q-26.5 -21 -62.5 -31.5q-36 -10.5 -76 -10.5q-52 0 -101 18.5q-49 18.5 -82 47.5l42 70q35 -26 74 -41q39 -15 71 -15q52 0 76.5 14.5q24.5 14.5 24.5 49.5q0 23 -16.5 37.5q-16.5 14.5 -42 25.5q-25.5 11 -54.5 22q-29 11 -54.5 26.5q-25.5 15.5 -42 38.5q-16.5 23 -16.5 59q0 71 46.5 111q46.5 40 131.5 40q50 0 86.5 -8q36.5 -8 76.5 -25l-31 -75q-45 18 -79.5 24q-34.5 6 -67.5 6q-37 0 -56 -15.5q-19 -15.5 -19 -39.5q0 -21 17 -35q17 -14 42.5 -25q25.5 -11 55 -22q29.5 -11 55 -26.5q25.5 -15.5 42.5 -38.5t17 -57z" />
<glyph unicode="&#116;" horiz-adv-x="361" d="M305 37q-36 -17 -71.5 -29.5q-35.5 -12.5 -74.5 -12.5q-25 0 -41.5 8q-16.5 8 -26 22q-9.5 14 -13.5 32q-4 18 -4 38q0 18 3 38l36 259h-80l2 10l191 189h6l-17 -119h147l-11 -80h-147l-35 -255q-1 -5 -1.5 -9.5q-0.5 -4.5 -0.5 -8.5q0 -21 9 -29q9 -8 24 -8q18 0 41 8q23 8 45 18z" />
<glyph unicode="&#117;" horiz-adv-x="539" d="M436 0h-90l11 76q-15 -15 -34.5 -30.5q-19.5 -15.5 -41.5 -28q-22 -12.5 -45 -20.5q-23 -8 -47 -8q-65 0 -102 33q-37 33 -37 113q0 14 1.5 29q1.5 15 3.5 32l38 276h90l-38 -276q-3 -21 -3 -37q0 -26 7 -42q7 -16 20 -24.5q13 -8.5 29.5 -11q16.5 -2.5 36.5 -2.5q35 0 69 21.5q34 21.5 64 53.5l44 318l90 0z" />
<glyph unicode="&#118;" horiz-adv-x="509" d="M149 472l96 -351l198 351h88l-272 -472h-73l-139 472z" />
<glyph unicode="&#119;" horiz-adv-x="717" d="M142 472l75 -318l144 318h69l71 -315l140 315h93l-221 -472h-68l-74 307l-146 -307h-69l-109 472z" />
<glyph unicode="&#120;" horiz-adv-x="470" d="M220 161l-134 -161h-96l193 232l-127 240h106l87 -161l134 161h97l-194 -232l130 -240l-110 0z" />
<glyph unicode="&#121;" horiz-adv-x="510" d="M438 472h89l-375 -667h-89l114 202l-130 465h97l100 -352z" />
<glyph unicode="&#122;" horiz-adv-x="466" d="M12 0v40l298 352h-241l11 80h374v-40l-298 -352h242l-11 -80z" />
<glyph unicode="&#123;" horiz-adv-x="340" d="M113 260q49 -21 67.5 -52.5q18.5 -31.5 18.5 -78.5q0 -15 -1 -32q-1 -17 -4 -36l-17 -116q-3 -18 -3 -32q0 -22 4.5 -35q4.5 -13 14.5 -19.5q10 -6.5 25.5 -8q15.5 -1.5 36.5 -1.5l-10 -70q-76 0 -113.5 29.5q-37.5 29.5 -37.5 102.5q0 13 1.5 26.5q1.5 13.5 3.5 29.5l18 134q3 21 3 37q0 30 -8 47.5q-8 17.5 -19 27.5q-11 10 -24.5 13q-13.5 3 -23.5 5l9 58q11 1 27 5.5q16 4.5 32 18q16 13.5 29.5 38.5q13.5 25 19.5 68l18 134q7 52 22.5 88q15.5 36 40.5 58.5q25 22.5 59 32q34 9.5 78 9.5l-10 -70q-24 0 -42 -2.5q-18 -2.5 -30.5 -12.5q-12.5 -10 -21 -29q-8.5 -19 -12.5 -52l-16 -116q-5 -38 -13 -69q-8 -31 -23 -55q-15 -24 -38.5 -42.5t-60.5 -32.5z" />
<glyph unicode="&#124;" horiz-adv-x="170" d="M-22 -296l144 1036h70l-145 -1036z" />
<glyph unicode="&#125;" horiz-adv-x="339" d="M227 260q-50 21 -68.5 52.5q-18.5 31.5 -18.5 78.5q0 30 6 68l16 116q3 22 3 38q0 39 -20 48.5q-20 9.5 -61 9.5l10 70q76 0 113 -29.5q37 -29.5 37 -102.5q0 -13 -1 -27q-1 -14 -3 -29l-18 -134q-3 -21 -3 -37q0 -30 8 -48q8 -18 19 -27.5q11 -9.5 24 -13q13 -3.5 24 -4.5l-9 -58q-12 -2 -28.5 -6q-16.5 -4 -32 -17.5q-15.5 -13.5 -28.5 -38.5q-13 -25 -19 -68l-18 -134q-14 -105 -63 -146.5q-49 -41.5 -136 -41.5l10 70q24 0 41.5 2.5q17.5 2.5 30 12.5q12.5 10 20.5 29q8 19 13 52l16 116q5 38 13 69q8 31 23 55q15 24 39 42.5t61 32.5z" />
<glyph unicode="&#126;" horiz-adv-x="651" d="M606 300q-33 -20 -57 -34q-24 -14 -43.5 -22.5q-19.5 -8.5 -38.5 -12.5q-19 -4 -41 -4q-30 0 -55.5 11q-25.5 11 -50.5 24q-25 13 -51 24q-26 11 -55 11q-21 0 -38 -2.5q-17 -2.5 -36.5 -10.5q-19.5 -8 -44 -22q-24.5 -14 -60.5 -36l9 68q29 19 52.5 33q23.5 14 44.5 23q21 9 40.5 13q19.5 4 42.5 4q30 0 55.5 -11q25.5 -11 51 -24q25.5 -13 51 -24q25.5 -11 55.5 -11q21 0 38 2.5q17 2.5 36 10.5q19 8 43.5 21.5q24.5 13.5 60.5 36.5l-9 -68z" />
<glyph unicode="&#160;" horiz-adv-x="275" />
<glyph unicode="&#161;" horiz-adv-x="267" d="M205 500l-45 -505h-110l95 505zM257 638q0 -26 -18.5 -44.5q-18.5 -18.5 -44.5 -18.5q-26 0 -44 18.5q-18 18.5 -18 44.5q0 26 18 44q18 18 44 18q26 0 44.5 -18t18.5 -44z" />
<glyph unicode="&#162;" horiz-adv-x="491" d="M175 -7q-30 7 -55 22q-25 15 -44 38q-19 23 -29.5 55.5q-10.5 32.5 -10.5 75.5q0 79 26.5 136q26.5 57 67.5 94q41 37 90.5 55q49.5 18 95.5 19l17 57h67l-18 -61q24 -3 48 -8q24 -5 47 -11l-31 -77q-23 6 -44.5 11q-21.5 5 -41.5 7l-97 -338q38 0 75 18.5q37 18.5 72 38.5l31 -66q-14 -9 -35.5 -21.5q-21.5 -12.5 -48 -24.5q-26.5 -12 -57 -20q-30.5 -8 -61.5 -8l-19 -69h-67zM134 198q0 -46 17 -75q17 -29 49 -43l93 327q-34 -3 -63 -17q-29 -14 -50.5 -39.5q-21.5 -25.5 -33.5 -63.5t-12 -89z" />
<glyph unicode="&#163;" horiz-adv-x="500" d="M41 394h89l33 97q16 49 32.5 90.5q16.5 41.5 41 71q24.5 29.5 62.5 46q38 16.5 97 16.5q20 0 49.5 -4.5q29.5 -4.5 54.5 -11.5l-31 -87q-28 8 -53.5 13.5q-25.5 5.5 -45.5 5.5q-13 0 -27 -6.5q-14 -6.5 -28.5 -23.5q-14.5 -17 -30 -47.5q-15.5 -30.5 -32.5 -79.5l-28 -80h173v-80h-200l-76 -222q35 16 65 22.5q30 6.5 64 6.5q6 0 16 -1q10 -1 20.5 -2q10.5 -1 20.5 -2.5q10 -1.5 16 -2.5l128 -22l-32 -103l-176 33q-15 3 -37.5 4.5q-22.5 1.5 -32.5 1.5q-35 0 -61 -6.5q-26 -6.5 -52 -20.5l-60 0l103 314l-62 0z" />
<glyph unicode="&#164;" horiz-adv-x="500" d="M179 214h133l-11 -80h-133l-18 -134h-100l18 134h-61l10 80h62l10 70h-62l11 80h62l46 336h147q40 0 75.5 -12q35.5 -12 62.5 -35.5q27 -23.5 43 -58.5q16 -35 16 -80q0 -66 -22.5 -110q-22.5 -44 -58.5 -70.5q-36 -26.5 -81.5 -38q-45.5 -11.5 -91.5 -11.5h-47zM200 364h29q78 0 116 33.5q38 33.5 38 106.5q0 48 -28.5 77q-28.5 29 -91.5 29l-29 0z" />
<glyph unicode="&#165;" horiz-adv-x="598" d="M318 134l-19 -134h-99l19 134h-219l8 70h220l7 51l-11 29h-205l10 70h168l-134 346h111l130 -340l226 340h101l-230 -346h168l-10 -70h-205l-20 -31l-7 -49h221l-9 -70z" />
<glyph unicode="&#166;" horiz-adv-x="170" d="M-23 -296l53 380h70l-54 -380zM69 360l54 380h70l-54 -380z" />
<glyph unicode="&#167;" horiz-adv-x="485" d="M433 302q0 -45 -24 -84q-24 -39 -66 -74q8 -14 15 -34q7 -20 7 -40q0 -39 -12 -72.5q-12 -33.5 -37.5 -58.5q-25.5 -25 -65.5 -39.5q-40 -14.5 -96 -14.5q-20 0 -40 5.5q-20 5.5 -38.5 14q-18.5 8.5 -34.5 18.5q-16 10 -26 19l48 71q7 -5 20 -13.5q13 -8.5 28 -16q15 -7.5 31 -13q16 -5.5 31 -5.5q46 0 75.5 22q29.5 22 29.5 61q0 24 -15 44.5q-15 20.5 -37 39.5q-22 19 -48 38.5q-26 19.5 -48 42.5q-22 23 -37 51.5q-15 28.5 -15 64.5q0 15 3 34q3 19 12 39.5q9 20.5 26 42.5q17 22 46 43q-9 11 -13 30.5q-4 19.5 -4 36.5q0 75 44 117.5q44 42.5 125 42.5q35 0 74.5 -9q39.5 -9 73.5 -23l-39 -78q-29 13 -60 21.5q-31 8.5 -55 8.5q-78 0 -78 -55q0 -21 15 -40q15 -19 37 -38.5q22 -19.5 48 -40q26 -20.5 48 -44.5q22 -24 37 -52.5q15 -28.5 15 -62.5zt0 0zM217 440q-27 -20 -38 -41.5q-11 -21.5 -11 -41.5q0 -22 9.5 -41q9.5 -19 26.5 -37.5q17 -18.5 40 -38.5q23 -20 51 -44q27 20 38 41.5q11 21.5 11 41.5q0 22 -9.5 41q-9.5 19 -26.5 37.5q-17 18.5 -40 38.5t-51 44z" />
<glyph unicode="&#168;" horiz-adv-x="505" d="M410 562q-23 0 -40.5 17q-17.5 17 -17.5 40q0 25 17.5 42.5q17.5 17.5 40.5 17.5q25 0 42 -17.5q17 -17.5 17 -42.5q0 -23 -17 -40q-17 -17 -42 -17zt0 0zM215 562q-23 0 -40 17q-17 17 -17 40q0 25 17 42.5q17 17.5 40 17.5q26 0 43 -17.5q17 -17.5 17 -42.5q0 -23 -17 -40t-43 -17z" />
<glyph unicode="&#169;" horiz-adv-x="823" d="M50 351q0 75 28.5 141q28.5 66 77.5 115q49 49 115 77.5q66 28.5 141 28.5q75 0 140.5 -28.5q65.5 -28.5 114.5 -77.5q49 -49 77.5 -115q28.5 -66 28.5 -141q0 -75 -28.5 -140.5q-28.5 -65.5 -77.5 -114.5q-49 -49 -114.5 -77.5q-65.5 -28.5 -140.5 -28.5q-75 0 -141 28.5q-66 28.5 -115 77.5q-49 49 -77.5 114.5q-28.5 65.5 -28.5 140.5zt0 0zM419 578q40 0 71.5 -7q31.5 -7 60.5 -20l-22 -54q-29 11 -52.5 18q-23.5 7 -57.5 7q-33 0 -60.5 -12q-27.5 -12 -47.5 -34q-20 -22 -31 -53.5q-11 -31.5 -11 -71.5q0 -84 42.5 -127q42.5 -43 107.5 -43q35 0 67.5 15.5q32.5 15.5 60.5 34.5l27 -48q-21 -17 -47 -29q-22 -11 -50 -20q-28 -9 -58 -9q-54 0 -95 16.5q-41 16.5 -68.5 46.5q-27.5 30 -41 71.5q-13.5 41.5 -13.5 91.5q0 48 13.5 89.5q13.5 41.5 41 72q27.5 30.5 68.5 48q41 17.5 95 17.5zt0 0zM98 351q0 -65 24.5 -121.5q24.5 -56.5 67.5 -99.5q43 -43 100 -67.5q57 -24.5 122 -24.5q64 0 121 24.5q57 24.5 100 67.5q43 43 67.5 99.5q24.5 56.5 24.5 121.5q0 65 -24.5 122q-24.5 57 -67.5 100q-43 43 -100 67.5q-57 24.5 -121 24.5q-65 0 -122 -24.5q-57 -24.5 -100 -67.5q-43 -43 -67.5 -100t-24.5 -122z" />
<glyph unicode="&#170;" horiz-adv-x="405" d="M258 386q-31 -26 -65 -42.5q-34 -16.5 -67 -16.5q-45 0 -70.5 23q-25.5 23 -18.5 72q5 36 24.5 60.5q19.5 24.5 51 40q31.5 15.5 74.5 23.5q43 8 94 10q4 30 1 46.5q-3 16.5 -11.5 24q-8.5 7.5 -21 9q-12.5 1.5 -27.5 1.5q-13 0 -29.5 -2.5q-16.5 -2.5 -33 -6.5q-16.5 -4 -32 -9q-15.5 -5 -27.5 -9l-12 60q15 6 34.5 11.5q19.5 5.5 41 10q21.5 4.5 44 7q22.5 2.5 42.5 2.5q24 0 46.5 -6q22.5 -6 39 -22.5q16.5 -16.5 23.5 -45.5q7 -29 1 -75l-30 -217h-79zM159 389q11 0 24.5 5q13.5 5 28 13.5q14.5 8.5 28.5 18.5q14 10 26 20l8 56q-32 -2 -59.5 -5.5q-27.5 -3.5 -48.5 -12q-21 -8.5 -34 -21.5q-13 -13 -16 -33q-3 -18 6.5 -29.5t36.5 -11.5z" />
<glyph unicode="&#171;" horiz-adv-x="436" d="M380 116l-42 -36l-119 150l160 150l32 -36l-107 -114zM272 38l-50 -39l-182 231l247 231l38 -39l-176 -192z" />
<glyph unicode="&#172;" horiz-adv-x="639" d="M497 89l17 120h-469l10 70h539l-27 -190z" />
<glyph unicode="&#173;" horiz-adv-x="290" d="M25 219l9 70h230l-9 -70z" />
<glyph unicode="&#174;" horiz-adv-x="478" d="M438 520q0 -41 -15.5 -77.5q-15.5 -36.5 -42.5 -63.5q-27 -27 -63.5 -42.5q-36.5 -15.5 -77.5 -15.5q-41 0 -77.5 15.5q-36.5 15.5 -63.5 42.5q-27 27 -42.5 63.5q-15.5 36.5 -15.5 77.5q0 41 15.5 77.5q15.5 36.5 42.5 63.5q27 27 63.5 42.5q36.5 15.5 77.5 15.5q41 0 77.5 -15.5q36.5 -15.5 63.5 -42.5q27 -27 42.5 -63.5q15.5 -36.5 15.5 -77.5zt0 0zM213 400h-37v247h69q33 0 60 -18.5q27 -18.5 27 -57.5q0 -27 -14 -43.5q-14 -16.5 -35 -24.5l64 -103h-43l-60 97h-31zM213 529h26q53 0 53 42q0 44 -53 44h-26zM405 520q0 35 -13 65q-13 30 -35.5 52.5q-22.5 22.5 -52.5 35.5q-30 13 -65 13q-35 0 -65 -13q-30 -13 -52.5 -35.5q-22.5 -22.5 -35.5 -52.5q-13 -30 -13 -65q0 -35 13 -65q13 -30 35.5 -52.5q22.5 -22.5 52.5 -35.5q30 -13 65 -13q35 0 65 13q30 13 52.5 35.5q22.5 22.5 35.5 52.5t13 65z" />
<glyph unicode="&#175;" horiz-adv-x="290" d="M11 589l9 70h260l-9 -70z" />
<glyph unicode="&#176;" horiz-adv-x="296" d="M40 632q0 22 8.5 42q8.5 20 23 34.5q14.5 14.5 34 23q19.5 8.5 42.5 8.5q22 0 42 -8.5q20 -8.5 34.5 -23q14.5 -14.5 23 -34.5q8.5 -20 8.5 -42q0 -23 -8.5 -42.5q-8.5 -19.5 -23 -34q-14.5 -14.5 -34.5 -23q-20 -8.5 -42 -8.5q-23 0 -42.5 8.5q-19.5 8.5 -34 23q-14.5 14.5 -23 34q-8.5 19.5 -8.5 42.5zt0 0zM82 632q0 -26 19 -44.5q19 -18.5 46 -18.5q26 0 44.5 18.5q18.5 18.5 18.5 44.5q0 27 -18.5 46q-18.5 19 -44.5 19q-27 0 -46 -19t-19 -46z" />
<glyph unicode="&#177;" horiz-adv-x="680" d="M400 380h235l-9 -70h-235l-25 -175h-70l25 175h-235l9 70h235l25 174h70zM45 22l10 70h540l-10 -70z" />
<glyph unicode="&#178;" horiz-adv-x="350" d="M36 335l4 26l140 148q17 18 32.5 39q15.5 21 15.5 47q0 22 -15 30.5q-15 8.5 -38 8.5q-18 0 -36.5 -8.5q-18.5 -8.5 -36.5 -22.5l-34 45q34 26 66.5 39q32.5 13 73.5 13q55 0 80 -24.5q25 -24.5 25 -56.5q0 -34 -19 -66q-19 -32 -45 -60l-91 -95h124l-9 -63z" />
<glyph unicode="&#179;" horiz-adv-x="354" d="M217 700q25 0 42 -6.5q17 -6.5 27.5 -16q10.5 -9.5 14.5 -22q4 -12.5 4 -24.5q0 -35 -25.5 -63.5q-25.5 -28.5 -68.5 -42.5q40 -4 62 -22.5q22 -18.5 22 -49.5q0 -23 -11.5 -45.5q-11.5 -22.5 -32.5 -40.5q-21 -18 -52 -29q-31 -11 -70 -11q-38 0 -63 11q-25 11 -38 20l34 50q20 -11 35.5 -16q15.5 -5 32.5 -5q12 0 26.5 3q14.5 3 27 10.5q12.5 7.5 21.5 19.5q9 12 9 30q0 19 -15 27q-15 8 -36 8q-7 0 -14.5 -1q-7.5 -1 -16.5 -4l-13 47q54 19 81.5 37.5q27.5 18.5 27.5 45.5q0 13 -9.5 21q-9.5 8 -27.5 8q-24 0 -43 -9q-19 -9 -38 -24l-31 42q29 23 61.5 37.5t76.5 14.5z" />
<glyph unicode="&#180;" horiz-adv-x="482" d="M318 544h-65l121 162l98 0z" />
<glyph unicode="&#181;" horiz-adv-x="550" d="M69 204l11 80h-61l10 70h61l48 346h187q40 0 77.5 -10.5q37.5 -10.5 66 -32.5q28.5 -22 45.5 -56q17 -34 17 -80q0 -65 -24 -110q-24 -45 -62 -73q-38 -28 -85 -41q-47 -13 -93 -13h-87l-11 -80h214l-10 -70h-214l-18 -134h-100l18 134h-60l9 70zM259 354q77 0 121.5 43q44.5 43 44.5 113q0 100 -130 100h-69l-36 -256z" />
<glyph unicode="&#182;" horiz-adv-x="545" d="M265 371q-41 0 -76.5 9.5q-35.5 9.5 -62 28.5q-26.5 19 -41.5 47q-15 28 -15 65q0 55 25.5 90q25.5 35 62 55q36.5 20 78 27q41.5 7 74.5 7h210l-117 -846h-70l105 756h-70l-105 -756l-70 0z" />
<glyph unicode="&#183;" horiz-adv-x="225" d="M50 277q0 26 18.5 44.5q18.5 18.5 44.5 18.5q26 0 44 -18.5q18 -18.5 18 -44.5q0 -26 -18 -44q-18 -18 -44 -18q-26 0 -44.5 18t-18.5 44z" />
<glyph unicode="&#184;" horiz-adv-x="235" d="M31 -163q9 -2 23.5 -3q14.5 -1 21.5 -1q30 0 42 12.5q12 12.5 12 24.5q0 24 -40 29l-29 3l50 98h71l-37 -66q26 -5 42.5 -19q16.5 -14 16.5 -36q0 -37 -34 -62.5q-34 -25.5 -88 -25.5q-14 0 -28 1q-14 1 -28 5z" />
<glyph unicode="&#185;" horiz-adv-x="310" d="M47 335l8 57h55l31 221l-57 -27l-19 41l127 73h38l-43 -308h55l-8 -57z" />
<glyph unicode="&#186;" horiz-adv-x="470" d="M208 324q-39 0 -71 12q-32 12 -53.5 36q-21.5 24 -31 59q-9.5 35 -2.5 82q6 46 25.5 81.5q19.5 35.5 47.5 59q28 23.5 63.5 35.5q35.5 12 74.5 12q39 0 71 -12q32 -12 53.5 -36q21.5 -24 31 -59.5q9.5 -35.5 2.5 -81.5q-6 -47 -25.5 -82q-19.5 -35 -47.5 -58.5q-28 -23.5 -63.5 -35.5q-35.5 -12 -74.5 -12zt0 0zM217 384q49 0 82 33q33 33 41 95q9 62 -15 95.5q-24 33.5 -73 33.5q-49 0 -82 -33q-33 -33 -41 -95q-9 -62 15 -95.5t73 -33.5z" />
<glyph unicode="&#187;" horiz-adv-x="436" d="M55 344l42 36l120 -150l-161 -150l-31 36l107 114zM163 422l50 39l183 -231l-248 -231l-38 39l177 192z" />
<glyph unicode="&#188;" horiz-adv-x="741" d="M82 0h-81l657 700h81zM82 335l8 57h55l31 221l-57 -27l-19 41l127 73h38l-43 -308h55l-8 -57zM632 82h-49l-11 -82h-76l11 82h-161l5 34l221 249h51l-32 -229h49zM515 136l15 112l-100 -112z" />
<glyph unicode="&#189;" horiz-adv-x="791" d="M454 0l3 26l141 148q17 18 32.5 39q15.5 21 15.5 47q0 22 -15.5 30.5q-15.5 8.5 -38.5 8.5q-18 0 -36 -8.5q-18 -8.5 -36 -22.5l-35 45q34 26 67 39q33 13 74 13q55 0 79.5 -24.5q24.5 -24.5 24.5 -56.5q0 -34 -18.5 -66q-18.5 -32 -44.5 -60l-91 -95h124l-9 -63zM82 0h-81l657 700h81zM82 335l8 57h55l31 221l-57 -27l-19 41l127 73h38l-43 -308h55l-8 -57z" />
<glyph unicode="&#190;" horiz-adv-x="751" d="M642 82h-49l-11 -82h-76l11 82h-161l5 34l221 249h51l-32 -229h49zM525 136l15 112l-100 -112zM92 0h-81l657 700h81zM240 700q25 0 42 -6.5q17 -6.5 27.5 -16q10.5 -9.5 14.5 -22q4 -12.5 4 -24.5q0 -35 -26 -63.5q-26 -28.5 -68 -42.5q39 -4 61 -22.5q22 -18.5 22 -47.5q0 -23 -11 -46q-11 -23 -32 -41q-21 -18 -52 -29.5q-31 -11.5 -71 -11.5q-38 0 -62.5 11q-24.5 11 -37.5 20l34 50q20 -11 35.5 -16q15.5 -5 32.5 -5q12 0 26.5 3q14.5 3 27 10.5q12.5 7.5 21.5 19.5q9 12 9 30q0 19 -15.5 27q-15.5 8 -36.5 8q-7 0 -14 -1q-7 -1 -16 -4l-13 47q53 19 81 38q28 19 28 45q0 13 -9.5 21q-9.5 8 -27.5 8q-24 0 -43 -9q-19 -9 -38 -24l-31 42q28 23 61 37.5t77 14.5z" />
<glyph unicode="&#191;" horiz-adv-x="406" d="M50 132q0 50 17.5 82.5q17.5 32.5 43.5 56q26 23.5 57 42q31 18.5 57 40q26 21.5 43.5 51q17.5 29.5 17.5 74.5q0 5 0 10.5q0 5.5 -1 11.5l60 0q14 -31 14 -62q0 -40 -16 -69q-16 -29 -40.5 -52q-24.5 -23 -52.5 -41q-28 -18 -52.5 -37q-24.5 -19 -40.5 -40.5q-16 -21.5 -16 -50.5q0 -18 8 -30q8 -12 20 -19.5q12 -7.5 26 -10.5q14 -3 26 -3q32 0 63.5 7.5q31.5 7.5 68.5 23.5l21 -84q-45 -18 -83 -27.5q-38 -9.5 -81 -9.5q-51 0 -82 14q-31 14 -48.5 34.5q-17.5 20.5 -23.5 44.5q-6 24 -6 44zt0 0zM396 638q0 -26 -18.5 -44.5q-18.5 -18.5 -44.5 -18.5q-26 0 -44 18.5q-18 18.5 -18 44.5q0 26 18 44q18 18 44 18q26 0 44.5 -18t18.5 -44z" />
<glyph unicode="&#192;" horiz-adv-x="629" d="M437 188h-271l-91 -188h-95l337 700h106l156 -700h-100zM209 278h208l-66 291zM265 934h98l61 -162l-65 0z" />
<glyph unicode="&#193;" horiz-adv-x="629" d="M437 188h-271l-91 -188h-95l337 700h106l156 -700h-100zM209 278h208l-66 291zM390 772h-65l121 162l98 0z" />
<glyph unicode="&#194;" horiz-adv-x="629" d="M437 188h-271l-91 -188h-95l337 700h106l156 -700h-100zM209 278h208l-66 291zM571 772h-65l-88 101l-116 -101h-65l141 162l98 0z" />
<glyph unicode="&#195;" horiz-adv-x="629" d="M437 188h-271l-91 -188h-95l337 700h106l156 -700h-100zM209 278h208l-66 291zM449 865q28 0 47.5 14q19.5 14 46.5 47l11 -64q-23 -30 -50.5 -48.5q-27.5 -18.5 -65.5 -18.5q-24 0 -38.5 8q-14.5 8 -26.5 17q-12 9 -23.5 17q-11.5 8 -29.5 8q-28 0 -47.5 -14q-19.5 -14 -46.5 -47l-11 64q23 30 50.5 48.5q27.5 18.5 65.5 18.5q24 0 38.5 -8q14.5 -8 26.5 -17q12 -9 23.5 -17t29.5 -8z" />
<glyph unicode="&#196;" horiz-adv-x="629" d="M437 188h-271l-91 -188h-95l337 700h106l156 -700h-100zM209 278h208l-66 291zM491 790q-23 0 -40.5 17q-17.5 17 -17.5 40q0 25 17.5 42.5q17.5 17.5 40.5 17.5q25 0 42 -17.5q17 -17.5 17 -42.5q0 -23 -17 -40q-17 -17 -42 -17zt0 0zM296 790q-23 0 -40 17q-17 17 -17 40q0 25 17 42.5q17 17.5 40 17.5q26 0 43 -17.5q17 -17.5 17 -42.5q0 -23 -17 -40t-43 -17z" />
<glyph unicode="&#197;" horiz-adv-x="629" d="M437 188h-271l-91 -188h-95l337 700h106l156 -700h-100zM209 278h208l-66 291zM313 837q0 18 7 34.5q7 16.5 20 29.5q13 13 29.5 21q16.5 8 36.5 8q31 0 50.5 -19.5q19.5 -19.5 19.5 -49.5q0 -19 -8 -35.5q-8 -16.5 -20.5 -29q-12.5 -12.5 -29.5 -20q-17 -7.5 -35 -7.5q-31 0 -50.5 19.5q-19.5 19.5 -19.5 48.5zt0 0zM399 888q-17 0 -31 -13q-14 -13 -14 -31q0 -14 9.5 -23q9.5 -9 24.5 -9q17 0 30 13q13 13 13 31q0 14 -9 23t-23 9z" />
<glyph unicode="&#198;" horiz-adv-x="1124" d="M812 317h-266l14 -227h255l-12 -90h-341l-11 188h-271l-118 -188h-95l437 700h485l-12 -90h-347l10 -203h284zM236 278h209l-17 305z" />
<glyph unicode="&#199;" horiz-adv-x="659" d="M213 -163q9 -2 23.5 -3q14.5 -1 21.5 -1q30 0 42 12.5q12 12.5 12 24.5q0 24 -40 29l-29 3l44 86q-63 7 -110.5 30q-47.5 23 -79 60q-31.5 37 -47 87q-15.5 50 -15.5 110q0 91 27 171q27 80 79 140q52 60 128 94.5q76 34.5 173 34.5q65 0 120 -11.5q55 -11.5 97 -31.5l-47 -87q-44 18 -85.5 29q-41.5 11 -96.5 11q-57 0 -108.5 -23.5q-51.5 -23.5 -90.5 -67q-39 -43.5 -62 -105.5q-23 -62 -23 -139q0 -53 15 -93.5q15 -40.5 42.5 -67.5q27.5 -27 65.5 -40.5q38 -13.5 84 -13.5q57 0 112.5 25q55.5 25 105.5 56l33 -77q-37 -24 -77 -44q-35 -17 -79.5 -32.5q-44.5 -15.5 -92.5 -17.5l-28 -51q26 -5 42.5 -19q16.5 -14 16.5 -36q0 -37 -34 -62.5q-34 -25.5 -88 -25.5q-14 0 -28 1q-14 1 -28 5z" />
<glyph unicode="&#200;" horiz-adv-x="495" d="M418 317h-234l-32 -227h269l-12 -90h-369l97 700h358l-12 -90h-258l-29 -203h234zM248 934h98l61 -162l-65 0z" />
<glyph unicode="&#201;" horiz-adv-x="495" d="M418 317h-234l-32 -227h269l-12 -90h-369l97 700h358l-12 -90h-258l-29 -203h234zM323 772h-65l121 162l98 0z" />
<glyph unicode="&#202;" horiz-adv-x="495" d="M418 317h-234l-32 -227h269l-12 -90h-369l97 700h358l-12 -90h-258l-29 -203h234zM504 772h-65l-88 101l-116 -101h-65l141 162l98 0z" />
<glyph unicode="&#203;" horiz-adv-x="495" d="M418 317h-234l-32 -227h269l-12 -90h-369l97 700h358l-12 -90h-258l-29 -203h234zM444 790q-23 0 -40.5 17q-17.5 17 -17.5 40q0 25 17.5 42.5q17.5 17.5 40.5 17.5q25 0 42 -17.5q17 -17.5 17 -42.5q0 -23 -17 -40q-17 -17 -42 -17zt0 0zM249 790q-23 0 -40 17q-17 17 -17 40q0 25 17 42.5q17 17.5 40 17.5q26 0 43 -17.5q17 -17.5 17 -42.5q0 -23 -17 -40t-43 -17z" />
<glyph unicode="&#204;" horiz-adv-x="277" d="M40 0l97 700h100l-97 -700zM99 934h98l61 -162l-65 0z" />
<glyph unicode="&#205;" horiz-adv-x="277" d="M40 0l97 700h100l-97 -700zM204 772h-65l121 162l98 0z" />
<glyph unicode="&#206;" horiz-adv-x="277" d="M40 0l97 700h100l-97 -700zM306 772h-65l-88 101l-116 -101h-65l141 162l98 0z" />
<glyph unicode="&#207;" horiz-adv-x="277" d="M122 790q-19 0 -31.5 14.5q-12.5 14.5 -12.5 34.5q0 13 5.5 25.5q5.5 12.5 14.5 22q9 9.5 19.5 15q10.5 5.5 21.5 5.5q19 0 31 -14.5q12 -14.5 12 -35.5q0 -26 -18 -46.5q-18 -20.5 -42 -20.5zt0 0zM251 790q-19 0 -31.5 14.5q-12.5 14.5 -12.5 34.5q0 13 5.5 25.5q5.5 12.5 14.5 22q9 9.5 19.5 15q10.5 5.5 21.5 5.5q19 0 31 -14.5q12 -14.5 12 -35.5q0 -26 -18 -46.5q-18 -20.5 -42 -20.5zt0 0zM26 0l98 700h100l-98 -700z" />
<glyph unicode="&#208;" horiz-adv-x="666" d="M351 700q78 0 131.5 -24q53.5 -24 86 -64q32.5 -40 47 -91q14.5 -51 14.5 -106q0 -68 -21 -141q-21 -73 -66 -134q-45 -61 -116.5 -100.5q-71.5 -39.5 -172.5 -39.5h-213l44 315h-60l9 70h60l44 315zM185 315l-32 -225h98q136 0 203 87q67 87 67 242q0 92 -45.5 141.5q-45.5 49.5 -151.5 49.5h-98l-32 -225h100l-9 -70z" />
<glyph unicode="&#209;" horiz-adv-x="747" d="M610 0h-70l-339 510l-71 -510h-90l97 700h70l339 -511l71 511h90zM508 865q28 0 47.5 14q19.5 14 46.5 47l11 -64q-23 -30 -50.5 -48.5q-27.5 -18.5 -65.5 -18.5q-24 0 -38.5 8q-14.5 8 -26.5 17q-12 9 -23.5 17q-11.5 8 -29.5 8q-28 0 -47.5 -14q-19.5 -14 -46.5 -47l-11 64q23 30 50.5 48.5q27.5 18.5 65.5 18.5q24 0 38.5 -8q14.5 -8 26.5 -17q12 -9 23.5 -17t29.5 -8z" />
<glyph unicode="&#210;" horiz-adv-x="753" d="M326 -15q-72 0 -126 23.5q-54 23.5 -91 64q-37 40.5 -55.5 95.5q-18.5 55 -18.5 118q0 84 28 161.5q28 77.5 79 137q51 59.5 123.5 95q72.5 35.5 161.5 35.5q72 0 126.5 -23.5q54.5 -23.5 91 -64.5q36.5 -41 55 -96.5q18.5 -55.5 18.5 -118.5q0 -83 -28 -160.5q-28 -77.5 -79.5 -136.5q-51.5 -59 -124 -94.5q-72.5 -35.5 -160.5 -35.5zt0 0zM338 75q55 0 105.5 22.5q50.5 22.5 89.5 65q39 42.5 62 104q23 61.5 23 138.5q0 52 -14.5 93q-14.5 41 -41.5 69q-27 28 -64.5 43q-37.5 15 -82.5 15q-55 0 -105.5 -23q-50.5 -23 -89 -65.5q-38.5 -42.5 -61.5 -104q-23 -61.5 -23 -139.5q0 -52 14.5 -92.5q14.5 -40.5 41.5 -68.5q27 -28 64 -42.5q37 -14.5 82 -14.5zt0 0zM397 934h98l61 -162l-65 0z" />
<glyph unicode="&#211;" horiz-adv-x="753" d="M326 -15q-72 0 -126 23.5q-54 23.5 -91 64q-37 40.5 -55.5 95.5q-18.5 55 -18.5 118q0 84 28 161.5q28 77.5 79 137q51 59.5 123.5 95q72.5 35.5 161.5 35.5q72 0 126.5 -23.5q54.5 -23.5 91 -64.5q36.5 -41 55 -96.5q18.5 -55.5 18.5 -118.5q0 -83 -28 -160.5q-28 -77.5 -79.5 -136.5q-51.5 -59 -124 -94.5q-72.5 -35.5 -160.5 -35.5zt0 0zM338 75q55 0 105.5 22.5q50.5 22.5 89.5 65q39 42.5 62 104q23 61.5 23 138.5q0 52 -14.5 93q-14.5 41 -41.5 69q-27 28 -64.5 43q-37.5 15 -82.5 15q-55 0 -105.5 -23q-50.5 -23 -89 -65.5q-38.5 -42.5 -61.5 -104q-23 -61.5 -23 -139.5q0 -52 14.5 -92.5q14.5 -40.5 41.5 -68.5q27 -28 64 -42.5q37 -14.5 82 -14.5zt0 0zM432 772h-65l121 162l98 0z" />
<glyph unicode="&#212;" horiz-adv-x="753" d="M326 -15q-72 0 -126 23.5q-54 23.5 -91 64q-37 40.5 -55.5 95.5q-18.5 55 -18.5 118q0 84 28 161.5q28 77.5 79 137q51 59.5 123.5 95q72.5 35.5 161.5 35.5q72 0 126.5 -23.5q54.5 -23.5 91 -64.5q36.5 -41 55 -96.5q18.5 -55.5 18.5 -118.5q0 -83 -28 -160.5q-28 -77.5 -79.5 -136.5q-51.5 -59 -124 -94.5q-72.5 -35.5 -160.5 -35.5zt0 0zM338 75q55 0 105.5 22.5q50.5 22.5 89.5 65q39 42.5 62 104q23 61.5 23 138.5q0 52 -14.5 93q-14.5 41 -41.5 69q-27 28 -64.5 43q-37.5 15 -82.5 15q-55 0 -105.5 -23q-50.5 -23 -89 -65.5q-38.5 -42.5 -61.5 -104q-23 -61.5 -23 -139.5q0 -52 14.5 -92.5q14.5 -40.5 41.5 -68.5q27 -28 64 -42.5q37 -14.5 82 -14.5zt0 0zM643 772h-65l-88 101l-116 -101h-65l141 162l98 0z" />
<glyph unicode="&#213;" horiz-adv-x="753" d="M326 -15q-72 0 -126 23.5q-54 23.5 -91 64q-37 40.5 -55.5 95.5q-18.5 55 -18.5 118q0 84 28 161.5q28 77.5 79 137q51 59.5 123.5 95q72.5 35.5 161.5 35.5q72 0 126.5 -23.5q54.5 -23.5 91 -64.5q36.5 -41 55 -96.5q18.5 -55.5 18.5 -118.5q0 -83 -28 -160.5q-28 -77.5 -79.5 -136.5q-51.5 -59 -124 -94.5q-72.5 -35.5 -160.5 -35.5zt0 0zM338 75q55 0 105.5 22.5q50.5 22.5 89.5 65q39 42.5 62 104q23 61.5 23 138.5q0 52 -14.5 93q-14.5 41 -41.5 69q-27 28 -64.5 43q-37.5 15 -82.5 15q-55 0 -105.5 -23q-50.5 -23 -89 -65.5q-38.5 -42.5 -61.5 -104q-23 -61.5 -23 -139.5q0 -52 14.5 -92.5q14.5 -40.5 41.5 -68.5q27 -28 64 -42.5q37 -14.5 82 -14.5zt0 0zM531 865q28 0 47.5 14q19.5 14 46.5 47l11 -64q-23 -30 -50.5 -48.5q-27.5 -18.5 -65.5 -18.5q-24 0 -38.5 8q-14.5 8 -26.5 17q-12 9 -23.5 17q-11.5 8 -29.5 8q-28 0 -47.5 -14q-19.5 -14 -46.5 -47l-11 64q23 30 50.5 48.5q27.5 18.5 65.5 18.5q24 0 38.5 -8q14.5 -8 26.5 -17q12 -9 23.5 -17t29.5 -8z" />
<glyph unicode="&#214;" horiz-adv-x="753" d="M326 -15q-72 0 -126 23.5q-54 23.5 -91 64q-37 40.5 -55.5 95.5q-18.5 55 -18.5 118q0 84 28 161.5q28 77.5 79 137q51 59.5 123.5 95q72.5 35.5 161.5 35.5q72 0 126.5 -23.5q54.5 -23.5 91 -64.5q36.5 -41 55 -96.5q18.5 -55.5 18.5 -118.5q0 -83 -28 -160.5q-28 -77.5 -79.5 -136.5q-51.5 -59 -124 -94.5q-72.5 -35.5 -160.5 -35.5zt0 0zM338 75q55 0 105.5 22.5q50.5 22.5 89.5 65q39 42.5 62 104q23 61.5 23 138.5q0 52 -14.5 93q-14.5 41 -41.5 69q-27 28 -64.5 43q-37.5 15 -82.5 15q-55 0 -105.5 -23q-50.5 -23 -89 -65.5q-38.5 -42.5 -61.5 -104q-23 -61.5 -23 -139.5q0 -52 14.5 -92.5q14.5 -40.5 41.5 -68.5q27 -28 64 -42.5q37 -14.5 82 -14.5zt0 0zM553 790q-23 0 -40.5 17q-17.5 17 -17.5 40q0 25 17.5 42.5q17.5 17.5 40.5 17.5q25 0 42 -17.5q17 -17.5 17 -42.5q0 -23 -17 -40q-17 -17 -42 -17zt0 0zM358 790q-23 0 -40 17q-17 17 -17 40q0 25 17 42.5q17 17.5 40 17.5q26 0 43 -17.5q17 -17.5 17 -42.5q0 -23 -17 -40t-43 -17z" />
<glyph unicode="&#215;" horiz-adv-x="640" d="M313 245l-224 -197l-43 50l225 196l-170 196l57 50l168 -197l224 197l43 -50l-224 -196l169 -196l-57 -50z" />
<glyph unicode="&#216;" horiz-adv-x="753" d="M326 -15q-47 0 -86 10.5q-39 10.5 -71 28.5l-18 -24h-72l43 58q-44 42 -65.5 100.5q-21.5 58.5 -21.5 127.5q0 84 28 161.5q28 77.5 79 137q51 59.5 123.5 95q72.5 35.5 161.5 35.5q47 0 85.5 -10q38.5 -10 70.5 -29l18 24h72l-44 -58q45 -42 67 -101.5q22 -59.5 22 -128.5q0 -83 -28 -160.5q-28 -77.5 -79.5 -136.5q-51.5 -59 -124 -94.5q-72.5 -35.5 -160.5 -35.5zt0 0zM338 75q55 0 105.5 22.5q50.5 22.5 89.5 65q39 42.5 62 104q23 61.5 23 138.5q0 96 -50 155l-340 -457q48 -28 110 -28zt0 0zM136 293q0 -48 12.5 -86q12.5 -38 35.5 -66l340 456q-48 28 -109 28q-55 0 -105.5 -23q-50.5 -23 -89 -65.5q-38.5 -42.5 -61.5 -104t-23 -139.5z" />
<glyph unicode="&#217;" horiz-adv-x="713" d="M319 75q46 0 80 12.5q34 12.5 57 34.5q23 22 35.5 51.5q12.5 29.5 17.5 62.5l64 464h100l-64 -464q-9 -62 -34.5 -109q-25.5 -47 -64.5 -78.5q-39 -31.5 -90.5 -47.5q-51.5 -16 -112.5 -16q-110 0 -173.5 51.5q-63.5 51.5 -63.5 152.5q0 11 1 22.5q1 11.5 3 24.5l64 464h100l-64 -464q-3 -18 -3 -34q0 -27 8 -50.5q8 -23.5 25.5 -40.5q17.5 -17 45.5 -26.5q28 -9.5 69 -9.5zt0 0zM337 934h98l61 -162l-65 0z" />
<glyph unicode="&#218;" horiz-adv-x="713" d="M319 75q46 0 80 12.5q34 12.5 57 34.5q23 22 35.5 51.5q12.5 29.5 17.5 62.5l64 464h100l-64 -464q-9 -62 -34.5 -109q-25.5 -47 -64.5 -78.5q-39 -31.5 -90.5 -47.5q-51.5 -16 -112.5 -16q-110 0 -173.5 51.5q-63.5 51.5 -63.5 152.5q0 11 1 22.5q1 11.5 3 24.5l64 464h100l-64 -464q-3 -18 -3 -34q0 -27 8 -50.5q8 -23.5 25.5 -40.5q17.5 -17 45.5 -26.5q28 -9.5 69 -9.5zt0 0zM412 772h-65l121 162l98 0z" />
<glyph unicode="&#219;" horiz-adv-x="713" d="M319 75q46 0 80 12.5q34 12.5 57 34.5q23 22 35.5 51.5q12.5 29.5 17.5 62.5l64 464h100l-64 -464q-9 -62 -34.5 -109q-25.5 -47 -64.5 -78.5q-39 -31.5 -90.5 -47.5q-51.5 -16 -112.5 -16q-110 0 -173.5 51.5q-63.5 51.5 -63.5 152.5q0 11 1 22.5q1 11.5 3 24.5l64 464h100l-64 -464q-3 -18 -3 -34q0 -27 8 -50.5q8 -23.5 25.5 -40.5q17.5 -17 45.5 -26.5q28 -9.5 69 -9.5zt0 0zM583 772h-65l-88 101l-116 -101h-65l141 162l98 0z" />
<glyph unicode="&#220;" horiz-adv-x="713" d="M319 75q46 0 80 12.5q34 12.5 57 34.5q23 22 35.5 51.5q12.5 29.5 17.5 62.5l64 464h100l-64 -464q-9 -62 -34.5 -109q-25.5 -47 -64.5 -78.5q-39 -31.5 -90.5 -47.5q-51.5 -16 -112.5 -16q-110 0 -173.5 51.5q-63.5 51.5 -63.5 152.5q0 11 1 22.5q1 11.5 3 24.5l64 464h100l-64 -464q-3 -18 -3 -34q0 -27 8 -50.5q8 -23.5 25.5 -40.5q17.5 -17 45.5 -26.5q28 -9.5 69 -9.5zt0 0zM513 790q-23 0 -40.5 17q-17.5 17 -17.5 40q0 25 17.5 42.5q17.5 17.5 40.5 17.5q25 0 42 -17.5q17 -17.5 17 -42.5q0 -23 -17 -40q-17 -17 -42 -17zt0 0zM318 790q-23 0 -40 17q-17 17 -17 40q0 25 17 42.5q17 17.5 40 17.5q26 0 43 -17.5q17 -17.5 17 -42.5q0 -23 -17 -40t-43 -17z" />
<glyph unicode="&#221;" horiz-adv-x="598" d="M299 0h-99l35 255l-172 445h111l130 -340l226 340h101l-297 -447zM355 772h-65l121 162l98 0z" />
<glyph unicode="&#222;" horiz-adv-x="540" d="M140 0h-100l99 715h100l-19 -142h87q40 0 77 -10.5q37 -10.5 65.5 -32.5q28.5 -22 45.5 -55.5q17 -33.5 17 -79.5q0 -65 -24.5 -111.5q-24.5 -46.5 -62.5 -77q-38 -30.5 -85 -45q-47 -14.5 -93 -14.5h-87zM173 237h69q78 0 121 37q43 37 43 109q0 100 -130 100l-69 0z" />
<glyph unicode="&#223;" horiz-adv-x="518" d="M91 501q6 44 24 83q18 39 47 68q29 29 68 46q39 17 88 17q51 0 82.5 -12q31.5 -12 49 -31q17.5 -19 23.5 -43q6 -24 6 -47q0 -39 -14.5 -64.5q-14.5 -25.5 -36.5 -42.5q-22 -17 -47 -28q-25 -11 -47 -23q-22 -12 -36.5 -27q-14.5 -15 -14.5 -39q0 -18 14 -31q14 -13 35 -25.5q21 -12.5 45.5 -25.5q24.5 -13 45.5 -30.5q21 -17.5 35 -41.5q14 -24 14 -58q0 -40 -15.5 -70q-15.5 -30 -41.5 -50.5q-26 -20.5 -62 -30.5q-36 -10 -76 -10q-37 0 -75.5 17q-38.5 17 -68.5 49l52 66q15 -15 27 -25.5q12 -10.5 24 -17q12 -6.5 24.5 -9.5q12.5 -3 28.5 -3q38 0 65.5 20q27.5 20 27.5 55q0 22 -13 36.5q-13 14.5 -32.5 26q-19.5 11.5 -42.5 22.5q-23 11 -42.5 26.5q-19.5 15.5 -32.5 38q-13 22.5 -13 56.5q0 43 14 69q14 26 35 41.5q21 15.5 46 25.5q25 10 46 22.5q21 12.5 35 30.5q14 18 14 50q0 11 -3.5 22q-3.5 11 -13 20q-9.5 9 -26.5 14.5q-17 5.5 -45 5.5q-20 0 -40.5 -7q-20.5 -7 -37.5 -23.5q-17 -16.5 -30 -44.5q-13 -28 -19 -69l-69 -500l-91 0z" />
<glyph unicode="&#224;" horiz-adv-x="495" d="M321 70q-44 -42 -88 -61.5q-44 -19.5 -88 -19.5q-52 0 -86 34q-34 34 -34 87q0 55 23 89.5q23 34.5 66 54q43 19.5 103.5 28q60.5 8.5 134.5 11.5q3 24 3 42q0 27 -7 42q-7 15 -19 22q-12 7 -27.5 8q-15.5 1 -33.5 1q-17 0 -37.5 -3q-20.5 -3 -42 -8.5q-21.5 -5.5 -42 -12q-20.5 -6.5 -36.5 -12.5l-15 77q17 6 41 13q24 7 51.5 13q27.5 6 56 9.5q28.5 3.5 55.5 3.5q29 0 55.5 -6.5q26.5 -6.5 46.5 -23q20 -16.5 32 -45q12 -28.5 12 -72.5q0 -12 -1 -25.5q-1 -13.5 -3 -28.5l-40 -287h-90zM188 66q16 0 33.5 7.5q17.5 7.5 36 19q18.5 11.5 37.5 26.5q19 15 37 30l10 74q-45 -2 -86 -5q-41 -3 -72 -12.5q-31 -9.5 -49 -27.5q-18 -18 -18 -49q0 -10 4.5 -21q4.5 -11 13.5 -20.5q9 -9.5 22.5 -15.5q13.5 -6 30.5 -6zt0 0zM178 706h98l61 -162l-65 0z" />
<glyph unicode="&#225;" horiz-adv-x="495" d="M321 70q-44 -42 -88 -61.5q-44 -19.5 -88 -19.5q-52 0 -86 34q-34 34 -34 87q0 55 23 89.5q23 34.5 66 54q43 19.5 103.5 28q60.5 8.5 134.5 11.5q3 24 3 42q0 27 -7 42q-7 15 -19 22q-12 7 -27.5 8q-15.5 1 -33.5 1q-17 0 -37.5 -3q-20.5 -3 -42 -8.5q-21.5 -5.5 -42 -12q-20.5 -6.5 -36.5 -12.5l-15 77q17 6 41 13q24 7 51.5 13q27.5 6 56 9.5q28.5 3.5 55.5 3.5q29 0 55.5 -6.5q26.5 -6.5 46.5 -23q20 -16.5 32 -45q12 -28.5 12 -72.5q0 -12 -1 -25.5q-1 -13.5 -3 -28.5l-40 -287h-90zM188 66q16 0 33.5 7.5q17.5 7.5 36 19q18.5 11.5 37.5 26.5q19 15 37 30l10 74q-45 -2 -86 -5q-41 -3 -72 -12.5q-31 -9.5 -49 -27.5q-18 -18 -18 -49q0 -10 4.5 -21q4.5 -11 13.5 -20.5q9 -9.5 22.5 -15.5q13.5 -6 30.5 -6zt0 0zM273 544h-65l121 162l98 0z" />
<glyph unicode="&#226;" horiz-adv-x="495" d="M321 70q-44 -42 -88 -61.5q-44 -19.5 -88 -19.5q-52 0 -86 34q-34 34 -34 87q0 55 23 89.5q23 34.5 66 54q43 19.5 103.5 28q60.5 8.5 134.5 11.5q3 24 3 42q0 27 -7 42q-7 15 -19 22q-12 7 -27.5 8q-15.5 1 -33.5 1q-17 0 -37.5 -3q-20.5 -3 -42 -8.5q-21.5 -5.5 -42 -12q-20.5 -6.5 -36.5 -12.5l-15 77q17 6 41 13q24 7 51.5 13q27.5 6 56 9.5q28.5 3.5 55.5 3.5q29 0 55.5 -6.5q26.5 -6.5 46.5 -23q20 -16.5 32 -45q12 -28.5 12 -72.5q0 -12 -1 -25.5q-1 -13.5 -3 -28.5l-40 -287h-90zM188 66q16 0 33.5 7.5q17.5 7.5 36 19q18.5 11.5 37.5 26.5q19 15 37 30l10 74q-45 -2 -86 -5q-41 -3 -72 -12.5q-31 -9.5 -49 -27.5q-18 -18 -18 -49q0 -10 4.5 -21q4.5 -11 13.5 -20.5q9 -9.5 22.5 -15.5q13.5 -6 30.5 -6zt0 0zM464 544h-65l-88 101l-116 -101h-65l141 162l98 0z" />
<glyph unicode="&#227;" horiz-adv-x="495" d="M321 70q-44 -42 -88 -61.5q-44 -19.5 -88 -19.5q-52 0 -86 34q-34 34 -34 87q0 55 23 89.5q23 34.5 66 54q43 19.5 103.5 28q60.5 8.5 134.5 11.5q3 24 3 42q0 27 -7 42q-7 15 -19 22q-12 7 -27.5 8q-15.5 1 -33.5 1q-17 0 -37.5 -3q-20.5 -3 -42 -8.5q-21.5 -5.5 -42 -12q-20.5 -6.5 -36.5 -12.5l-15 77q17 6 41 13q24 7 51.5 13q27.5 6 56 9.5q28.5 3.5 55.5 3.5q29 0 55.5 -6.5q26.5 -6.5 46.5 -23q20 -16.5 32 -45q12 -28.5 12 -72.5q0 -12 -1 -25.5q-1 -13.5 -3 -28.5l-40 -287h-90zM188 66q16 0 33.5 7.5q17.5 7.5 36 19q18.5 11.5 37.5 26.5q19 15 37 30l10 74q-45 -2 -86 -5q-41 -3 -72 -12.5q-31 -9.5 -49 -27.5q-18 -18 -18 -49q0 -10 4.5 -21q4.5 -11 13.5 -20.5q9 -9.5 22.5 -15.5q13.5 -6 30.5 -6zt0 0zM362 637q28 0 47.5 14q19.5 14 46.5 47l11 -64q-23 -30 -50.5 -48.5q-27.5 -18.5 -65.5 -18.5q-24 0 -38.5 8q-14.5 8 -26.5 17q-12 9 -23.5 17q-11.5 8 -29.5 8q-28 0 -47.5 -14q-19.5 -14 -46.5 -47l-11 64q23 30 50.5 48.5q27.5 18.5 65.5 18.5q24 0 38.5 -8q14.5 -8 26.5 -17q12 -9 23.5 -17t29.5 -8z" />
<glyph unicode="&#228;" horiz-adv-x="495" d="M321 70q-44 -42 -88 -61.5q-44 -19.5 -88 -19.5q-52 0 -86 34q-34 34 -34 87q0 55 23 89.5q23 34.5 66 54q43 19.5 103.5 28q60.5 8.5 134.5 11.5q3 24 3 42q0 27 -7 42q-7 15 -19 22q-12 7 -27.5 8q-15.5 1 -33.5 1q-17 0 -37.5 -3q-20.5 -3 -42 -8.5q-21.5 -5.5 -42 -12q-20.5 -6.5 -36.5 -12.5l-15 77q17 6 41 13q24 7 51.5 13q27.5 6 56 9.5q28.5 3.5 55.5 3.5q29 0 55.5 -6.5q26.5 -6.5 46.5 -23q20 -16.5 32 -45q12 -28.5 12 -72.5q0 -12 -1 -25.5q-1 -13.5 -3 -28.5l-40 -287h-90zM188 66q16 0 33.5 7.5q17.5 7.5 36 19q18.5 11.5 37.5 26.5q19 15 37 30l10 74q-45 -2 -86 -5q-41 -3 -72 -12.5q-31 -9.5 -49 -27.5q-18 -18 -18 -49q0 -10 4.5 -21q4.5 -11 13.5 -20.5q9 -9.5 22.5 -15.5q13.5 -6 30.5 -6zt0 0zM394 562q-23 0 -40.5 17q-17.5 17 -17.5 40q0 25 17.5 42.5q17.5 17.5 40.5 17.5q25 0 42 -17.5q17 -17.5 17 -42.5q0 -23 -17 -40q-17 -17 -42 -17zt0 0zM199 562q-23 0 -40 17q-17 17 -17 40q0 25 17 42.5q17 17.5 40 17.5q26 0 43 -17.5q17 -17.5 17 -42.5q0 -23 -17 -40t-43 -17z" />
<glyph unicode="&#229;" horiz-adv-x="495" d="M321 70q-44 -42 -88 -61.5q-44 -19.5 -88 -19.5q-52 0 -86 34q-34 34 -34 87q0 55 23 89.5q23 34.5 66 54q43 19.5 103.5 28q60.5 8.5 134.5 11.5q3 24 3 42q0 27 -7 42q-7 15 -19 22q-12 7 -27.5 8q-15.5 1 -33.5 1q-17 0 -37.5 -3q-20.5 -3 -42 -8.5q-21.5 -5.5 -42 -12q-20.5 -6.5 -36.5 -12.5l-15 77q17 6 41 13q24 7 51.5 13q27.5 6 56 9.5q28.5 3.5 55.5 3.5q29 0 55.5 -6.5q26.5 -6.5 46.5 -23q20 -16.5 32 -45q12 -28.5 12 -72.5q0 -12 -1 -25.5q-1 -13.5 -3 -28.5l-40 -287h-90zM188 66q16 0 33.5 7.5q17.5 7.5 36 19q18.5 11.5 37.5 26.5q19 15 37 30l10 74q-45 -2 -86 -5q-41 -3 -72 -12.5q-31 -9.5 -49 -27.5q-18 -18 -18 -49q0 -10 4.5 -21q4.5 -11 13.5 -20.5q9 -9.5 22.5 -15.5q13.5 -6 30.5 -6zt0 0zM216 609q0 18 7 34.5q7 16.5 20 29.5q13 13 29.5 21q16.5 8 36.5 8q31 0 50.5 -19.5q19.5 -19.5 19.5 -49.5q0 -19 -8 -35.5q-8 -16.5 -20.5 -29q-12.5 -12.5 -29.5 -20q-17 -7.5 -35 -7.5q-31 0 -50.5 19.5q-19.5 19.5 -19.5 48.5zt0 0zM302 660q-17 0 -31 -13q-14 -13 -14 -31q0 -14 9.5 -23q9.5 -9 24.5 -9q17 0 30 13q13 13 13 31q0 14 -9 23t-23 9z" />
<glyph unicode="&#230;" horiz-adv-x="996" d="M290 488q44 0 80 -17.5q36 -17.5 53 -59.5q37 41 79.5 59q42.5 18 84.5 18q85 0 128.5 -45q43.5 -45 43.5 -140q0 -17 -1.5 -34q-1.5 -17 -3.5 -36l-330 0q-2 -11 -2 -20q0 -9 0 -18q0 -36 10 -60.5q10 -24.5 28 -39.5q18 -15 43.5 -21q25.5 -6 57.5 -6q16 0 35.5 5.5q19.5 5.5 39 14q19.5 8.5 37.5 18.5q18 10 31 19l28 -65q-17 -11 -38 -24q-21 -13 -46.5 -24.5q-25.5 -11.5 -54 -19q-28.5 -7.5 -59.5 -7.5q-60 0 -104.5 24.5q-44.5 24.5 -69.5 76.5q-28 -27 -58 -45.5q-30 -18.5 -58.5 -30q-28.5 -11.5 -54 -16.5q-25.5 -5 -44.5 -5q-59 0 -94 25q-35 25 -35 78q0 55 24.5 92q24.5 37 68 60q43.5 23 103 34.5q59.5 11.5 130.5 14.5q3 24 3 42q0 27 -7 42q-7 15 -19 22q-12 7 -27.5 8q-15.5 1 -33.5 1q-17 0 -37.5 -3q-20.5 -3 -41.5 -8.5q-21 -5.5 -41.5 -12q-20.5 -6.5 -37.5 -12.5l-15 77q17 6 41 13q24 7 51.5 13q27.5 6 56.5 9.5q29 3.5 56 3.5zt0 0zM169 66q16 0 36.5 6q20.5 6 42.5 17q22 11 44 26.5q22 15.5 40 34.5q-3 13 -3 32q0 9 1 19q1 10 3 22q-47 -2 -87.5 -8q-40.5 -6 -71.5 -18.5q-31 -12.5 -48.5 -33.5q-17.5 -21 -17.5 -53q0 -20 13.5 -32q13.5 -12 47.5 -12zt0 0zM578 408q-43 0 -80 -24q-37 -24 -65 -86l243 0q0 5 0.5 9.5q0.5 4.5 0.5 9.5q0 42 -21 66.5t-78 24.5z" />
<glyph unicode="&#231;" horiz-adv-x="491" d="M129 -163q9 -2 23.5 -3q14.5 -1 21.5 -1q30 0 42 12.5q12 12.5 12 24.5q0 24 -40 29l-29 3l43 85q-35 4 -65 17.5q-30 13.5 -52.5 37.5q-22.5 24 -35.5 59q-13 35 -13 83q0 79 27 136.5q27 57.5 69 95q42 37.5 92 55q50 17.5 96 17.5q38 0 78 -6q40 -6 79 -17l-31 -77q-36 10 -67 15.5q-31 5.5 -60 5.5q-39 0 -72.5 -12q-33.5 -12 -58.5 -37.5q-25 -25.5 -39.5 -65.5q-14.5 -40 -14.5 -96q0 -67 36 -98.5q36 -31.5 100 -31.5q32 0 68.5 18.5q36.5 18.5 71.5 38.5l31 -66q-12 -8 -30 -18.5q-18 -10.5 -40 -21q-22 -10.5 -47 -19q-25 -8.5 -51 -12.5l-30 -54q26 -5 42.5 -19q16.5 -14 16.5 -36q0 -37 -34 -62.5q-34 -25.5 -88 -25.5q-14 0 -28 1q-14 1 -28 5z" />
<glyph unicode="&#232;" horiz-adv-x="501" d="M36 191q0 51 16 104q16 53 47 95.5q31 42.5 77 70q46 27.5 107 27.5q92 0 137 -45q45 -45 45 -140q0 -17 -1.5 -34q-1.5 -17 -3.5 -36l-328 0q-3 -21 -3 -39q0 -36 9.5 -60.5q9.5 -24.5 27.5 -39q18 -14.5 43.5 -20.5q25.5 -6 57.5 -6q16 0 35.5 5.5q19.5 5.5 39 14q19.5 8.5 37.5 18.5q18 10 31 19l28 -65q-17 -11 -38 -24q-21 -13 -46.5 -24.5q-25.5 -11.5 -54 -19q-28.5 -7.5 -59.5 -7.5q-41 0 -78 13q-37 13 -65 39q-28 26 -44.5 64.5q-16.5 38.5 -16.5 89.5zt0 0zM284 408q-43 0 -76 -24.5q-33 -24.5 -60 -85.5l234 0q1 5 1 9.5q0 4.5 0 9.5q0 42 -21 66.5q-21 24.5 -78 24.5zt0 0zM181 706h98l61 -162l-65 0z" />
<glyph unicode="&#233;" horiz-adv-x="501" d="M36 191q0 51 16 104q16 53 47 95.5q31 42.5 77 70q46 27.5 107 27.5q92 0 137 -45q45 -45 45 -140q0 -17 -1.5 -34q-1.5 -17 -3.5 -36l-328 0q-3 -21 -3 -39q0 -36 9.5 -60.5q9.5 -24.5 27.5 -39q18 -14.5 43.5 -20.5q25.5 -6 57.5 -6q16 0 35.5 5.5q19.5 5.5 39 14q19.5 8.5 37.5 18.5q18 10 31 19l28 -65q-17 -11 -38 -24q-21 -13 -46.5 -24.5q-25.5 -11.5 -54 -19q-28.5 -7.5 -59.5 -7.5q-41 0 -78 13q-37 13 -65 39q-28 26 -44.5 64.5q-16.5 38.5 -16.5 89.5zt0 0zM284 408q-43 0 -76 -24.5q-33 -24.5 -60 -85.5l234 0q1 5 1 9.5q0 4.5 0 9.5q0 42 -21 66.5q-21 24.5 -78 24.5zt0 0zM286 544h-65l121 162l98 0z" />
<glyph unicode="&#234;" horiz-adv-x="501" d="M36 191q0 51 16 104q16 53 47 95.5q31 42.5 77 70q46 27.5 107 27.5q92 0 137 -45q45 -45 45 -140q0 -17 -1.5 -34q-1.5 -17 -3.5 -36l-328 0q-3 -21 -3 -39q0 -36 9.5 -60.5q9.5 -24.5 27.5 -39q18 -14.5 43.5 -20.5q25.5 -6 57.5 -6q16 0 35.5 5.5q19.5 5.5 39 14q19.5 8.5 37.5 18.5q18 10 31 19l28 -65q-17 -11 -38 -24q-21 -13 -46.5 -24.5q-25.5 -11.5 -54 -19q-28.5 -7.5 -59.5 -7.5q-41 0 -78 13q-37 13 -65 39q-28 26 -44.5 64.5q-16.5 38.5 -16.5 89.5zt0 0zM284 408q-43 0 -76 -24.5q-33 -24.5 -60 -85.5l234 0q1 5 1 9.5q0 4.5 0 9.5q0 42 -21 66.5q-21 24.5 -78 24.5zt0 0zM487 544h-65l-88 101l-116 -101h-65l141 162l98 0z" />
<glyph unicode="&#235;" horiz-adv-x="505" d="M36 191q0 51 16 104q16 53 47 95.5q31 42.5 77 70q46 27.5 107 27.5q92 0 137 -45q45 -45 45 -140q0 -17 -1.5 -34q-1.5 -17 -3.5 -36l-328 0q-3 -21 -3 -39q0 -36 9.5 -60.5q9.5 -24.5 27.5 -39q18 -14.5 43.5 -20.5q25.5 -6 57.5 -6q16 0 35.5 5.5q19.5 5.5 39 14q19.5 8.5 37.5 18.5q18 10 31 19l28 -65q-17 -11 -38 -24q-21 -13 -46.5 -24.5q-25.5 -11.5 -54 -19q-28.5 -7.5 -59.5 -7.5q-41 0 -78 13q-37 13 -65 39q-28 26 -44.5 64.5q-16.5 38.5 -16.5 89.5zt0 0zM284 408q-43 0 -76 -24.5q-33 -24.5 -60 -85.5l234 0q1 5 1 9.5q0 4.5 0 9.5q0 42 -21 66.5q-21 24.5 -78 24.5zt0 0zM410 562q-23 0 -40.5 17q-17.5 17 -17.5 40q0 25 17.5 42.5q17.5 17.5 40.5 17.5q25 0 42 -17.5q17 -17.5 17 -42.5q0 -23 -17 -40q-17 -17 -42 -17zt0 0zM215 562q-23 0 -40 17q-17 17 -17 40q0 25 17 42.5q17 17.5 40 17.5q26 0 43 -17.5q17 -17.5 17 -42.5q0 -23 -17 -40t-43 -17z" />
<glyph unicode="&#236;" horiz-adv-x="230" d="M127 0h-90l66 472h90zM66 706h98l61 -162l-65 0z" />
<glyph unicode="&#237;" horiz-adv-x="230" d="M127 0h-90l66 472h90zM141 544h-65l121 162l98 0z" />
<glyph unicode="&#238;" horiz-adv-x="230" d="M127 0h-90l66 472h90zM312 544h-65l-88 101l-116 -101h-65l141 162l98 0z" />
<glyph unicode="&#239;" horiz-adv-x="230" d="M219 563q-16 0 -27 12q-11 12 -11 31q0 13 4.5 25q4.5 12 12 21q7.5 9 17 14.5q9.5 5.5 19.5 5.5q18 0 29 -13.5q11 -13.5 11 -33.5q0 -26 -16.5 -44q-16.5 -18 -38.5 -18zt0 0zM101 563q-16 0 -27 12q-11 12 -11 31q0 26 16.5 46q16.5 20 36.5 20q18 0 29.5 -14q11.5 -14 11.5 -34q0 -26 -17.5 -43.5q-17.5 -17.5 -38.5 -17.5zt0 0zM127 0h-90l66 472l90 0z" />
<glyph unicode="&#240;" horiz-adv-x="548" d="M308 689q99 -37 146 -117.5q47 -80.5 47 -195.5q0 -85 -22.5 -157q-22.5 -72 -61.5 -124q-39 -52 -92 -81q-53 -29 -113 -29q-90 0 -143.5 48q-53.5 48 -53.5 145q0 78 25.5 136q25.5 58 67 96.5q41.5 38.5 94 58q52.5 19.5 106.5 19.5q23 0 46 -3q23 -3 42 -10q-9 51 -43.5 85q-34.5 34 -80.5 54l-36 -79l-64 21l36 77q-34 7 -68 7l10 75q50 -2 92 -9l32 69l64 -21zM227 60q47 0 81 28q34 28 56 70q22 42 32.5 90q10.5 48 10.5 88q0 31 -7 59q-20 6 -48 10q-28 4 -46 4q-45 0 -82 -17.5q-37 -17.5 -63.5 -48q-26.5 -30.5 -41 -71q-14.5 -40.5 -14.5 -85.5q0 -62 32 -94.5t90 -32.5z" />
<glyph unicode="&#241;" horiz-adv-x="564" d="M184 414q14 12 31.5 24.5q17.5 12.5 38.5 23q21 10.5 45 17.5q24 7 51 7q31 0 60.5 -10q29.5 -10 51.5 -30.5q22 -20.5 35.5 -52q13.5 -31.5 13.5 -75.5q0 -22 -3 -44l-38 -274h-91l38 274q2 8 2 16q0 8 0 16q0 28 -7.5 47q-7.5 19 -21 30.5q-13.5 11.5 -31.5 16.5q-18 5 -38 5q-16 0 -36 -5q-20 -5 -40.5 -13.5q-20.5 -8.5 -39 -20q-18.5 -11.5 -31.5 -24.5l-47 -342h-90l65 472h90zM416 637q28 0 47.5 14q19.5 14 46.5 47l11 -64q-23 -30 -50.5 -48.5q-27.5 -18.5 -65.5 -18.5q-24 0 -38.5 8q-14.5 8 -26.5 17q-12 9 -23.5 17q-11.5 8 -29.5 8q-28 0 -47.5 -14q-19.5 -14 -46.5 -47l-11 64q23 30 50.5 48.5q27.5 18.5 65.5 18.5q24 0 38.5 -8q14.5 -8 26.5 -17q12 -9 23.5 -17t29.5 -8z" />
<glyph unicode="&#242;" horiz-adv-x="559" d="M244 -15q-45 0 -83 14q-38 14 -66 41q-28 27 -43.5 66.5q-15.5 39.5 -15.5 90.5q0 75 23.5 130q23.5 55 62.5 91q39 36 89 53q50 17 104 17q45 0 83 -14q38 -14 66 -41q28 -27 43.5 -66.5q15.5 -39.5 15.5 -90.5q0 -75 -23.5 -130q-23.5 -55 -62.5 -91q-39 -36 -89 -53q-50 -17 -104 -17zt0 0zM255 60q37 0 69.5 14.5q32.5 14.5 56.5 42q24 27.5 37.5 67.5q13.5 40 13.5 92q0 66 -34 101.5q-34 35.5 -94 35.5q-37 0 -69.5 -14.5q-32.5 -14.5 -56.5 -42q-24 -27.5 -37.5 -67.5q-13.5 -40 -13.5 -92q0 -66 34 -101.5q34 -35.5 94 -35.5zt0 0zM220 706h98l61 -162l-65 0z" />
<glyph unicode="&#243;" horiz-adv-x="559" d="M244 -15q-45 0 -83 14q-38 14 -66 41q-28 27 -43.5 66.5q-15.5 39.5 -15.5 90.5q0 75 23.5 130q23.5 55 62.5 91q39 36 89 53q50 17 104 17q45 0 83 -14q38 -14 66 -41q28 -27 43.5 -66.5q15.5 -39.5 15.5 -90.5q0 -75 -23.5 -130q-23.5 -55 -62.5 -91q-39 -36 -89 -53q-50 -17 -104 -17zt0 0zM255 60q37 0 69.5 14.5q32.5 14.5 56.5 42q24 27.5 37.5 67.5q13.5 40 13.5 92q0 66 -34 101.5q-34 35.5 -94 35.5q-37 0 -69.5 -14.5q-32.5 -14.5 -56.5 -42q-24 -27.5 -37.5 -67.5q-13.5 -40 -13.5 -92q0 -66 34 -101.5q34 -35.5 94 -35.5zt0 0zM295 544h-65l121 162l98 0z" />
<glyph unicode="&#244;" horiz-adv-x="559" d="M244 -15q-45 0 -83 14q-38 14 -66 41q-28 27 -43.5 66.5q-15.5 39.5 -15.5 90.5q0 75 23.5 130q23.5 55 62.5 91q39 36 89 53q50 17 104 17q45 0 83 -14q38 -14 66 -41q28 -27 43.5 -66.5q15.5 -39.5 15.5 -90.5q0 -75 -23.5 -130q-23.5 -55 -62.5 -91q-39 -36 -89 -53q-50 -17 -104 -17zt0 0zM255 60q37 0 69.5 14.5q32.5 14.5 56.5 42q24 27.5 37.5 67.5q13.5 40 13.5 92q0 66 -34 101.5q-34 35.5 -94 35.5q-37 0 -69.5 -14.5q-32.5 -14.5 -56.5 -42q-24 -27.5 -37.5 -67.5q-13.5 -40 -13.5 -92q0 -66 34 -101.5q34 -35.5 94 -35.5zt0 0zM476 544h-65l-88 101l-116 -101h-65l141 162l98 0z" />
<glyph unicode="&#245;" horiz-adv-x="559" d="M244 -15q-45 0 -83 14q-38 14 -66 41q-28 27 -43.5 66.5q-15.5 39.5 -15.5 90.5q0 75 23.5 130q23.5 55 62.5 91q39 36 89 53q50 17 104 17q45 0 83 -14q38 -14 66 -41q28 -27 43.5 -66.5q15.5 -39.5 15.5 -90.5q0 -75 -23.5 -130q-23.5 -55 -62.5 -91q-39 -36 -89 -53q-50 -17 -104 -17zt0 0zM255 60q37 0 69.5 14.5q32.5 14.5 56.5 42q24 27.5 37.5 67.5q13.5 40 13.5 92q0 66 -34 101.5q-34 35.5 -94 35.5q-37 0 -69.5 -14.5q-32.5 -14.5 -56.5 -42q-24 -27.5 -37.5 -67.5q-13.5 -40 -13.5 -92q0 -66 34 -101.5q34 -35.5 94 -35.5zt0 0zM404 637q28 0 47.5 14q19.5 14 46.5 47l11 -64q-23 -30 -50.5 -48.5q-27.5 -18.5 -65.5 -18.5q-24 0 -38.5 8q-14.5 8 -26.5 17q-12 9 -23.5 17q-11.5 8 -29.5 8q-28 0 -47.5 -14q-19.5 -14 -46.5 -47l-11 64q23 30 50.5 48.5q27.5 18.5 65.5 18.5q24 0 38.5 -8q14.5 -8 26.5 -17q12 -9 23.5 -17t29.5 -8z" />
<glyph unicode="&#246;" horiz-adv-x="559" d="M244 -15q-45 0 -83 14q-38 14 -66 41q-28 27 -43.5 66.5q-15.5 39.5 -15.5 90.5q0 75 23.5 130q23.5 55 62.5 91q39 36 89 53q50 17 104 17q45 0 83 -14q38 -14 66 -41q28 -27 43.5 -66.5q15.5 -39.5 15.5 -90.5q0 -75 -23.5 -130q-23.5 -55 -62.5 -91q-39 -36 -89 -53q-50 -17 -104 -17zt0 0zM255 60q37 0 69.5 14.5q32.5 14.5 56.5 42q24 27.5 37.5 67.5q13.5 40 13.5 92q0 66 -34 101.5q-34 35.5 -94 35.5q-37 0 -69.5 -14.5q-32.5 -14.5 -56.5 -42q-24 -27.5 -37.5 -67.5q-13.5 -40 -13.5 -92q0 -66 34 -101.5q34 -35.5 94 -35.5zt0 0zM436 562q-23 0 -40.5 17q-17.5 17 -17.5 40q0 25 17.5 42.5q17.5 17.5 40.5 17.5q25 0 42 -17.5q17 -17.5 17 -42.5q0 -23 -17 -40q-17 -17 -42 -17zt0 0zM241 562q-23 0 -40 17q-17 17 -17 40q0 25 17 42.5q17 17.5 40 17.5q26 0 43 -17.5q17 -17.5 17 -42.5q0 -23 -17 -40t-43 -17z" />
<glyph unicode="&#247;" horiz-adv-x="639" d="M354 125q0 -24 -17 -41q-17 -17 -43 -17q-23 0 -40.5 17q-17.5 17 -17.5 41q0 24 17.5 42q17.5 18 40.5 18q26 0 43 -18q17 -18 17 -42zt0 0zM398 448q0 -24 -17 -41q-17 -17 -43 -17q-23 0 -40.5 17q-17.5 17 -17.5 41q0 24 17.5 42q17.5 18 40.5 18q26 0 43 -18q17 -18 17 -42zt0 0zM45 249l9 70h540l-9 -70z" />
<glyph unicode="&#248;" horiz-adv-x="559" d="M244 -15q-81 0 -136 44l-29 -29h-81l71 71q-16 25 -24.5 56.5q-8.5 31.5 -8.5 69.5q0 75 23.5 130q23.5 55 62.5 91q39 36 89 53q50 17 104 17q77 0 131 -40l24 24h82l-66 -66q37 -52 37 -130q0 -75 -23.5 -130q-23.5 -55 -62.5 -91q-39 -36 -89 -53q-50 -17 -104 -17zt0 0zM255 60q37 0 69.5 14.5q32.5 14.5 56.5 42q24 27.5 37.5 67.5q13.5 40 13.5 92q0 35 -11 65l-253 -252q32 -29 87 -29zt0 0zM127 197q0 -34 9 -59l250 250q-33 25 -82 25q-37 0 -69.5 -14.5q-32.5 -14.5 -56.5 -42q-24 -27.5 -37.5 -67.5t-13.5 -92z" />
<glyph unicode="&#249;" horiz-adv-x="539" d="M436 0h-90l11 76q-15 -15 -34.5 -30.5q-19.5 -15.5 -41.5 -28q-22 -12.5 -45 -20.5q-23 -8 -47 -8q-65 0 -102 33q-37 33 -37 113q0 14 1.5 29q1.5 15 3.5 32l38 276h90l-38 -276q-3 -21 -3 -37q0 -26 7 -42q7 -16 20 -24.5q13 -8.5 29.5 -11q16.5 -2.5 36.5 -2.5q35 0 69 21.5q34 21.5 64 53.5l44 318h90zM220 706h98l61 -162l-65 0z" />
<glyph unicode="&#250;" horiz-adv-x="539" d="M436 0h-90l11 76q-15 -15 -34.5 -30.5q-19.5 -15.5 -41.5 -28q-22 -12.5 -45 -20.5q-23 -8 -47 -8q-65 0 -102 33q-37 33 -37 113q0 14 1.5 29q1.5 15 3.5 32l38 276h90l-38 -276q-3 -21 -3 -37q0 -26 7 -42q7 -16 20 -24.5q13 -8.5 29.5 -11q16.5 -2.5 36.5 -2.5q35 0 69 21.5q34 21.5 64 53.5l44 318h90zM285 544h-65l121 162l98 0z" />
<glyph unicode="&#251;" horiz-adv-x="539" d="M436 0h-90l11 76q-15 -15 -34.5 -30.5q-19.5 -15.5 -41.5 -28q-22 -12.5 -45 -20.5q-23 -8 -47 -8q-65 0 -102 33q-37 33 -37 113q0 14 1.5 29q1.5 15 3.5 32l38 276h90l-38 -276q-3 -21 -3 -37q0 -26 7 -42q7 -16 20 -24.5q13 -8.5 29.5 -11q16.5 -2.5 36.5 -2.5q35 0 69 21.5q34 21.5 64 53.5l44 318h90zM476 544h-65l-88 101l-116 -101h-65l141 162l98 0z" />
<glyph unicode="&#252;" horiz-adv-x="539" d="M436 0h-90l11 76q-15 -15 -34.5 -30.5q-19.5 -15.5 -41.5 -28q-22 -12.5 -45 -20.5q-23 -8 -47 -8q-65 0 -102 33q-37 33 -37 113q0 14 1.5 29q1.5 15 3.5 32l38 276h90l-38 -276q-3 -21 -3 -37q0 -26 7 -42q7 -16 20 -24.5q13 -8.5 29.5 -11q16.5 -2.5 36.5 -2.5q35 0 69 21.5q34 21.5 64 53.5l44 318h90zM416 562q-23 0 -40.5 17q-17.5 17 -17.5 40q0 25 17.5 42.5q17.5 17.5 40.5 17.5q25 0 42 -17.5q17 -17.5 17 -42.5q0 -23 -17 -40q-17 -17 -42 -17zt0 0zM221 562q-23 0 -40 17q-17 17 -17 40q0 25 17 42.5q17 17.5 40 17.5q26 0 43 -17.5q17 -17.5 17 -42.5q0 -23 -17 -40t-43 -17z" />
<glyph unicode="&#253;" horiz-adv-x="510" d="M438 472h89l-375 -667h-89l114 202l-130 465h97l100 -352zM291 544h-65l121 162l98 0z" />
<glyph unicode="&#254;" horiz-adv-x="559" d="M249 59q43 0 76 18q33 18 55.5 48q22.5 30 34.5 69.5q12 39.5 12 83.5q0 37 -12 61.5q-12 24.5 -30 39.5q-18 15 -39 21.5q-21 6.5 -39 6.5q-38 0 -71 -15.5q-33 -15.5 -62 -38.5l-36 -255q9 -10 22 -17.5q13 -7.5 28 -12q15 -4.5 31 -7q16 -2.5 30 -2.5zt0 0zM520 287q0 -51 -18 -104.5q-18 -53.5 -51.5 -97.5q-33.5 -44 -81 -72q-47.5 -28 -107.5 -28q-33 0 -71 9q-38 9 -64 26l-30 -215h-90l125 895h90l-37 -266q27 19 67.5 36.5q40.5 17.5 88.5 17.5q38 0 71 -14.5q33 -14.5 57 -41q24 -26.5 37.5 -63.5t13.5 -82z" />
<glyph unicode="&#255;" horiz-adv-x="510" d="M438 472h89l-375 -667h-89l114 202l-130 465h97l100 -352zM412 562q-23 0 -40.5 17q-17.5 17 -17.5 40q0 25 17.5 42.5q17.5 17.5 40.5 17.5q25 0 42 -17.5q17 -17.5 17 -42.5q0 -23 -17 -40q-17 -17 -42 -17zt0 0zM217 562q-23 0 -40 17q-17 17 -17 40q0 25 17 42.5q17 17.5 40 17.5q26 0 43 -17.5q17 -17.5 17 -42.5q0 -23 -17 -40t-43 -17z" />
<glyph unicode="&#256;" horiz-adv-x="629" d="M437 188h-271l-91 -188h-95l337 700h106l156 -700h-100zM209 278h208l-66 291zM260 789l9 70h261l-9 -70z" />
<glyph unicode="&#257;" horiz-adv-x="495" d="M167 589l10 70h260l-10 -70zM321 70q-44 -42 -88 -61.5q-44 -19.5 -88 -19.5q-52 0 -86 34q-34 34 -34 87q0 55 23 89.5q23 34.5 66 54q43 19.5 103.5 28q60.5 8.5 134.5 11.5q3 24 3 42q0 27 -7 42q-7 15 -19 22q-12 7 -27.5 8q-15.5 1 -33.5 1q-17 0 -37.5 -3q-20.5 -3 -42 -8.5q-21.5 -5.5 -42 -12q-20.5 -6.5 -36.5 -12.5l-15 77q17 6 41 13q24 7 51.5 13q27.5 6 56 9.5q28.5 3.5 55.5 3.5q29 0 55.5 -6.5q26.5 -6.5 46.5 -23q20 -16.5 32 -45q12 -28.5 12 -72.5q0 -12 -1 -25.5q-1 -13.5 -3 -28.5l-40 -287h-90zM188 66q16 0 33.5 7.5q17.5 7.5 36 19q18.5 11.5 37.5 26.5q19 15 37 30l10 74q-45 -2 -86 -5q-41 -3 -72 -12.5q-31 -9.5 -49 -27.5q-18 -18 -18 -49q0 -10 4.5 -21q4.5 -11 13.5 -20.5q9 -9.5 22.5 -15.5t30.5 -6z" />
<glyph unicode="&#260;" horiz-adv-x="629" d="M579 0q-61 -37 -81.5 -67q-20.5 -30 -20.5 -52q0 -14 10.5 -23.5q10.5 -9.5 34.5 -9.5q6 0 17 1q11 1 19 3l-5 -37q-15 -9 -36.5 -16.5q-21.5 -7.5 -46.5 -7.5q-19 0 -32 6q-13 6 -21.5 15.5q-8.5 9.5 -12 21.5q-3.5 12 -3.5 23q0 35 29.5 73q29.5 38 80.5 70l-32 0l-42 188h-271l-91 -188h-95l337 700h106zM209 278h208l-66 291z" />
<glyph unicode="&#261;" horiz-adv-x="495" d="M321 70q-44 -42 -88 -61.5q-44 -19.5 -88 -19.5q-52 0 -86 34q-34 34 -34 87q0 55 23 89.5q23 34.5 66 54q43 19.5 103.5 28q60.5 8.5 134.5 11.5q3 24 3 42q0 27 -7 42q-7 15 -19 22q-12 7 -27.5 8q-15.5 1 -33.5 1q-17 0 -37.5 -3q-20.5 -3 -42 -8.5q-21.5 -5.5 -42 -12q-20.5 -6.5 -36.5 -12.5l-15 77q17 6 41 13q24 7 51.5 13q27.5 6 56 9.5q28.5 3.5 55.5 3.5q29 0 55.5 -6.5q26.5 -6.5 46.5 -23q20 -16.5 32 -45q12 -28.5 12 -72.5q0 -12 -1 -25.5q-1 -13.5 -3 -28.5l-40 -287q-61 -37 -81.5 -67q-20.5 -30 -20.5 -52q0 -14 10.5 -23.5q10.5 -9.5 34.5 -9.5q6 0 17 1q11 1 19 3l-5 -37q-15 -9 -36.5 -16.5q-21.5 -7.5 -46.5 -7.5q-19 0 -32 6q-13 6 -21.5 15.5q-8.5 9.5 -12 21.5q-3.5 12 -3.5 23q0 35 29.5 73q29.5 38 80.5 70l-22 0zM188 66q16 0 33.5 7.5q17.5 7.5 36 19q18.5 11.5 37.5 26.5q19 15 37 30l10 74q-45 -2 -86 -5q-41 -3 -72 -12.5q-31 -9.5 -49 -27.5q-18 -18 -18 -49q0 -10 4.5 -21q4.5 -11 13.5 -20.5q9 -9.5 22.5 -15.5t30.5 -6z" />
<glyph unicode="&#262;" horiz-adv-x="659" d="M442 715q65 0 120 -11.5q55 -11.5 97 -31.5l-47 -87q-44 18 -85.5 29q-41.5 11 -96.5 11q-57 0 -108.5 -23.5q-51.5 -23.5 -90.5 -67q-39 -43.5 -62 -105.5q-23 -62 -23 -139q0 -53 15 -93.5q15 -40.5 42.5 -67.5q27.5 -27 65.5 -40.5q38 -13.5 84 -13.5q57 0 112.5 25q55.5 25 105.5 56l33 -77q-39 -27 -82 -47q-37 -18 -84 -32.5q-47 -14.5 -97 -14.5q-77 0 -134.5 20.5q-57.5 20.5 -95.5 58.5q-38 38 -57 91.5q-19 53.5 -19 119.5q0 91 27 171q27 80 79 140q52 60 128 94.5q76 34.5 173 34.5zt0 0zM385 772h-65l121 162l98 0z" />
<glyph unicode="&#263;" horiz-adv-x="491" d="M441 59q-14 -9 -35.5 -21.5q-21.5 -12.5 -48 -24.5q-26.5 -12 -56.5 -20q-30 -8 -61 -8q-41 0 -78 11q-37 11 -65 35q-28 24 -44.5 61.5q-16.5 37.5 -16.5 91.5q0 79 27 136.5q27 57.5 69 95q42 37.5 92 55q50 17.5 96 17.5q38 0 78 -6q40 -6 79 -17l-31 -77q-36 10 -67 15.5q-31 5.5 -60 5.5q-39 0 -72.5 -12q-33.5 -12 -58.5 -37.5q-25 -25.5 -39.5 -65.5q-14.5 -40 -14.5 -96q0 -67 36 -98.5q36 -31.5 100 -31.5q32 0 68.5 18.5q36.5 18.5 71.5 38.5zM271 544h-65l121 162l98 0z" />
<glyph unicode="&#268;" horiz-adv-x="659" d="M442 715q65 0 120 -11.5q55 -11.5 97 -31.5l-47 -87q-44 18 -85.5 29q-41.5 11 -96.5 11q-57 0 -108.5 -23.5q-51.5 -23.5 -90.5 -67q-39 -43.5 -62 -105.5q-23 -62 -23 -139q0 -53 15 -93.5q15 -40.5 42.5 -67.5q27.5 -27 65.5 -40.5q38 -13.5 84 -13.5q57 0 112.5 25q55.5 25 105.5 56l33 -77q-39 -27 -82 -47q-37 -18 -84 -32.5q-47 -14.5 -97 -14.5q-77 0 -134.5 20.5q-57.5 20.5 -95.5 58.5q-38 38 -57 91.5q-19 53.5 -19 119.5q0 91 27 171q27 80 79 140q52 60 128 94.5q76 34.5 173 34.5zt0 0zM475 772h-98l-95 162h65l88 -101l116 101l65 0z" />
<glyph unicode="&#269;" horiz-adv-x="491" d="M441 59q-14 -9 -35.5 -21.5q-21.5 -12.5 -48 -24.5q-26.5 -12 -56.5 -20q-30 -8 -61 -8q-41 0 -78 11q-37 11 -65 35q-28 24 -44.5 61.5q-16.5 37.5 -16.5 91.5q0 79 27 136.5q27 57.5 69 95q42 37.5 92 55q50 17.5 96 17.5q38 0 78 -6q40 -6 79 -17l-31 -77q-36 10 -67 15.5q-31 5.5 -60 5.5q-39 0 -72.5 -12q-33.5 -12 -58.5 -37.5q-25 -25.5 -39.5 -65.5q-14.5 -40 -14.5 -96q0 -67 36 -98.5q36 -31.5 100 -31.5q32 0 68.5 18.5q36.5 18.5 71.5 38.5zM351 544h-98l-95 162h65l88 -101l116 101l65 0z" />
<glyph unicode="&#270;" horiz-adv-x="664" d="M350 700q78 0 131.5 -24q53.5 -24 86 -64q32.5 -40 47 -91q14.5 -51 14.5 -106q0 -68 -21 -141q-21 -73 -66 -134q-45 -61 -116.5 -100.5q-71.5 -39.5 -172.5 -39.5h-213l97 700zM250 90q136 0 203 87q67 87 67 242q0 92 -45.5 141.5q-45.5 49.5 -151.5 49.5h-98l-73 -520zM398 772h-98l-95 162h65l88 -101l116 101l65 0z" />
<glyph unicode="&#271;" horiz-adv-x="718" d="M377 0l9 67q-15 -14 -34 -28.5q-19 -14.5 -41 -26.5q-22 -12 -46.5 -19.5q-24.5 -7.5 -49.5 -7.5q-35 0 -67.5 11q-32.5 11 -57 34.5q-24.5 23.5 -39.5 61q-15 37.5 -15 90.5q0 80 26.5 138q26.5 58 66 95.5q39.5 37.5 86.5 55q47 17.5 89 17.5q42 0 75.5 -11q33.5 -11 59.5 -27l35 250h91l-97 -700zM428 365q-27 20 -53.5 31.5q-26.5 11.5 -67.5 11.5q-23 0 -54 -8.5q-31 -8.5 -58.5 -32q-27.5 -23.5 -47 -65.5q-19.5 -42 -19.5 -109q0 -35 9 -58.5q9 -23.5 25 -38q16 -14.5 38 -21q22 -6.5 47 -6.5q38 0 77 22.5q39 22.5 74 57.5zM738 619q0 -22 -11 -46q-11 -24 -26 -47q-15 -23 -31 -43q-16 -20 -26 -32l-39 22l56 102q-24 2 -41 19.5q-17 17.5 -17 42.5q0 25 18.5 44q18.5 19 44.5 19q29 0 50.5 -21t21.5 -60z" />
<glyph unicode="&#272;" horiz-adv-x="666" d="M351 700q78 0 131.5 -24q53.5 -24 86 -64q32.5 -40 47 -91q14.5 -51 14.5 -106q0 -68 -21 -141q-21 -73 -66 -134q-45 -61 -116.5 -100.5q-71.5 -39.5 -172.5 -39.5h-213l44 315h-60l9 70h60l44 315zM185 315l-32 -225h98q136 0 203 87q67 87 67 242q0 92 -45.5 141.5q-45.5 49.5 -151.5 49.5h-98l-32 -225h100l-9 -70z" />
<glyph unicode="&#273;" horiz-adv-x="571" d="M377 0l9 67q-15 -14 -34 -28.5q-19 -14.5 -41 -26.5q-22 -12 -46.5 -19.5q-24.5 -7.5 -49.5 -7.5q-35 0 -67.5 11q-32.5 11 -57 34.5q-24.5 23.5 -39.5 61q-15 37.5 -15 90.5q0 80 26.5 138q26.5 58 66 95.5q39.5 37.5 86.5 55q47 17.5 89 17.5q42 0 75.5 -11q33.5 -11 59.5 -27l12 90h-142l9 70h143l13 90h91l-13 -90h59l-9 -70h-59l-75 -540zM428 365q-27 20 -53.5 31.5q-26.5 11.5 -67.5 11.5q-23 0 -54 -8.5q-31 -8.5 -58.5 -32q-27.5 -23.5 -47 -65.5q-19.5 -42 -19.5 -109q0 -35 9 -58.5q9 -23.5 25 -38q16 -14.5 38 -21q22 -6.5 47 -6.5q38 0 77 22.5q39 22.5 74 57.5z" />
<glyph unicode="&#274;" horiz-adv-x="495" d="M206 789l9 70h261l-9 -70zM418 317h-234l-32 -227h269l-12 -90h-369l97 700h358l-12 -90h-258l-29 -203l234 0z" />
<glyph unicode="&#275;" horiz-adv-x="501" d="M199 589l9 70h260l-9 -70zM36 191q0 51 16 104q16 53 47 95.5q31 42.5 77 70q46 27.5 107 27.5q92 0 137 -45q45 -45 45 -140q0 -17 -1.5 -34q-1.5 -17 -3.5 -36l-328 0q-3 -21 -3 -39q0 -36 9.5 -60.5q9.5 -24.5 27.5 -39q18 -14.5 43.5 -20.5q25.5 -6 57.5 -6q16 0 35.5 5.5q19.5 5.5 39 14q19.5 8.5 37.5 18.5q18 10 31 19l28 -65q-17 -11 -38 -24q-21 -13 -46.5 -24.5q-25.5 -11.5 -54 -19q-28.5 -7.5 -59.5 -7.5q-41 0 -78 13q-37 13 -65 39q-28 26 -44.5 64.5q-16.5 38.5 -16.5 89.5zt0 0zM284 408q-43 0 -76 -24.5q-33 -24.5 -60 -85.5l234 0q1 5 1 9.5q0 4.5 0 9.5q0 42 -21 66.5t-78 24.5z" />
<glyph unicode="&#278;" horiz-adv-x="495" d="M418 317h-234l-32 -227h269l-12 -90h-369l97 700h358l-12 -90h-258l-29 -203h234zM329 790q-22 0 -36.5 14.5q-14.5 14.5 -14.5 35.5q0 13 6 25.5q6 12.5 16 21.5q10 9 22 14.5q12 5.5 24 5.5q23 0 37 -14.5q14 -14.5 14 -36.5q0 -26 -20 -46t-48 -20z" />
<glyph unicode="&#279;" horiz-adv-x="501" d="M36 191q0 51 16 104q16 53 47 95.5q31 42.5 77 70q46 27.5 107 27.5q92 0 137 -45q45 -45 45 -140q0 -17 -1.5 -34q-1.5 -17 -3.5 -36l-328 0q-3 -21 -3 -39q0 -36 9.5 -60.5q9.5 -24.5 27.5 -39q18 -14.5 43.5 -20.5q25.5 -6 57.5 -6q16 0 35.5 5.5q19.5 5.5 39 14q19.5 8.5 37.5 18.5q18 10 31 19l28 -65q-17 -11 -38 -24q-21 -13 -46.5 -24.5q-25.5 -11.5 -54 -19q-28.5 -7.5 -59.5 -7.5q-41 0 -78 13q-37 13 -65 39q-28 26 -44.5 64.5q-16.5 38.5 -16.5 89.5zt0 0zM284 408q-43 0 -76 -24.5q-33 -24.5 -60 -85.5l234 0q1 5 1 9.5q0 4.5 0 9.5q0 42 -21 66.5q-21 24.5 -78 24.5zt0 0zM302 562q-22 0 -36.5 14.5q-14.5 14.5 -14.5 35.5q0 13 6 25.5q6 12.5 16 21.5q10 9 22 14.5q12 5.5 24 5.5q23 0 37 -14.5q14 -14.5 14 -36.5q0 -26 -20 -46t-48 -20z" />
<glyph unicode="&#280;" horiz-adv-x="495" d="M40 0l97 700h358l-12 -90h-258l-29 -203h234l-12 -90h-234l-32 -227h269l-12 -90q-61 -37 -81.5 -67q-20.5 -30 -20.5 -52q0 -14 10.5 -23.5q10.5 -9.5 34.5 -9.5q6 0 17 1q11 1 19 3l-5 -37q-15 -9 -36.5 -16.5q-21.5 -7.5 -46.5 -7.5q-19 0 -32 6q-13 6 -21.5 15.5q-8.5 9.5 -12 21.5q-3.5 12 -3.5 23q0 35 29.5 73q29.5 38 80.5 70z" />
<glyph unicode="&#281;" horiz-adv-x="501" d="M36 191q0 51 16 104q16 53 47 95.5q31 42.5 77 70q46 27.5 107 27.5q92 0 137 -45q45 -45 45 -140q0 -17 -1.5 -34q-1.5 -17 -3.5 -36l-328 0q-3 -21 -3 -39q0 -36 9.5 -60.5q9.5 -24.5 27.5 -39q18 -14.5 43.5 -20.5q25.5 -6 57.5 -6q16 0 35.5 5.5q19.5 5.5 39 14q19.5 8.5 37.5 18.5q18 10 31 19l28 -65q-22 -14 -51 -31.5q-29 -17.5 -64 -28.5q-60 -37 -80.5 -67q-20.5 -30 -20.5 -52q0 -14 10.5 -23.5q10.5 -9.5 34.5 -9.5q6 0 17 1q11 1 19 3l-5 -37q-15 -9 -36.5 -16.5q-21.5 -7.5 -46.5 -7.5q-19 0 -32 6q-13 6 -21.5 15.5q-8.5 9.5 -12 21.5q-3.5 12 -3.5 23q0 31 23 64.5q23 33.5 64 63.5q-40 1 -76 14.5q-36 13.5 -63 39.5q-27 26 -42.5 64q-15.5 38 -15.5 88zt0 0zM284 408q-43 0 -76 -24.5q-33 -24.5 -60 -85.5l234 0q1 5 1 9.5q0 4.5 0 9.5q0 42 -21 66.5t-78 24.5z" />
<glyph unicode="&#282;" horiz-adv-x="495" d="M418 317h-234l-32 -227h269l-12 -90h-369l97 700h358l-12 -90h-258l-29 -203h234zM363 772h-98l-95 162h65l88 -101l116 101l65 0z" />
<glyph unicode="&#283;" horiz-adv-x="501" d="M36 191q0 51 16 104q16 53 47 95.5q31 42.5 77 70q46 27.5 107 27.5q92 0 137 -45q45 -45 45 -140q0 -17 -1.5 -34q-1.5 -17 -3.5 -36l-328 0q-3 -21 -3 -39q0 -36 9.5 -60.5q9.5 -24.5 27.5 -39q18 -14.5 43.5 -20.5q25.5 -6 57.5 -6q16 0 35.5 5.5q19.5 5.5 39 14q19.5 8.5 37.5 18.5q18 10 31 19l28 -65q-17 -11 -38 -24q-21 -13 -46.5 -24.5q-25.5 -11.5 -54 -19q-28.5 -7.5 -59.5 -7.5q-41 0 -78 13q-37 13 -65 39q-28 26 -44.5 64.5q-16.5 38.5 -16.5 89.5zt0 0zM284 408q-43 0 -76 -24.5q-33 -24.5 -60 -85.5l234 0q1 5 1 9.5q0 4.5 0 9.5q0 42 -21 66.5q-21 24.5 -78 24.5zt0 0zM276 544h-98l-95 162h65l88 -101l116 101l65 0z" />
<glyph unicode="&#290;" horiz-adv-x="672" d="M442 715q65 0 120 -11.5q55 -11.5 97 -31.5l-47 -87q-44 18 -85.5 29q-41.5 11 -96.5 11q-57 0 -108.5 -23.5q-51.5 -23.5 -90.5 -67q-39 -43.5 -62 -105.5q-23 -62 -23 -139q0 -53 15 -93.5q15 -40.5 42.5 -67.5q27.5 -27 65.5 -40.5q38 -13.5 84 -13.5q39 0 78.5 12.5q39.5 12.5 77.5 32.5l31 217h100l-36 -258q-39 -27 -82 -47q-37 -18 -84 -32.5q-47 -14.5 -97 -14.5q-77 0 -134.5 20.5q-57.5 20.5 -95.5 58.5q-38 38 -57 91.5q-19 53.5 -19 119.5q0 91 27 171q27 80 79 140q52 60 128 94.5q76 34.5 173 34.5zt0 0zM363 -121q0 -22 -11 -46q-11 -24 -26 -47q-15 -23 -31 -43q-16 -20 -26 -32l-39 22l56 102q-24 2 -41 19.5q-17 17.5 -17 42.5q0 25 18.5 44q18.5 19 44.5 19q29 0 50.5 -21t21.5 -60z" />
<glyph unicode="&#291;" horiz-adv-x="505" d="M444 403q9 -14 14.5 -29q5.5 -15 5.5 -37q0 -62 -25 -102.5q-25 -40.5 -66 -66.5q-41 -26 -93 -40.5q-52 -14.5 -105 -25.5l0 -6q68 -3 116.5 -14q48.5 -11 79 -28.5q30.5 -17.5 45 -40q14.5 -22.5 14.5 -47.5q0 -39 -22 -71.5q-22 -32.5 -58.5 -55.5q-36.5 -23 -83 -36q-46.5 -13 -95.5 -13q-51 0 -85.5 9q-34.5 9 -55.5 24.5q-21 15.5 -29.5 35q-8.5 19.5 -8.5 40.5q0 42 33.5 77q33.5 35 109.5 69l-92 13l9 61q30 8 60 16q30 8 60 18q-54 20 -78.5 49q-24.5 29 -24.5 77q0 47 17.5 85.5q17.5 38.5 47.5 66q30 27.5 70.5 42.5q40.5 15 86.5 15q24 0 53 -7q29 -7 46 -18l140 50l-12 -83zM281 416q-26 0 -48 -10q-22 -10 -38.5 -27.5q-16.5 -17.5 -26 -41q-9.5 -23.5 -9.5 -50.5q0 -40 23 -64.5q23 -24.5 69 -24.5q55 0 88.5 36.5q33.5 36.5 33.5 92.5q0 37 -22.5 63q-22.5 26 -69.5 26zt0 0zM181 -140q74 0 117 25q43 25 43 67q0 24 -25.5 43.5q-25.5 19.5 -88.5 28.5q-51 -17 -81.5 -33.5q-30.5 -16.5 -46 -31.5q-15.5 -15 -20.5 -27.5q-5 -12.5 -5 -19.5q0 -23 27 -37.5q27 -14.5 80 -14.5zt0 0zM244 631q0 22 10.5 46q10.5 24 25.5 47q15 23 31 43q16 20 27 32l39 -22l-56 -102q24 -2 41 -19.5q17 -17.5 17 -42.5q0 -25 -18.5 -44q-18.5 -19 -44.5 -19q-29 0 -50.5 21t-21.5 60z" />
<glyph unicode="&#298;" horiz-adv-x="277" d="M100 789l9 70h200l-9 -70zM40 0l97 700h100l-97 -700z" />
<glyph unicode="&#299;" horiz-adv-x="230" d="M80 589l9 70h170l-9 -70zM127 0h-90l66 472l90 0z" />
<glyph unicode="&#302;" horiz-adv-x="277" d="M40 0l97 700h100l-97 -700h50q-44 -26 -59.5 -46.5q-15.5 -20.5 -15.5 -31.5q0 -8 6 -17q6 -9 29 -9q5 0 9.5 0.5q4.5 0.5 10.5 1.5l-5 -34q-11 -7 -24.5 -12.5q-13.5 -5.5 -33.5 -5.5q-30 0 -42 15.5q-12 15.5 -12 32.5q0 29 21 54.5q21 25.5 62 51.5z" />
<glyph unicode="&#303;" horiz-adv-x="230" d="M37 0l66 472h90l-66 -472q-44 -26 -59.5 -46.5q-15.5 -20.5 -15.5 -31.5q0 -8 6 -17q6 -9 29 -9q5 0 9.5 0.5q4.5 0.5 10.5 1.5l-5 -34q-11 -7 -24.5 -12.5q-13.5 -5.5 -33.5 -5.5q-30 0 -42 15.5q-12 15.5 -12 32.5q0 29 21 54.5q21 25.5 62 51.5zM168 562q-23 0 -40.5 17q-17.5 17 -17.5 40q0 25 17.5 42.5q17.5 17.5 40.5 17.5q25 0 42 -17.5q17 -17.5 17 -42.5q0 -23 -17 -40t-42 -17z" />
<glyph unicode="&#305;" horiz-adv-x="230" d="M127 0h-90l66 472l90 0z" />
<glyph unicode="&#310;" horiz-adv-x="622" d="M418 0l-157 317h-77l-44 -317h-100l97 700h100l-41 -293h71l248 293h120l-283 -334l192 -366zM338 -121q0 -22 -11 -46q-11 -24 -26 -47q-15 -23 -31 -43q-16 -20 -26 -32l-39 22l56 102q-24 2 -41 19.5q-17 17.5 -17 42.5q0 25 18.5 44q18.5 19 44.5 19q29 0 50.5 -21t21.5 -60z" />
<glyph unicode="&#311;" horiz-adv-x="492" d="M288 278l143 -278h-107l-110 211l-66 -61l-21 -150h-90l97 700h90l-62 -446l233 218h107zM283 -121q0 -22 -11 -46q-11 -24 -26 -47q-15 -23 -31 -43q-16 -20 -26 -32l-39 22l56 102q-24 2 -41 19.5q-17 17.5 -17 42.5q0 25 18.5 44q18.5 19 44.5 19q29 0 50.5 -21t21.5 -60z" />
<glyph unicode="&#313;" horiz-adv-x="484" d="M442 0h-402l97 700h100l-85 -610h302zM198 772h-65l121 162l98 0z" />
<glyph unicode="&#314;" horiz-adv-x="235" d="M127 0h-90l97 700h90zM203 775h-65l121 162l98 0z" />
<glyph unicode="&#315;" horiz-adv-x="484" d="M442 0h-402l97 700h100l-85 -610h302zM309 -121q0 -22 -11 -46q-11 -24 -26 -47q-15 -23 -31 -43q-16 -20 -26 -32l-39 22l56 102q-24 2 -41 19.5q-17 17.5 -17 42.5q0 25 18.5 44q18.5 19 44.5 19q29 0 50.5 -21t21.5 -60z" />
<glyph unicode="&#316;" horiz-adv-x="235" d="M127 0h-90l97 700h90zM135 -121q0 -22 -11 -46q-11 -24 -26 -47q-15 -23 -31 -43q-16 -20 -26 -32l-39 22l56 102q-24 2 -41 19.5q-17 17.5 -17 42.5q0 25 18.5 44q18.5 19 44.5 19q29 0 50.5 -21t21.5 -60z" />
<glyph unicode="&#317;" horiz-adv-x="484" d="M442 0h-402l97 700h100l-85 -610h302zM425 619q0 -22 -11 -46q-11 -24 -26 -47q-15 -23 -31 -43q-16 -20 -26 -32l-39 22l56 102q-24 2 -41 19.5q-17 17.5 -17 42.5q0 25 18.5 44q18.5 19 44.5 19q29 0 50.5 -21t21.5 -60z" />
<glyph unicode="&#318;" horiz-adv-x="389" d="M127 0h-90l97 700h90zM409 619q0 -22 -11 -46q-11 -24 -26 -47q-15 -23 -31 -43q-16 -20 -26 -32l-39 22l56 102q-24 2 -41 19.5q-17 17.5 -17 42.5q0 25 18.5 44q18.5 19 44.5 19q29 0 50.5 -21t21.5 -60z" />
<glyph unicode="&#321;" horiz-adv-x="484" d="M183 314l-31 -224h302l-12 -90h-402l35 256l-59 -32l-26 60l97 52l50 364h100l-42 -306l89 49l27 -60z" />
<glyph unicode="&#322;" horiz-adv-x="235" d="M161 243l-34 -243h-90l26 191l-62 -33l-27 60l100 54l60 428h90l-52 -376l64 34l26 -60z" />
<glyph unicode="&#323;" horiz-adv-x="747" d="M610 0h-70l-339 510l-71 -510h-90l97 700h70l339 -511l71 511h90zM429 772h-65l121 162l98 0z" />
<glyph unicode="&#324;" horiz-adv-x="564" d="M184 414q14 12 31.5 24.5q17.5 12.5 38.5 23q21 10.5 45 17.5q24 7 51 7q31 0 60.5 -10q29.5 -10 51.5 -30.5q22 -20.5 35.5 -52q13.5 -31.5 13.5 -75.5q0 -22 -3 -44l-38 -274h-91l38 274q2 8 2 16q0 8 0 16q0 28 -7.5 47q-7.5 19 -21 30.5q-13.5 11.5 -31.5 16.5q-18 5 -38 5q-16 0 -36 -5q-20 -5 -40.5 -13.5q-20.5 -8.5 -39 -20q-18.5 -11.5 -31.5 -24.5l-47 -342h-90l65 472h90zM318 544h-65l121 162l98 0z" />
<glyph unicode="&#325;" horiz-adv-x="747" d="M610 0h-70l-339 510l-71 -510h-90l97 700h70l339 -511l71 511h90zM391 -121q0 -22 -11 -46q-11 -24 -26 -47q-15 -23 -31 -43q-16 -20 -26 -32l-39 22l56 102q-24 2 -41 19.5q-17 17.5 -17 42.5q0 25 18.5 44q18.5 19 44.5 19q29 0 50.5 -21t21.5 -60z" />
<glyph unicode="&#326;" horiz-adv-x="564" d="M184 414q14 12 31.5 24.5q17.5 12.5 38.5 23q21 10.5 45 17.5q24 7 51 7q31 0 60.5 -10q29.5 -10 51.5 -30.5q22 -20.5 35.5 -52q13.5 -31.5 13.5 -75.5q0 -22 -3 -44l-38 -274h-91l38 274q2 8 2 16q0 8 0 16q0 28 -7.5 47q-7.5 19 -21 30.5q-13.5 11.5 -31.5 16.5q-18 5 -38 5q-16 0 -36 -5q-20 -5 -40.5 -13.5q-20.5 -8.5 -39 -20q-18.5 -11.5 -31.5 -24.5l-47 -342h-90l65 472h90zM319 -121q0 -22 -11 -46q-11 -24 -26 -47q-15 -23 -31 -43q-16 -20 -26 -32l-39 22l56 102q-24 2 -41 19.5q-17 17.5 -17 42.5q0 25 18.5 44q18.5 19 44.5 19q29 0 50.5 -21t21.5 -60z" />
<glyph unicode="&#327;" horiz-adv-x="747" d="M610 0h-70l-339 510l-71 -510h-90l97 700h70l339 -511l71 511h90zM469 772h-98l-95 162h65l88 -101l116 101l65 0z" />
<glyph unicode="&#328;" horiz-adv-x="564" d="M184 414q14 12 31.5 24.5q17.5 12.5 38.5 23q21 10.5 45 17.5q24 7 51 7q31 0 60.5 -10q29.5 -10 51.5 -30.5q22 -20.5 35.5 -52q13.5 -31.5 13.5 -75.5q0 -22 -3 -44l-38 -274h-91l38 274q2 8 2 16q0 8 0 16q0 28 -7.5 47q-7.5 19 -21 30.5q-13.5 11.5 -31.5 16.5q-18 5 -38 5q-16 0 -36 -5q-20 -5 -40.5 -13.5q-20.5 -8.5 -39 -20q-18.5 -11.5 -31.5 -24.5l-47 -342h-90l65 472h90zM378 544h-98l-95 162h65l88 -101l116 101l65 0z" />
<glyph unicode="&#332;" horiz-adv-x="753" d="M307 789l9 70h261l-9 -70zM326 -15q-72 0 -126 23.5q-54 23.5 -91 64q-37 40.5 -55.5 95.5q-18.5 55 -18.5 118q0 84 28 161.5q28 77.5 79 137q51 59.5 123.5 95q72.5 35.5 161.5 35.5q72 0 126.5 -23.5q54.5 -23.5 91 -64.5q36.5 -41 55 -96.5q18.5 -55.5 18.5 -118.5q0 -83 -28 -160.5q-28 -77.5 -79.5 -136.5q-51.5 -59 -124 -94.5q-72.5 -35.5 -160.5 -35.5zt0 0zM338 75q55 0 105.5 22.5q50.5 22.5 89.5 65q39 42.5 62 104q23 61.5 23 138.5q0 52 -14.5 93q-14.5 41 -41.5 69q-27 28 -64.5 43q-37.5 15 -82.5 15q-55 0 -105.5 -23q-50.5 -23 -89 -65.5q-38.5 -42.5 -61.5 -104q-23 -61.5 -23 -139.5q0 -52 14.5 -92.5q14.5 -40.5 41.5 -68.5q27 -28 64 -42.5t82 -14.5z" />
<glyph unicode="&#333;" horiz-adv-x="559" d="M199 589l9 70h260l-9 -70zM244 -15q-45 0 -83 14q-38 14 -66 41q-28 27 -43.5 66.5q-15.5 39.5 -15.5 90.5q0 75 23.5 130q23.5 55 62.5 91q39 36 89 53q50 17 104 17q45 0 83 -14q38 -14 66 -41q28 -27 43.5 -66.5q15.5 -39.5 15.5 -90.5q0 -75 -23.5 -130q-23.5 -55 -62.5 -91q-39 -36 -89 -53q-50 -17 -104 -17zt0 0zM255 60q37 0 69.5 14.5q32.5 14.5 56.5 42q24 27.5 37.5 67.5q13.5 40 13.5 92q0 66 -34 101.5q-34 35.5 -94 35.5q-37 0 -69.5 -14.5q-32.5 -14.5 -56.5 -42q-24 -27.5 -37.5 -67.5q-13.5 -40 -13.5 -92q0 -66 34 -101.5t94 -35.5z" />
<glyph unicode="&#336;" horiz-adv-x="753" d="M326 -15q-72 0 -126 23.5q-54 23.5 -91 64q-37 40.5 -55.5 95.5q-18.5 55 -18.5 118q0 84 28 161.5q28 77.5 79 137q51 59.5 123.5 95q72.5 35.5 161.5 35.5q72 0 126.5 -23.5q54.5 -23.5 91 -64.5q36.5 -41 55 -96.5q18.5 -55.5 18.5 -118.5q0 -83 -28 -160.5q-28 -77.5 -79.5 -136.5q-51.5 -59 -124 -94.5q-72.5 -35.5 -160.5 -35.5zt0 0zM338 75q55 0 105.5 22.5q50.5 22.5 89.5 65q39 42.5 62 104q23 61.5 23 138.5q0 52 -14.5 93q-14.5 41 -41.5 69q-27 28 -64.5 43q-37.5 15 -82.5 15q-55 0 -105.5 -23q-50.5 -23 -89 -65.5q-38.5 -42.5 -61.5 -104q-23 -61.5 -23 -139.5q0 -52 14.5 -92.5q14.5 -40.5 41.5 -68.5q27 -28 64 -42.5q37 -14.5 82 -14.5zt0 0zM366 772h-65l121 162h98zM497 772h-65l121 162l98 0z" />
<glyph unicode="&#337;" horiz-adv-x="559" d="M244 -15q-45 0 -83 14q-38 14 -66 41q-28 27 -43.5 66.5q-15.5 39.5 -15.5 90.5q0 75 23.5 130q23.5 55 62.5 91q39 36 89 53q50 17 104 17q45 0 83 -14q38 -14 66 -41q28 -27 43.5 -66.5q15.5 -39.5 15.5 -90.5q0 -75 -23.5 -130q-23.5 -55 -62.5 -91q-39 -36 -89 -53q-50 -17 -104 -17zt0 0zM255 60q37 0 69.5 14.5q32.5 14.5 56.5 42q24 27.5 37.5 67.5q13.5 40 13.5 92q0 66 -34 101.5q-34 35.5 -94 35.5q-37 0 -69.5 -14.5q-32.5 -14.5 -56.5 -42q-24 -27.5 -37.5 -67.5q-13.5 -40 -13.5 -92q0 -66 34 -101.5q34 -35.5 94 -35.5zt0 0zM259 544h-65l121 162h98zM390 544h-65l121 162l98 0z" />
<glyph unicode="&#338;" horiz-adv-x="1248" d="M942 317h-234l-32 -227h269l-12 -90h-369l11 79q-49 -44 -111.5 -69q-62.5 -25 -137.5 -25q-72 0 -126 23.5q-54 23.5 -91 64q-37 40.5 -55.5 95.5q-18.5 55 -18.5 118q0 84 28 161.5q28 77.5 79 137q51 59.5 123.5 95q72.5 35.5 161.5 35.5q75 0 130.5 -25q55.5 -25 92.5 -70l11 80h358l-12 -90h-258l-29 -203h234zM338 75q55 0 105.5 22.5q50.5 22.5 89.5 65q39 42.5 62 104q23 61.5 23 138.5q0 52 -14.5 93q-14.5 41 -41.5 69q-27 28 -64.5 43q-37.5 15 -82.5 15q-55 0 -105.5 -23q-50.5 -23 -89 -65.5q-38.5 -42.5 -61.5 -104q-23 -61.5 -23 -139.5q0 -52 14.5 -92.5q14.5 -40.5 41.5 -68.5q27 -28 64 -42.5t82 -14.5z" />
<glyph unicode="&#339;" horiz-adv-x="1060" d="M244 -15q-45 0 -83 12.5q-38 12.5 -66 38q-28 25.5 -43.5 63q-15.5 37.5 -15.5 88.5q0 75 23.5 131.5q23.5 56.5 62.5 94q39 37.5 89 56.5q50 19 104 19q61 0 108 -23q47 -23 74 -69q38 48 88 70q50 22 98 22q85 0 128.5 -45q43.5 -45 43.5 -140q0 -17 -1.5 -34q-1.5 -17 -3.5 -36l-331 0q-2 -10 -2 -19.5q0 -9.5 0 -17.5q0 -37 10 -61.5q10 -24.5 28.5 -39.5q18.5 -15 44 -21q25.5 -6 57.5 -6q16 0 35.5 5.5q19.5 5.5 39 14q19.5 8.5 37.5 18.5q18 10 31 19l28 -65q-17 -11 -38 -24q-21 -13 -46.5 -24.5q-25.5 -11.5 -54 -19q-28.5 -7.5 -59.5 -7.5q-56 0 -102.5 23q-46.5 23 -72.5 71q-39 -48 -94 -71q-55 -23 -117 -23zt0 0zM255 60q37 0 69.5 14.5q32.5 14.5 56.5 42q24 27.5 37.5 67.5q13.5 40 13.5 92q0 66 -34 101.5q-34 35.5 -94 35.5q-37 0 -69.5 -14.5q-32.5 -14.5 -56.5 -42q-24 -27.5 -37.5 -67.5q-13.5 -40 -13.5 -92q0 -66 34 -101.5q34 -35.5 94 -35.5zt0 0zM674 408q-43 0 -77.5 -24.5q-34.5 -24.5 -61.5 -85.5l237 0q0 5 0.5 9.5q0.5 4.5 0.5 9.5q0 42 -21 66.5t-78 24.5z" />
<glyph unicode="&#340;" horiz-adv-x="570" d="M140 0h-100l97 700h197q40 0 77.5 -12q37.5 -12 66 -36q28.5 -24 45.5 -59.5q17 -35.5 17 -81.5q0 -45 -13 -80.5q-13 -35.5 -35 -62q-22 -26.5 -50.5 -45q-28.5 -18.5 -59.5 -30.5l128 -293h-115l-121 274h-96zM190 364h79q77 0 121 32q44 32 44 104q0 49 -32.5 79.5q-32.5 30.5 -97.5 30.5h-79zM331 772h-65l121 162l98 0z" />
<glyph unicode="&#341;" horiz-adv-x="359" d="M172 324q30 74 76 110.5q46 36.5 119 53.5l12 -77q-109 -32 -162.5 -89q-53.5 -57 -65.5 -147l-24 -175h-90l65 472h90zM235 544h-65l121 162l98 0z" />
<glyph unicode="&#342;" horiz-adv-x="570" d="M140 0h-100l97 700h197q40 0 77.5 -12q37.5 -12 66 -36q28.5 -24 45.5 -59.5q17 -35.5 17 -81.5q0 -45 -13 -80.5q-13 -35.5 -35 -62q-22 -26.5 -50.5 -45q-28.5 -18.5 -59.5 -30.5l128 -293h-115l-121 274h-96zM190 364h79q77 0 121 32q44 32 44 104q0 49 -32.5 79.5q-32.5 30.5 -97.5 30.5h-79zM322 -121q0 -22 -11 -46q-11 -24 -26 -47q-15 -23 -31 -43q-16 -20 -26 -32l-39 22l56 102q-24 2 -41 19.5q-17 17.5 -17 42.5q0 25 18.5 44q18.5 19 44.5 19q29 0 50.5 -21t21.5 -60z" />
<glyph unicode="&#343;" horiz-adv-x="359" d="M172 324q30 74 76 110.5q46 36.5 119 53.5l12 -77q-109 -32 -162.5 -89q-53.5 -57 -65.5 -147l-24 -175h-90l65 472h90zM167 -121q0 -22 -11 -46q-11 -24 -26 -47q-15 -23 -31 -43q-16 -20 -26 -32l-39 22l56 102q-24 2 -41 19.5q-17 17.5 -17 42.5q0 25 18.5 44q18.5 19 44.5 19q29 0 50.5 -21t21.5 -60z" />
<glyph unicode="&#344;" horiz-adv-x="570" d="M140 0h-100l97 700h197q40 0 77.5 -12q37.5 -12 66 -36q28.5 -24 45.5 -59.5q17 -35.5 17 -81.5q0 -45 -13 -80.5q-13 -35.5 -35 -62q-22 -26.5 -50.5 -45q-28.5 -18.5 -59.5 -30.5l128 -293h-115l-121 274h-96zM190 364h79q77 0 121 32q44 32 44 104q0 49 -32.5 79.5q-32.5 30.5 -97.5 30.5h-79zM371 772h-98l-95 162h65l88 -101l116 101l65 0z" />
<glyph unicode="&#345;" horiz-adv-x="359" d="M172 324q30 74 76 110.5q46 36.5 119 53.5l12 -77q-109 -32 -162.5 -89q-53.5 -57 -65.5 -147l-24 -175h-90l65 472h90zM276 544h-98l-95 162h65l88 -101l116 101l65 0z" />
<glyph unicode="&#346;" horiz-adv-x="530" d="M489 218q0 -52 -21 -95q-21 -43 -57 -73.5q-36 -30.5 -85 -47.5q-49 -17 -104 -17q-33 0 -65 9q-32 9 -60 22.5q-28 13.5 -50.5 28q-22.5 14.5 -36.5 26.5l58 77q12 -10 30.5 -22.5q18.5 -12.5 40.5 -24q22 -11.5 47.5 -19q25.5 -7.5 52.5 -7.5q29 0 55 6.5q26 6.5 45.5 20q19.5 13.5 31 35q11.5 21.5 11.5 52.5q0 34 -20.5 58q-20.5 24 -52 45q-31.5 21 -67.5 41q-36 20 -67.5 44.5q-31.5 24.5 -52 56.5q-20.5 32 -20.5 77q0 44 12 81.5q12 37.5 41.5 64.5q29.5 27 78 42.5q48.5 15.5 122.5 15.5q46 0 89.5 -13.5q43.5 -13.5 74.5 -30.5l-40 -82q-23 11 -63.5 23.5q-40.5 12.5 -84.5 12.5q-24 0 -47 -2.5q-23 -2.5 -40.5 -11q-17.5 -8.5 -28 -25.5q-10.5 -17 -10.5 -47q0 -31 21 -54q21 -23 52.5 -43q31.5 -20 68 -39.5q36.5 -19.5 68 -45q31.5 -25.5 52.5 -59q21 -33.5 21 -80.5zt0 0zM341 772h-65l121 162l98 0z" />
</font>
</defs>
</svg>
